<svg width="50" height="51" viewBox="0 0 50 51" fill="none" xmlns="http://www.w3.org/2000/svg">
<circle cx="25" cy="25.7051" r="25" fill="white"/>
<g clip-path="url(#clip0_2_5764)">
<path d="M26.3333 23.8384L34.3333 19.3051V24.3717C35.2667 24.3717 36.2 24.5051 37 24.9051V17.0384C37 16.5051 36.7333 16.1051 36.3333 15.8384L25.8 9.97174C25.5333 9.83841 25.2667 9.70508 25 9.70508C24.7333 9.70508 24.4667 9.83841 24.2 9.97174L13.6667 15.8384C13.2667 16.1051 13 16.5051 13 17.0384V29.0384C13 29.5717 13.2667 29.9717 13.6667 30.2384L24.2 36.1051C24.4667 36.2384 24.7333 36.3717 25 36.3717C25.2667 36.3717 25.5333 36.2384 25.8 36.1051L27 35.4384C26.6 34.6384 26.4667 33.7051 26.3333 32.7717V23.8384ZM25 12.6384L33 17.0384L30.3333 18.5051L22.4667 13.9717L25 12.6384ZM23.6667 32.7717L15.6667 28.2384V19.3051L23.6667 23.8384V32.7717ZM25 21.4384L17 17.0384L19.6667 15.4384L27.6667 20.1051L25 21.4384ZM39.6667 31.0384V33.7051H29V31.0384H39.6667Z" fill="#2196F3"/>
</g>
<defs>
<clipPath id="clip0_2_5764">
<rect width="32" height="32" fill="white" transform="translate(9 9.70508)"/>
</clipPath>
</defs>
</svg>
