<svg width="50" height="50" viewBox="0 0 50 50" fill="none" xmlns="http://www.w3.org/2000/svg">
<circle cx="25" cy="25" r="25" fill="white"/>
<path d="M25 41.0019C24.8108 41.0019 24.6246 40.9548 24.4582 40.8648L9.60007 32.8642L10.6836 30.8527L25 38.5606L39.3164 30.8527L40.3999 32.8642L25.5418 40.8648C25.3754 40.9548 25.1892 41.0019 25 41.0019ZM25 27.2867C24.8108 27.2867 24.6246 27.2395 24.4582 27.1495L9.60007 19.149C9.41863 19.0511 9.26706 18.9059 9.16142 18.7288C9.05578 18.5517 9 18.3494 9 18.1432C9 17.937 9.05578 17.7347 9.16142 17.5576C9.26706 17.3805 9.41863 17.2354 9.60007 17.1374L24.4582 9.13686C24.6247 9.04703 24.8109 9 25 9C25.1891 9 25.3753 9.04703 25.5418 9.13686L40.3999 17.1374C40.5814 17.2354 40.7329 17.3805 40.8386 17.5576C40.9442 17.7347 41 17.937 41 18.1432C41 18.3494 40.9442 18.5517 40.8386 18.7288C40.7329 18.9059 40.5814 19.0511 40.3999 19.149L25.5418 27.1495C25.3754 27.2395 25.1892 27.2867 25 27.2867ZM12.5534 18.1432L25 24.8454L37.4466 18.1432L25 11.441L12.5534 18.1432Z" fill="#2196F3"/>
</svg>
