<svg width="89" height="100" viewBox="0 0 89 29" fill="none" xmlns="http://www.w3.org/2000/svg">
<path opacity="0.09" d="M72.4792 10.8231C72.4792 10.8231 71.7755 1.06585 57.4915 0.714031C43.2074 0.362206 47.0306 10.483 43.1957 12.9223C39.3608 15.3616 38.3171 11.5268 34.4822 13.9661C30.6473 16.4054 32.3947 21.284 29.2517 21.9759C26.1088 22.6679 21.9338 18.8447 18.0989 21.284C14.264 23.7233 14.264 25.8108 12.5166 25.8108C10.7692 25.8108 7.28617 24.427 5.19868 25.8108C3.11119 27.1947 0.671875 28.9538 0.671875 28.9538H88.8625C88.8625 28.9538 89.9062 25.8108 86.0713 23.7233C82.2364 21.6358 80.5008 23.3715 79.1052 21.6358C77.7096 19.9002 82.9401 15.3616 72.4792 10.8231Z" fill="black"/>
</svg>
