<svg width="60" height="61" viewBox="0 0 60 61" fill="none" xmlns="http://www.w3.org/2000/svg">
<circle cx="30" cy="30.7051" r="29.5" fill="white" stroke="#0000FF"/>
<path d="M20.4704 31.2922L19.3544 30.1211C18.8819 29.6252 18.8819 28.8233 19.3544 28.3327L29.122 18.0773C29.5945 17.5815 30.3586 17.5815 30.8261 18.0773L40.5987 28.3327C41.0713 28.8286 41.0713 29.6304 40.5987 30.1211L39.4827 31.2922C39.0051 31.7933 38.226 31.7828 37.7584 31.2711L31.9874 24.9142V40.0757C31.9874 40.7773 31.4495 41.3418 30.7809 41.3418H29.1722C28.5036 41.3418 27.9657 40.7773 27.9657 40.0757V24.9142L22.1947 31.2711C21.7272 31.7881 20.948 31.7986 20.4704 31.2922Z" fill="#0000FF"/>
</svg>
