<svg width="649" height="396" viewBox="0 0 649 396" fill="none" xmlns="http://www.w3.org/2000/svg">
<rect width="649" height="396" fill="#F5F5F5"/>
<g clip-path="url(#clip0_0_1)">
<rect width="1440" height="3880" transform="translate(-765 -230)" fill="white"/>
<rect width="1440" height="731" transform="translate(-765 -180)" fill="url(#paint0_linear_0_1)"/>
<path d="M629.904 131.985C629.95 159.863 621.122 187.033 604.698 209.561C591.423 227.823 573.683 242.374 553.177 251.821C532.671 261.269 510.084 265.297 487.577 263.521C465.069 261.745 443.393 254.224 424.623 241.677C405.852 229.131 390.615 211.978 380.367 191.859C370.12 171.741 365.206 149.33 366.095 126.77C366.984 104.21 373.646 82.2549 385.444 63.0051C397.242 43.7553 413.782 27.8545 433.481 16.8234C453.181 5.79226 475.381 -0.000197879 497.959 5.06999e-09C501.575 5.06998e-09 505.162 0.136457 508.68 0.428868C529.122 2.06431 548.895 8.47066 566.412 19.1334C579.932 27.3622 591.869 37.9455 601.657 50.3824C619.99 73.6144 629.949 102.352 629.924 131.946L629.904 131.985Z" fill="#EBEBEB"/>
<path d="M526.44 194.268C524.783 198.703 527.551 198.888 527.736 200.74C527.921 202.592 527.736 206.091 522.375 211.462C517.014 216.832 508.144 215.711 506.302 217.934C504.46 220.156 501.312 229.572 496.877 232.72C492.442 235.868 491.701 234.007 485.414 235.303C479.128 236.599 474.322 244.728 472.48 248.608C470.638 252.487 472.85 258.959 468.416 259.144C463.981 259.329 461.944 249.719 457.879 244.524C453.815 239.329 452.518 234.728 451.222 228.636C449.925 222.544 451.963 209.785 451.222 204.795C450.481 199.804 437.176 190.935 432.371 184.833C427.566 178.731 420.899 166.547 421.289 162.483C421.852 158.539 423.817 154.93 426.825 152.317C429.047 150.65 428.121 149.734 428.492 148.252C428.862 146.771 430.714 146.4 431.084 144.558C431.455 142.716 429.973 137.16 428.16 136.234C426.347 135.308 425.022 138.457 423.911 137.901C422.799 137.345 419.476 133.466 418.179 133.096C416.883 132.725 417.263 135.503 415.411 131.985C413.559 128.466 412.604 119.606 411.152 118.124C409.699 116.643 408.559 120.717 405.05 118.124C401.541 115.532 400.06 110.551 398.588 109.81C397.116 109.069 395.069 109.995 393.549 107.042C392.028 104.089 394.884 98.7179 393.549 99.2443C392.213 99.7706 389.348 104.05 388.607 99.985C387.866 95.9205 392.301 82.2454 391.531 74.8572C390.761 67.4689 393.383 59.7006 398.559 53.4137C398.559 53.4137 399.29 49.3492 400.03 46.7662C400.771 44.1833 416.669 33.8222 418.55 30.8688C419.32 29.631 419.583 27.7011 419.856 25.6152C442.488 8.93676 469.875 -0.0384576 497.988 0.00974515C501.604 0.00974515 505.191 0.146202 508.71 0.438613C508.827 0.604313 508.953 0.770012 509.08 0.925965C510.679 2.96309 512.404 4.25945 517.092 5.98467C521.781 7.7099 522.872 9.88349 521.898 11.7744C520.923 13.6653 519.305 13.987 517.463 14.1137C515.62 14.2404 513.885 13.2462 511.917 14.4841C509.948 15.722 508.018 22.3694 505.386 22.7398C502.754 23.1102 498.242 16.8234 497.247 14.9422C496.253 13.061 499.47 9.15246 497.959 7.31027C496.448 5.46808 493.807 5.82872 489.615 5.45833C485.424 5.08795 475.687 6.69621 476.057 8.29472C476.428 9.89323 490.346 8.0413 490.678 11.2188C491.009 14.3964 480.453 19.845 478.611 19.3479C476.769 18.8508 474.322 15.7804 471.583 15.3711C468.844 14.9617 466.71 17.223 464.955 17.4667C463.201 17.7104 461.242 15.6245 458.649 16.1118C456.056 16.5992 455.442 18.8215 454.087 19.689C452.733 20.5565 449.536 20.5467 449.165 22.5156C448.795 24.4845 453.23 25.6054 454.341 26.8336C455.452 28.0617 452.976 32.2529 454.087 33.1107C455.199 33.9684 462.1 27.9447 463.834 26.4632C465.569 24.9816 467.032 18.5778 470.735 18.6656C474.439 18.7533 475.658 25.0694 476.896 25.6834C478.133 26.2975 480.794 24.2019 484.908 25.0694C489.021 25.9368 491.799 34.8164 492.539 37.5163C493.28 40.2162 495.005 42.9357 493.514 44.0468C492.023 45.158 485.385 43.306 484.527 41.5808C483.67 39.8556 488.962 37.2629 488.592 36.6488C488.222 36.0348 485.142 35.1673 483.533 36.1322C481.925 37.0972 481.194 39.1148 479.469 39.6119C477.744 40.109 473.192 34.9236 471.954 36.4052C470.716 37.8867 473.192 42.5653 474.42 43.6764C475.648 44.7876 480.209 45.3919 480.58 46.6005C480.95 47.8092 477.5 50.4994 473.309 50.2947C469.117 50.09 465.677 46.8442 464.068 48.1991C462.46 49.5539 463.328 53.1311 462.216 54.3592C461.105 55.5873 455.072 54.7296 452.119 57.9363C449.165 61.1431 447.81 65.9387 444.847 68.6581C441.884 71.3775 440.539 67.927 436.592 71.7479C432.644 75.5687 432.04 84.0681 431.913 87.0215C431.786 89.9748 431.913 92.3141 430.938 91.895C429.964 91.4759 428.599 88.9709 428.229 87.3431C427.858 85.7154 429.086 83.0252 429.086 82.0407C429.086 81.0563 423.423 76.0073 420.09 75.5102C416.756 75.0131 413.813 77.7326 411.318 79.7015C408.822 81.6704 404.417 81.3097 402.818 82.9082C401.22 84.5067 399.982 98.6789 401.21 102.003C402.438 105.326 404.046 105.326 408.033 103.601C412.019 101.876 409.758 98.5522 412.097 99.293C413.149 99.6887 414.054 100.397 414.692 101.322C415.33 102.247 415.669 103.345 415.665 104.469C415.665 106.418 410.986 111.116 411.6 112.471C412.214 113.826 416.288 112.227 418.257 112.841C420.226 113.455 421.181 114.693 420.597 119.742C420.012 124.791 420.353 128.739 423.306 130.406C426.26 132.072 427.926 127.998 429.223 128.554C430.519 129.109 432.361 132.062 434.213 131.877C436.065 131.692 435.139 130.035 438.648 128.953C442.157 127.871 440.861 127.101 441.572 124.889C442.284 122.676 444.496 120.824 446.933 121.965C449.37 123.105 447.674 124.742 447.908 126.585C448.142 128.427 452.343 128.622 455.705 129.733C459.068 130.844 460.881 129.733 467.538 131.946C474.196 134.158 474.556 140.815 477.334 141.926C480.112 143.038 489.342 141.186 496 145.991C502.657 150.796 500.805 159.637 504.129 162.259C507.452 164.881 519.841 168.36 524.597 169.277C529.354 170.193 530.134 166.879 534.023 167.805C537.912 168.731 540.115 169.832 541.411 175.193C542.552 179.95 528.116 189.833 526.44 194.268Z" fill="#DBDBDB"/>
<path d="M427.138 99.7704C427.265 100.813 430.345 101.252 434.039 103.338C437.733 105.424 439.088 111.594 441.057 111.477C443.026 111.36 442.412 108.552 443.152 107.773C443.893 106.993 445.102 105.433 443.152 103.874C441.203 102.314 439.254 98.8249 435.667 98.3278C432.08 97.8307 431.446 96.3784 429.818 96.4856C429.416 96.4946 429.019 96.5909 428.657 96.7678C428.295 96.9446 427.976 97.1979 427.721 97.5101C427.466 97.8223 427.282 98.1861 427.181 98.5763C427.081 98.9665 427.066 99.3739 427.138 99.7704Z" fill="#DBDBDB"/>
<path d="M447.47 110.12C446.915 111.631 447.47 112.703 451.369 113.687C455.268 114.672 459.011 112.713 457.783 111.904C456.555 111.095 454.703 111.475 455.434 110.12C456.165 108.765 455.921 106.786 452.724 107.196C449.527 107.605 447.958 108.765 447.47 110.12Z" fill="#DBDBDB"/>
<path d="M461.259 110.543C459.924 110.738 459.173 113.078 460.528 114.559C461.883 116.041 461.883 115.787 463.452 114.559C465.022 113.331 467.517 112.707 466.903 111.479C466.289 110.251 462.624 110.329 461.259 110.543Z" fill="#DBDBDB"/>
<path d="M471.98 115.572C472.584 113.73 475.674 115.572 477.029 117.522C478.384 119.471 477.77 122.327 477.029 124.423C476.288 126.518 475.801 128.984 474.105 128C472.409 127.015 474.232 124.052 473.978 122.327C473.725 120.602 471.493 117.083 471.98 115.572Z" fill="#DBDBDB"/>
<path d="M525.086 12.7887C524.443 14.3385 527.425 14.8844 529.15 15.8688C530.876 16.8533 532.23 17.4673 533.215 15.8688C534.199 14.2703 532.845 12.4184 531.49 12.048C530.135 11.6776 525.7 11.3072 525.086 12.7887Z" fill="#DBDBDB"/>
<path d="M548.369 27.2035C549.51 28.4024 551.45 28.1782 552.804 29.9132C554.159 31.6482 553.672 34.5918 555.397 35.4593C557.122 36.3267 558.321 35.4593 558.477 34.2214C558.633 32.9835 556.011 29.9132 556.255 29.3479C556.498 28.7825 559.832 30.2056 560.573 32.0575C561.314 33.9095 559.832 36.4924 561.547 36.9311C563.263 37.3697 562.902 35.2058 563.643 34.7185C564.384 34.2311 565.982 34.4651 565.856 32.9933C565.729 31.5215 563.76 28.3049 562.162 27.2035C560.563 26.1021 559.325 24.8642 556.615 24.2794C553.906 23.6946 551.323 24.1625 549.958 25.2541C548.594 26.3458 547.668 26.5017 548.369 27.2035Z" fill="#DBDBDB"/>
<path d="M601.675 50.4233C601.601 50.9224 601.357 51.3805 600.983 51.7197C598.391 53.5716 595.311 47.158 591.743 45.9299C588.176 44.7018 586.597 40.1499 585.827 41.1246C585.057 42.0993 585.33 43.4639 584.218 45.0234C583.107 46.583 581.509 46.2613 580.778 49.3414C580.047 52.4214 584.218 58.1137 583.244 59.9364C582.269 61.7591 581.021 61.1645 579.043 61.0476C577.064 60.9306 577.444 62.6461 574.861 61.9053C572.278 61.1645 574.491 58.0065 570.426 54.1077C566.362 50.2089 564.997 49.5461 565.875 47.8208C566.752 46.0956 565.494 43.6394 567.346 43.3859C569.198 43.1325 570.67 45.8519 571.898 46.5927C573.126 47.3335 574.735 45.1112 574.822 43.1423C574.91 41.1734 570.504 38.4637 568.906 36.9334C567.307 35.4031 567.181 29.8376 567.795 28.7264C568.409 27.6152 570.261 27.9856 570.719 25.276C571.002 23.6872 568.487 21.0263 566.352 19.0963C579.906 27.3408 591.87 37.9514 601.675 50.4233Z" fill="#DBDBDB"/>
<path d="M620.077 160.886C620.447 156.938 618.478 156.695 620.447 149.423C622.416 142.152 618.351 134.393 616.87 132.795C615.388 131.196 612.191 131.684 609.598 133.282C607.006 134.881 608.867 136.119 607.133 136.733C605.398 137.347 603.692 136.362 602.084 136.489C600.475 136.616 599.003 140.67 595.553 140.553C592.103 140.437 589.89 135.505 587.307 131.986C584.724 128.467 579.412 126.264 577.696 121.946C575.981 117.628 579.295 110.981 578.554 105.932C577.813 100.883 574.49 101.984 573.876 99.1091C573.262 96.2337 574.363 97.6276 575.23 94.9179C576.098 92.2082 574.256 90.7267 575.971 86.0481C577.687 81.3695 580.777 79.0205 580.036 76.9346C579.295 74.8488 576.956 71.3886 576.829 68.9323C576.702 66.4761 579.168 66.5833 583.847 63.0841C588.525 59.5849 589.763 59.8773 593.34 61.1347C595.904 62.0876 598.542 62.8308 601.226 63.357C603.321 63.7274 606.158 69.1467 607.016 68.9031C607.873 68.6594 607.99 67.0511 608.37 64.7118C608.606 63.6935 609.142 62.7697 609.91 62.0607C623.816 84.3628 630.748 110.308 629.819 136.574C628.89 162.84 620.142 188.23 604.696 209.494C617.269 190.38 619.735 164.824 620.077 160.886Z" fill="#DBDBDB"/>
<path d="M418.715 57.0792L418.5 56.3774L419.475 56.1045L419.68 56.8062L418.715 57.0792Z" fill="#C7C7C7"/>
<path d="M593.333 86.1627L591.92 84.8079L592.427 84.2815L593.84 85.6461L593.333 86.1627ZM590.497 83.4725L589.045 82.1664L589.532 81.6206C590.019 82.0495 590.507 82.4881 590.994 82.9364L590.497 83.4725ZM587.573 80.8798L586.081 79.6127L586.549 79.0474L588.05 80.3242L587.573 80.8798ZM584.561 78.3748C584.054 77.9655 583.586 77.5561 583.031 77.1565L583.479 76.5814L585.019 77.7998L584.561 78.3748ZM581.471 75.9673L579.902 74.8074L580.331 74.2129L581.91 75.3825L581.471 75.9673ZM578.313 73.667L576.695 72.5461L577.114 71.9418L578.732 73.0627L578.313 73.667ZM575.077 71.4642C574.521 71.1036 573.976 70.7429 573.43 70.4018L573.82 69.778L575.477 70.8501L575.077 71.4642ZM571.763 69.3588L570.087 68.3841L570.467 67.7506L572.153 68.7253L571.763 69.3588ZM568.4 67.4094L566.695 66.4347L567.045 65.7914L568.761 66.7661L568.4 67.4094ZM564.96 65.4893L563.225 64.5828L563.556 63.9395C564.141 64.2319 564.726 64.5341 565.301 64.846L564.96 65.4893ZM561.47 63.7056C560.885 63.4132 560.301 63.1305 559.716 62.8576L560.028 62.1948L561.802 63.0525L561.47 63.7056ZM557.942 62.0291L556.148 61.2201L556.45 60.5573L558.244 61.3565L557.942 62.0291ZM554.355 60.4501C553.751 60.1869 553.146 59.9432 552.542 59.6995L552.825 59.0172C553.429 59.2642 554.033 59.5176 554.638 59.7775L554.355 60.4501ZM550.729 58.9685L548.906 58.2765L549.169 57.5942L551.002 58.296L550.729 58.9685ZM547.084 57.6039L545.232 56.9509L545.475 56.2588L547.327 56.9119L547.084 57.6039ZM543.389 56.3271L541.528 55.7325L541.752 55.0307L543.614 55.635L543.389 56.3271ZM421.552 56.3271L421.357 55.6253L423.257 55.1087L423.442 55.8202L421.552 56.3271ZM425.343 55.3524L425.168 54.6408L427.117 54.173L427.293 54.8845L425.343 55.3524ZM539.695 55.2159L537.814 54.6603L538.019 53.9585L539.9 54.5141L539.695 55.2159ZM429.164 54.4361L428.998 53.7246L430.948 53.286L431.104 53.9975L429.164 54.4361ZM535.913 54.056C535.28 53.8903 534.656 53.7149 534.023 53.5589L534.208 52.8474L536.099 53.3542L535.913 54.056ZM432.956 53.5004L432.809 52.7889L434.759 52.3795L434.905 53.1008L432.956 53.5004ZM532.132 53.0716L530.182 52.6134L530.348 51.9019C530.981 52.0579 531.625 52.2041 532.297 52.3698L532.132 53.0716ZM436.806 52.7109L436.659 51.9896L438.609 51.6192L438.745 52.3405L436.806 52.7109ZM528.33 52.1846L526.381 51.7655L526.537 51.0539L528.486 51.473L528.33 52.1846ZM440.607 51.9799L440.48 51.2586L442.43 50.9175L442.547 51.6387L440.607 51.9799ZM524.431 51.3756L522.482 51.0052L522.618 50.2839C523.262 50.4106 523.905 50.5276 524.568 50.664L524.431 51.3756ZM444.506 51.3073L444.379 50.5861L446.329 50.2644L446.436 50.9857L444.506 51.3073ZM448.405 50.6933L448.297 49.9623L450.247 49.6796L450.344 50.4009L448.405 50.6933ZM520.65 50.6933L518.7 50.3716L518.817 49.6503L520.767 49.972L520.65 50.6933ZM452.294 50.1669L452.186 49.4457L454.136 49.1825L454.224 49.9135L452.294 50.1669ZM516.78 50.0597L514.831 49.7771L514.938 49.0558L516.887 49.3384L516.78 50.0597ZM456.183 49.6698L456.085 48.9193L458.035 48.6951L458.122 49.4164L456.183 49.6698ZM512.901 49.5139L510.951 49.2702L511.039 48.5489L512.988 48.7926L512.901 49.5139ZM460.082 49.2215L460.004 48.5002L461.953 48.2955L462.021 49.0265L460.082 49.2215ZM509.012 49.046L507.062 48.8413L507.13 48.1103L509.08 48.315L509.012 49.046ZM463.98 48.8413L463.922 48.1103L465.871 47.9446L465.93 48.6659L463.98 48.8413ZM505.103 48.6562L503.154 48.4904L503.212 47.7594L505.162 47.9251L505.103 48.6562ZM467.889 48.5099L467.84 47.7887L469.79 47.6425L469.838 48.3735L467.889 48.5099ZM501.195 48.3442L499.245 48.2175V47.4865L501.195 47.6132V48.3442ZM471.807 48.2468L471.758 47.5157L473.708 47.4085V48.1396L471.807 48.2468ZM497.286 48.1006L495.337 48.0128V47.2818L497.286 47.3793V48.1006ZM475.726 48.0421V47.3111L477.675 47.2331V47.9641L475.726 48.0421ZM493.368 47.9446C492.718 47.9446 492.068 47.9251 491.418 47.8861V47.1551C492.071 47.1551 492.734 47.1551 493.368 47.2136V47.9446ZM479.644 47.9446V47.2136H481.593V47.9446H479.644ZM489.449 47.8861H487.5V47.1551H489.449V47.8861ZM483.601 47.8861V47.0674H485.551V47.7984L483.601 47.8861Z" fill="#C7C7C7"/>
<path d="M595.468 88.3172L594.795 87.6252L595.312 87.1086L595.994 87.8103L595.468 88.3172Z" fill="#C7C7C7"/>
<path d="M448.333 136.557C448.264 136.207 448.235 135.851 448.246 135.494H448.977C448.965 135.792 448.988 136.089 449.045 136.381L448.333 136.557Z" fill="#C7C7C7"/>
<path d="M449.045 133.563H448.314C448.314 133.036 448.382 132.452 448.421 131.808V131.604L449.152 131.652V131.847C449.162 132.452 449.074 133.036 449.045 133.563ZM449.289 129.664L448.558 129.615C448.558 129.001 448.636 128.358 448.675 127.666H449.396C449.367 128.397 449.328 129.05 449.289 129.664ZM449.493 125.765H448.762C448.762 125.141 448.762 124.488 448.821 123.816H449.552C449.542 124.469 449.513 125.122 449.493 125.755V125.765ZM449.591 121.866H448.86C448.86 121.369 448.86 120.892 448.86 120.355V119.917H449.591V120.355C449.601 120.823 449.601 121.33 449.591 121.827V121.866ZM448.85 117.967C448.85 117.334 448.85 116.681 448.792 116.018H449.523C449.523 116.691 449.523 117.344 449.581 117.967H448.85ZM448.704 114.069C448.704 113.435 448.626 112.782 448.577 112.119L449.308 112.061C449.357 112.724 449.396 113.377 449.435 114.01L448.704 114.069ZM448.411 110.17C448.353 109.536 448.285 108.893 448.217 108.22L448.938 108.133C449.016 108.796 449.084 109.439 449.142 110.082L448.411 110.17ZM447.973 106.271C447.895 105.637 447.797 104.994 447.7 104.322L448.421 104.214C448.519 104.867 448.616 105.511 448.704 106.164L447.973 106.271ZM447.378 102.372C447.261 101.739 447.135 101.105 447.008 100.423L447.729 100.277C447.856 100.92 447.983 101.563 448.09 102.226L447.378 102.372ZM446.598 98.5611C446.462 97.9276 446.306 97.294 446.15 96.6604L446.862 96.485C447.018 97.1283 447.174 97.7619 447.32 98.4344L446.598 98.5611ZM445.624 94.7793C445.448 94.1652 445.263 93.5414 445.078 92.9176L445.77 92.7032C445.965 93.327 446.15 93.9605 446.326 94.5843L445.624 94.7793ZM444.483 91.0657C444.275 90.4548 444.061 89.8408 443.84 89.2235L444.532 88.97C444.756 89.5939 444.971 90.2079 445.175 90.8317L444.483 91.0657ZM443.148 87.4105C442.914 86.8062 442.67 86.2019 442.407 85.6073L443.08 85.3247C443.343 85.929 443.587 86.5333 443.83 87.1376L443.148 87.4105ZM441.618 83.8334C441.345 83.2485 441.072 82.6637 440.78 82.0789L441.433 81.7475C441.725 82.3421 442.008 82.9366 442.281 83.5215L441.618 83.8334ZM439.883 80.3537C439.581 79.7883 439.269 79.2133 438.908 78.6479L439.542 78.2873C439.873 78.8624 440.195 79.4277 440.516 80.0028L439.883 80.3537ZM437.933 76.9812C437.592 76.4354 437.251 75.8895 436.89 75.3437L437.505 74.9441C437.865 75.4899 438.216 76.0455 438.557 76.6011L437.933 76.9812ZM435.789 73.7354C435.419 73.2091 435.039 72.6925 434.649 72.1662L435.233 71.7276C435.633 72.2539 436.013 72.7802 436.393 73.3163L435.789 73.7354ZM433.46 70.6359C433.05 70.129 432.641 69.6612 432.222 69.1348L432.777 68.667C433.206 69.1641 433.615 69.6417 434.025 70.1778L433.46 70.6359ZM430.935 67.7118C430.496 67.2342 430.058 66.7371 429.6 66.2887L430.126 65.7819C430.587 66.2562 431.036 66.7338 431.471 67.2147L430.935 67.7118ZM428.225 64.9144C427.767 64.466 427.299 64.0274 426.812 63.5888L427.309 63.0429L428.742 64.388L428.225 64.9144ZM425.36 62.2924C424.872 61.8733 424.385 61.4639 423.868 61.0448L424.336 60.4795C424.843 60.8986 425.311 61.3177 425.837 61.7368L425.36 62.2924ZM422.348 59.8459C421.831 59.456 421.315 59.0662 420.779 58.686L421.207 58.0915L422.787 59.2611L422.348 59.8459Z" fill="#C7C7C7"/>
<path d="M419.214 57.5746L418.405 57.0288L418.814 56.4245L419.623 56.9703L419.214 57.5746Z" fill="#C7C7C7"/>
<path d="M450.404 132.237L449.867 131.74C449.867 131.74 450.092 131.486 450.54 131.028L451.066 131.535C450.628 131.983 450.413 132.227 450.404 132.237Z" fill="#C7C7C7"/>
<path d="M452.447 130.153L451.931 129.627L453.364 128.262L453.87 128.789L452.447 130.153ZM455.313 127.463L454.826 126.917C455.284 126.498 455.8 126.059 456.307 125.601L456.785 126.157C456.268 126.615 455.771 127.044 455.313 127.463ZM458.237 124.87L457.769 124.315C458.257 123.905 458.744 123.477 459.29 123.048L459.748 123.613L458.237 124.87ZM461.278 122.375L460.82 121.8L462.38 120.572L462.828 121.157C462.331 121.566 461.834 122.024 461.317 122.375H461.278ZM464.387 119.958L463.949 119.373C464.456 118.983 464.992 118.593 465.528 118.194L465.966 118.778C465.46 119.178 464.933 119.568 464.426 119.958H464.387ZM467.555 117.619L467.126 117.024L468.744 115.884L469.164 116.488L467.555 117.619ZM470.782 115.367L470.372 114.763L472.01 113.661L472.409 114.275C471.893 114.636 471.357 115.006 470.82 115.367H470.782ZM474.056 113.193L473.667 112.579L475.333 111.517L475.723 112.141L474.056 113.193ZM477.39 111.098L477.01 110.484L478.706 109.509L479.076 110.133L477.39 111.098ZM480.772 109.09L480.402 108.456L482.127 107.482L482.478 108.115L480.772 109.09ZM484.203 107.141L483.852 106.497L485.587 105.523L485.928 106.166L484.203 107.141ZM487.673 105.289L487.332 104.636L489.096 103.739L489.428 104.392C488.872 104.704 488.287 105.006 487.712 105.308L487.673 105.289ZM491.182 103.515L490.86 102.862L492.644 102.004L492.956 102.667L491.182 103.515ZM494.74 101.828L494.438 101.166L496.231 100.347L496.533 101.019L494.74 101.828ZM498.336 100.23L498.044 99.5573L499.857 98.7775L500.14 99.4599L498.336 100.23ZM501.962 98.7093L501.689 98.027L503.522 97.296L503.785 97.9783L501.962 98.7093ZM505.627 97.2765L505.364 96.5845L507.216 95.9022L507.469 96.5845C506.885 96.8281 506.27 97.0621 505.695 97.296L505.627 97.2765ZM509.321 95.9217L509.078 95.2296L510.949 94.5863L511.183 95.2784L509.321 95.9217ZM513.045 94.6643L512.82 93.9625L514.702 93.368L514.916 94.06L513.045 94.6643ZM516.797 93.4849L516.593 92.7831L518.483 92.2275L518.688 92.9293L516.797 93.4849ZM520.579 92.3933L520.384 91.6915L522.334 91.1749L522.519 91.8864L520.579 92.3933ZM524.38 91.4186L524.205 90.707L526.154 90.2392L526.32 90.9507C525.696 91.0969 525.053 91.2529 524.419 91.4186H524.38ZM528.211 90.5023L528.045 89.7908L529.995 89.3619L530.151 90.0832L528.211 90.5023ZM532.11 89.6836L531.964 88.9623L533.913 88.5822L534.05 89.3034C533.38 89.4204 532.73 89.5471 532.1 89.6836H532.11ZM536.009 88.9428L535.882 88.2215L537.831 87.8901L537.948 88.6114L536.009 88.9428ZM539.907 88.2995L539.8 87.5782L541.75 87.2858L541.857 88.0071L539.907 88.2995ZM592.824 88.0071L590.875 87.7537L590.972 87.0226L592.922 87.2858L592.824 88.0071ZM543.709 87.7439L543.611 87.0129L545.561 86.7692L545.648 87.5002L543.709 87.7439ZM588.828 87.51L586.878 87.2955L586.956 86.5743L588.906 86.7887L588.828 87.51ZM547.608 87.2761L547.53 86.545L549.479 86.3403L549.547 87.0714L547.608 87.2761ZM584.91 87.1006L582.96 86.9252L583.028 86.1941L584.978 86.3696L584.91 87.1006ZM551.555 86.9349L551.497 86.2039L553.446 86.0479V86.7692L551.555 86.9349ZM581.02 86.8082L579.071 86.6717L579.12 85.9407L581.069 86.0772L581.02 86.8082ZM555.473 86.6328V85.9115C556.127 85.9115 556.78 85.8238 557.423 85.7945V86.5255L555.473 86.6328ZM577.102 86.5548L575.153 86.4573V85.7263L577.102 85.8238V86.5548ZM559.401 86.4281V85.697L561.351 85.6288V86.3598L559.401 86.4281ZM573.174 86.3793L571.225 86.3208V85.5898L573.174 85.6483V86.3793ZM563.339 86.3111V85.5801C564.002 85.5801 564.655 85.5801 565.289 85.5801V86.3111C564.645 86.2429 563.992 86.2526 563.339 86.2721V86.3111ZM569.236 86.3111H567.287V85.5801H569.236V86.3111Z" fill="#C7C7C7"/>
<path d="M595.684 88.425L594.719 88.2788L594.826 87.5575L595.791 87.7037L595.684 88.425Z" fill="#C7C7C7"/>
<path d="M494.002 153.848L493.281 153.722C493.281 153.722 493.339 153.39 493.417 152.747L494.138 152.844C494.07 153.507 494.002 153.848 494.002 153.848Z" fill="#C7C7C7"/>
<path d="M419.446 57.3514L418.51 57.0785L418.705 56.3767L419.65 56.6496L419.446 57.3514Z" fill="#C7C7C7"/>
<path d="M594.865 88.6218L594.709 87.9005L595.684 87.7056L595.82 88.4269L594.865 88.6218Z" fill="#C7C7C7"/>
<path d="M475.251 223.444L475.111 224.408L475.835 224.513L475.974 223.548L475.251 223.444Z" fill="#C7C7C7"/>
<path d="M475.931 224.008L475.229 223.823C475.395 223.189 475.56 222.565 475.716 221.941L476.418 222.117C476.272 222.741 476.106 223.394 475.931 224.008ZM476.857 220.206L476.145 220.05C476.282 219.417 476.408 218.783 476.535 218.15L477.247 218.286C477.13 218.93 477.003 219.563 476.857 220.206ZM477.598 216.308L476.866 216.191C476.974 215.557 477.071 214.914 477.159 214.241L477.88 214.339C477.792 215.07 477.695 215.713 477.598 216.356V216.308ZM478.124 212.409L477.393 212.331C477.471 211.687 477.529 211.044 477.578 210.381L478.309 210.44C478.26 211.181 478.192 211.834 478.124 212.477V212.409ZM478.446 208.51H477.724C477.724 207.857 477.783 207.214 477.802 206.561H478.533C478.514 207.249 478.472 207.922 478.407 208.578L478.446 208.51ZM478.572 204.611H477.841V204.124C477.841 203.636 477.841 203.149 477.841 202.671H478.572C478.572 203.159 478.572 203.646 478.572 204.134V204.611ZM477.773 200.712C477.773 200.069 477.705 199.416 477.666 198.763L478.387 198.714C478.433 199.364 478.471 200.014 478.504 200.664L477.773 200.712ZM477.5 196.814C477.442 196.164 477.373 195.514 477.295 194.864L478.026 194.776C478.104 195.429 478.173 196.073 478.231 196.726L477.5 196.814ZM477.052 192.915C476.954 192.271 476.857 191.628 476.75 190.965L477.471 190.848C477.578 191.482 477.675 192.135 477.773 192.798L477.052 192.915ZM476.457 189.279C476.33 188.646 476.204 188.012 476.067 187.378L476.779 187.222C476.915 187.856 477.052 188.499 477.169 189.172L476.457 189.279ZM475.638 185.487L475.171 183.606L475.872 183.421C476.038 184.045 476.194 184.678 476.35 185.312L475.638 185.487ZM474.664 181.735C474.488 181.101 474.303 180.487 474.108 179.863L474.81 179.649C475.005 180.273 475.18 180.897 475.365 181.53L474.664 181.735ZM473.514 178.021C473.319 177.397 473.104 176.783 472.89 176.179L473.582 175.935C473.796 176.549 474.011 177.164 474.215 177.787L473.514 178.021ZM472.227 174.356C471.993 173.742 471.759 173.148 471.515 172.543L472.198 172.27C472.441 172.875 472.675 173.489 472.909 174.103L472.227 174.356ZM470.784 170.75C470.531 170.146 470.268 169.551 470.014 168.966L470.677 168.664C470.94 169.259 471.203 169.853 471.457 170.467L470.784 170.75ZM469.205 167.192C468.932 166.607 468.65 166.023 468.367 165.438L469.03 165.116C469.313 165.701 469.595 166.286 469.868 166.89L469.205 167.192ZM467.5 163.703C467.207 163.118 466.905 162.543 466.603 161.978L467.246 161.636C467.548 162.202 467.85 162.787 468.153 163.371L467.5 163.703ZM465.677 160.272L464.702 158.576L465.326 158.215C465.657 158.768 465.982 159.333 466.301 159.911L465.677 160.272ZM463.728 156.899C463.396 156.334 463.055 155.779 462.753 155.242L463.377 154.853C463.718 155.398 464.059 155.954 464.351 156.529L463.728 156.899ZM461.681 153.595C461.32 153.04 460.969 152.504 460.608 151.967L461.223 151.568L462.295 153.196L461.681 153.595ZM459.458 150.291C459.088 149.745 458.708 149.219 458.347 148.702L458.932 148.273C459.312 148.79 459.682 149.326 460.063 149.872L459.458 150.291ZM457.197 147.123L456.027 145.573L456.612 145.125L457.782 146.694L457.197 147.123ZM454.828 144.033L453.61 142.523L454.175 142.055C454.575 142.532 454.984 143.029 455.404 143.585L454.828 144.033ZM452.362 141.022L451.115 139.569L451.661 139.092C452.06 139.53 452.489 140.066 452.947 140.573L452.362 141.022ZM449.78 138.097C448.932 137.181 448.434 136.704 448.434 136.694L448.941 136.177C448.941 136.177 449.448 136.665 450.316 137.6L449.78 138.097Z" fill="#C7C7C7"/>
<path d="M426.882 42.9276C426.473 38.7949 423.617 34.6719 418.607 34.6719C413.597 34.6719 410.751 38.7949 410.342 42.9276C409.708 49.3119 414.016 55.1017 418.607 60.3748C423.208 55.1017 427.516 49.3119 426.882 42.9276ZM418.607 47.5185C417.71 47.5185 416.834 47.2524 416.088 46.7539C415.342 46.2555 414.761 45.5471 414.419 44.7183C414.076 43.8896 413.987 42.9777 414.162 42.0983C414.338 41.2188 414.771 40.4113 415.406 39.7778C416.04 39.1443 416.849 38.7134 417.729 38.5396C418.609 38.3658 419.52 38.457 420.348 38.8015C421.176 39.1461 421.883 39.7285 422.38 40.4751C422.877 41.2218 423.141 42.099 423.139 42.9958C423.137 44.1962 422.658 45.3465 421.808 46.1944C420.959 47.0423 419.807 47.5185 418.607 47.5185Z" fill="#4C38EE"/>
<path d="M603.603 71.2557C603.194 67.123 600.338 63 595.328 63C590.318 63 587.472 67.123 587.062 71.2557C586.429 77.64 590.737 83.4298 595.328 88.7029C599.928 83.4298 604.237 77.64 603.603 71.2557ZM595.328 75.8466C594.431 75.8466 593.554 75.5805 592.809 75.0821C592.063 74.5836 591.482 73.8752 591.139 73.0464C590.797 72.2177 590.708 71.3059 590.883 70.4264C591.059 69.5469 591.491 68.7394 592.126 68.1059C592.761 67.4724 593.57 67.0415 594.449 66.8677C595.329 66.694 596.241 66.7851 597.069 67.1297C597.897 67.4742 598.604 68.0566 599.101 68.8033C599.598 69.5499 599.862 70.4271 599.86 71.324C599.858 72.5243 599.379 73.6747 598.529 74.5225C597.679 75.3704 596.528 75.8466 595.328 75.8466Z" fill="#4C38EE"/>
<path d="M455.556 121.573C455.147 117.44 452.291 113.317 447.281 113.317C442.271 113.317 439.425 117.44 439.015 121.573C438.382 127.957 442.69 133.747 447.281 139.02C451.881 133.718 456.19 127.957 455.556 121.573ZM447.281 126.164C446.384 126.164 445.508 125.898 444.763 125.4C444.017 124.902 443.437 124.194 443.093 123.366C442.75 122.538 442.661 121.626 442.836 120.747C443.01 119.868 443.442 119.06 444.076 118.426C444.71 117.793 445.517 117.361 446.397 117.186C447.276 117.011 448.187 117.101 449.015 117.444C449.843 117.787 450.551 118.368 451.049 119.113C451.547 119.859 451.813 120.735 451.813 121.631C451.813 122.833 451.336 123.986 450.486 124.836C449.636 125.686 448.483 126.164 447.281 126.164Z" fill="#4C38EE"/>
<path d="M483.709 213.692C483.299 209.549 480.443 205.436 475.433 205.436C470.423 205.436 467.577 209.549 467.168 213.692C466.534 220.076 470.843 225.856 475.433 231.139C480.034 225.856 484.342 220.076 483.709 213.692ZM475.482 218.283C474.586 218.281 473.711 218.013 472.967 217.514C472.223 217.015 471.643 216.306 471.302 215.478C470.96 214.65 470.872 213.739 471.048 212.86C471.224 211.982 471.656 211.175 472.29 210.542C472.925 209.909 473.732 209.478 474.611 209.304C475.49 209.13 476.401 209.221 477.229 209.564C478.056 209.907 478.763 210.488 479.261 211.233C479.759 211.978 480.024 212.854 480.024 213.75C480.024 214.346 479.907 214.937 479.678 215.487C479.45 216.038 479.115 216.538 478.693 216.959C478.271 217.38 477.771 217.713 477.22 217.94C476.669 218.168 476.078 218.284 475.482 218.283Z" fill="#C0B8FF"/>
<path d="M319.896 395.875C496.398 395.875 639.482 388.068 639.482 378.438C639.482 368.807 496.398 361 319.896 361C143.394 361 0.310486 368.807 0.310486 378.438C0.310486 388.068 143.394 395.875 319.896 395.875Z" fill="#EBEBEB"/>
<path d="M557.267 324.922H485.87V381.845H557.267V324.922Z" fill="#C0B8FF"/>
<path opacity="0.1" d="M557.267 324.922H485.87V381.845H557.267V324.922Z" fill="black"/>
<path d="M449 381.848H485.87V324.925H449V381.848Z" fill="#C0B8FF"/>
<path opacity="0.32" d="M449 381.848H485.87V324.925H449V381.848Z" fill="black"/>
<path d="M515.508 337.223H517.024H518.162L518.811 336.277L519.719 337.223L520.951 335.273L522.115 337.223H525.46H526.976L527.531 335.926L528.059 337.223H529.048V324.922H515.508V337.223Z" fill="white"/>
<path d="M451.544 377.928C454.252 373.873 456.96 369.812 459.668 365.744L467.671 353.502L475.551 341.25C478.178 337.15 480.768 333.03 483.323 328.891C480.615 332.945 477.907 337.007 475.199 341.074L467.197 353.317L459.316 365.617C456.708 369.692 454.117 373.795 451.544 377.928Z" fill="#C0B8FF"/>
<path d="M451.544 328.842C454.108 332.975 456.699 337.094 459.316 341.201L467.21 353.502L475.212 365.744C477.92 369.818 480.628 373.88 483.336 377.928C480.773 373.795 478.182 369.675 475.564 365.569L467.671 353.268L459.668 341.026C456.978 336.951 454.27 332.89 451.544 328.842Z" fill="#C0B8FF"/>
<path d="M590.316 268H518.919V324.923H590.316V268Z" fill="#C0B8FF"/>
<path opacity="0.1" d="M590.317 268H518.92V324.923H590.317V268Z" fill="black"/>
<path d="M482.062 324.932H518.932V268.009H482.062V324.932Z" fill="#C0B8FF"/>
<path opacity="0.32" d="M482.062 324.932H518.932V268.009H482.062V324.932Z" fill="black"/>
<path d="M548.576 280.301H550.079H551.217L551.866 279.355L552.774 280.301L554.006 278.351L555.17 280.301H558.515H560.045L560.6 279.004L561.114 280.301H562.103V268H548.576V280.301Z" fill="white"/>
<path d="M484.596 321.002C487.304 316.954 490.012 312.893 492.72 308.818L500.722 296.576L508.67 284.285C511.297 280.172 513.892 276.052 516.456 271.926C513.748 275.968 511.04 280.026 508.332 284.1L500.329 296.342L492.422 308.643C489.768 312.75 487.159 316.869 484.596 321.002Z" fill="#C0B8FF"/>
<path d="M484.596 271.926C487.168 276.059 489.759 280.178 492.368 284.285L500.262 296.576L508.264 308.818C510.972 312.893 513.68 316.954 516.388 321.002C513.815 316.869 511.22 312.75 508.602 308.643L500.708 296.342L492.706 284.1C490.043 280.026 487.34 275.968 484.596 271.926Z" fill="#C0B8FF"/>
<path d="M649.001 324.922H577.604V381.845H649.001V324.922Z" fill="#C0B8FF"/>
<path opacity="0.1" d="M649.001 324.922H577.604V381.845H649.001V324.922Z" fill="black"/>
<path d="M540.734 381.848H577.604V324.925H540.734V381.848Z" fill="#C0B8FF"/>
<path opacity="0.32" d="M540.734 381.848H577.604V324.925H540.734V381.848Z" fill="black"/>
<path d="M607.242 337.223H608.758H609.896L610.546 336.277L611.453 337.223L612.685 335.273L613.849 337.223H617.194H618.724L619.265 335.926L619.793 337.223H620.782V324.922H607.242V337.223Z" fill="white"/>
<path d="M543.278 377.928C545.986 373.873 548.694 369.812 551.402 365.744L559.405 353.502L567.285 341.25C569.912 337.15 572.503 333.03 575.057 328.891C572.349 332.945 569.641 337.007 566.933 341.074L558.931 353.317L551.05 365.617C548.442 369.692 545.851 373.795 543.278 377.928Z" fill="#C0B8FF"/>
<path d="M543.278 328.842C545.842 332.975 548.433 337.094 551.05 341.201L558.944 353.502L566.892 365.744C569.6 369.818 572.308 373.88 575.016 377.928C572.453 373.795 569.862 369.675 567.244 365.569L559.351 353.268L551.348 341.026C548.694 336.951 546.004 332.89 543.278 328.842Z" fill="#C0B8FF"/>
<path d="M299.472 169.714C299.604 169.714 299.708 162.163 299.708 152.854C299.708 143.544 299.604 136 299.472 136C299.341 136 299.244 143.544 299.244 152.854C299.244 162.163 299.348 169.714 299.472 169.714Z" fill="#E0E0E0"/>
<path d="M299.472 214.11C299.604 214.11 299.708 206.565 299.708 197.256C299.708 187.947 299.604 180.395 299.472 180.395C299.341 180.395 299.244 187.947 299.244 197.256C299.244 206.565 299.348 214.11 299.472 214.11Z" fill="#E0E0E0"/>
<path d="M299.472 258.509C299.604 258.509 299.708 250.958 299.708 241.648C299.708 232.339 299.604 224.795 299.472 224.795C299.341 224.795 299.244 232.339 299.244 241.648C299.244 250.958 299.348 258.509 299.472 258.509Z" fill="#E0E0E0"/>
<path d="M299.472 302.902C299.604 302.902 299.708 295.357 299.708 286.048C299.708 276.739 299.604 269.194 299.472 269.194C299.341 269.194 299.244 276.739 299.244 286.048C299.244 295.357 299.348 302.902 299.472 302.902Z" fill="#E0E0E0"/>
<path d="M299.472 347.302C299.604 347.302 299.708 339.758 299.708 330.448C299.708 321.139 299.604 313.622 299.472 313.622C299.341 313.622 299.244 321.167 299.244 330.483C299.244 339.799 299.348 347.302 299.472 347.302Z" fill="#E0E0E0"/>
<path d="M266.222 161.619H12.5806C1.76655 161.619 -7 170.385 -7 181.2V342.773C-7 353.587 1.76655 362.353 12.5806 362.353H266.222C277.036 362.353 285.803 353.587 285.803 342.773V181.2C285.803 170.385 277.036 161.619 266.222 161.619Z" fill="#455A64"/>
<path d="M265.018 170.783H13.0998C6.23827 170.783 0.675896 176.346 0.675896 183.207V341.112C0.675896 347.974 6.23827 353.536 13.0998 353.536H265.018C271.88 353.536 277.442 347.974 277.442 341.112V183.207C277.442 176.346 271.88 170.783 265.018 170.783Z" fill="#263238"/>
<path d="M261.878 182.216H16.2439V335.912H261.878V182.216Z" fill="white"/>
<path d="M261.878 268.577C261.144 267.968 16.2439 268.093 16.2439 268.093V279.056L261.878 279.541V268.577Z" fill="#E0E0E0"/>
<path d="M67.9094 182.216L35.1919 227.309H22.0966L57.2227 182.216H67.9094Z" fill="#E0E0E0"/>
<path d="M98.0548 182.216L64.9082 250.606H138.144L261.884 232.188V241.179L139.562 261.5L139.209 258.123H16.2439V249.478H49.695L85.6724 182.216H98.0548Z" fill="#E0E0E0"/>
<path d="M150.599 182.216L150.17 335.912H122.927L138.57 182.216H150.599Z" fill="#E0E0E0"/>
<path d="M135.306 223.74H16.2439V234.233H135.306V223.74Z" fill="#E0E0E0"/>
<path d="M16.2439 225.551H147.702L145.93 335.912H130.011L136.552 231.642H16.2439V225.551Z" fill="#ABA0FF"/>
<path d="M182.335 182.216L190.468 211.168L182.723 212.608L179.539 201.485H147.701L150.172 196.868H178.48L175.296 182.216H182.335Z" fill="#E0E0E0"/>
<path d="M261.883 209.834L150.172 223.739L147.701 216.693L261.883 201.487V209.834Z" fill="#E0E0E0"/>
<path d="M229.705 213.841L261.883 224.327V229.587L218.334 215.253L229.705 213.841Z" fill="#E0E0E0"/>
<path d="M199.95 217.336L252.089 233.858L240.911 236.585L188.474 218.721L199.95 217.336Z" fill="#E0E0E0"/>
<path d="M199.972 251.588L220.654 335.912H205.039L189.217 251.588H199.972Z" fill="#E0E0E0"/>
<path d="M261.883 313.772L147.701 293.292V310.651L261.883 330.169V313.772Z" fill="#E0E0E0"/>
<path d="M92.8218 278.377L75.1791 335.374H59.9867L79.5881 279.539L92.8218 278.377Z" fill="#E0E0E0"/>
<path d="M131.803 345.653H133.623V349.148C132.613 349.868 131.403 350.253 130.163 350.249C127.456 350.249 125.456 348.387 125.456 345.784C125.456 343.182 127.456 341.327 130.204 341.327C130.878 341.294 131.55 341.41 132.174 341.667C132.797 341.925 133.356 342.316 133.81 342.815L132.53 343.999C132.25 343.686 131.906 343.436 131.522 343.268C131.137 343.1 130.721 343.016 130.301 343.023C129.567 343.023 128.863 343.314 128.343 343.833C127.824 344.353 127.533 345.057 127.533 345.791C127.533 346.525 127.824 347.23 128.343 347.749C128.863 348.268 129.567 348.56 130.301 348.56C130.843 348.572 131.379 348.446 131.858 348.193L131.803 345.653Z" fill="white"/>
<path d="M142.979 344.601C142.979 346.525 141.539 347.722 139.235 347.722H137.442V350.096H135.449V341.472H139.179C141.512 341.472 142.979 342.697 142.979 344.601ZM140.965 344.601C140.965 343.652 140.342 343.099 139.124 343.099H137.442V346.096H139.069C140.314 346.096 140.937 345.542 140.937 344.601H140.965Z" fill="white"/>
<path d="M143.818 349.252L144.51 347.743C145.348 348.323 146.342 348.637 147.362 348.643C148.545 348.643 149.023 348.248 149.023 347.722C149.023 346.109 144.005 347.217 144.005 344.012C144.005 342.545 145.188 341.327 147.645 341.327C148.693 341.304 149.726 341.567 150.635 342.088L150.019 343.604C149.297 343.169 148.474 342.931 147.632 342.912C146.448 342.912 145.991 343.355 145.991 343.902C145.991 345.487 151.009 344.393 151.009 347.556C151.009 349.003 149.812 350.235 147.348 350.235C146.099 350.271 144.868 349.928 143.818 349.252Z" fill="white"/>
<path d="M139.374 255.267L163.654 292.352L139.519 288.705L115.945 292.352L139.374 255.267Z" fill="#455A64"/>
<g opacity="0.3">
<path opacity="0.3" d="M115.944 292.352L139.401 285.714L163.654 292.352L139.401 288.725L115.944 292.352Z" fill="black"/>
</g>
<path d="M139.376 255.267C139.479 255.267 139.563 262.085 139.569 270.494C139.576 278.904 139.5 285.721 139.403 285.721C139.306 285.721 139.216 278.911 139.21 270.494C139.203 262.078 139.279 255.267 139.376 255.267Z" fill="#263238"/>
<path d="M157.437 210.742H126.512C123.756 210.742 121.111 209.649 119.159 207.703C117.206 205.757 116.105 203.116 116.096 200.359C116.096 198.993 116.365 197.64 116.889 196.378C117.413 195.117 118.181 193.97 119.149 193.006C120.117 192.041 121.265 191.277 122.529 190.758C123.792 190.238 125.146 189.973 126.512 189.977H157.437C158.804 189.973 160.157 190.238 161.421 190.758C162.685 191.277 163.833 192.041 164.801 193.006C165.769 193.97 166.537 195.117 167.06 196.378C167.584 197.64 167.854 198.993 167.854 200.359C167.845 203.116 166.743 205.757 164.791 207.703C162.838 209.649 160.194 210.742 157.437 210.742Z" fill="#455A64"/>
<path d="M130.155 201.791V202.885H125.677V201.999L127.954 199.853C128.473 199.355 128.57 199.05 128.57 198.76C128.57 198.296 128.252 198.067 127.622 198.067C127.386 198.058 127.152 198.106 126.939 198.209C126.727 198.311 126.543 198.465 126.404 198.656L125.407 198.012C125.68 197.652 126.036 197.365 126.445 197.174C126.854 196.984 127.303 196.896 127.754 196.918C129.069 196.918 129.941 197.611 129.941 198.663C129.933 199.028 129.84 199.386 129.669 199.71C129.498 200.033 129.255 200.312 128.958 200.525L127.574 201.805L130.155 201.791Z" fill="white"/>
<path d="M132.399 202.144C132.387 202.439 132.309 202.727 132.17 202.988L131.693 204.199H130.855L131.215 202.884C131.079 202.827 130.962 202.731 130.881 202.608C130.799 202.485 130.757 202.34 130.758 202.192C130.777 201.989 130.871 201.801 131.021 201.664C131.172 201.526 131.368 201.45 131.572 201.45C131.775 201.45 131.971 201.526 132.122 201.664C132.272 201.801 132.366 201.989 132.385 202.192L132.399 202.144Z" fill="white"/>
<path d="M137.444 201.051C137.444 202.096 136.676 203.003 134.994 203.003C134.199 203.018 133.416 202.799 132.745 202.373L133.284 201.328C133.771 201.68 134.358 201.867 134.959 201.861C135.652 201.861 136.067 201.57 136.067 201.092C136.067 200.615 135.762 200.324 134.683 200.324H133.174L133.478 197.009H137.077V198.102H134.676L134.586 199.224H135.063C136.752 199.224 137.444 200.006 137.444 201.051Z" fill="white"/>
<path d="M139.477 201.681L139.082 202.047V202.566H138.736V199.909H139.082V201.611L140.12 200.67H140.536L139.733 201.452L140.612 202.566H140.21L139.477 201.681Z" fill="white"/>
<path d="M144.072 201.501V202.595H143.726V201.501C143.726 201.128 143.553 200.941 143.241 200.941C143.16 200.937 143.079 200.951 143.003 200.982C142.928 201.013 142.861 201.061 142.806 201.121C142.751 201.181 142.71 201.252 142.686 201.33C142.662 201.408 142.655 201.49 142.667 201.571V202.554H142.328V201.501C142.328 201.128 142.148 200.941 141.836 200.941C141.755 200.937 141.674 200.951 141.598 200.982C141.523 201.013 141.456 201.061 141.401 201.121C141.346 201.181 141.305 201.252 141.281 201.33C141.257 201.408 141.25 201.49 141.262 201.571V202.554H140.902V200.671H141.227V200.948C141.304 200.849 141.404 200.77 141.519 200.718C141.634 200.666 141.759 200.643 141.885 200.65C142.016 200.64 142.148 200.668 142.265 200.73C142.382 200.793 142.478 200.888 142.542 201.003C142.626 200.889 142.737 200.796 142.865 200.735C142.993 200.673 143.134 200.644 143.276 200.65C143.39 200.629 143.508 200.637 143.618 200.674C143.728 200.71 143.827 200.773 143.907 200.858C143.986 200.943 144.042 201.046 144.071 201.159C144.1 201.271 144.1 201.389 144.072 201.501Z" fill="white"/>
<path d="M153.522 194.378L147.701 198.496L153.522 201.999V194.378Z" fill="white"/>
<path d="M160.518 204.271H157.75V201.149C157.75 200.94 157.709 200.733 157.629 200.54C157.549 200.347 157.431 200.171 157.284 200.023C157.136 199.876 156.96 199.758 156.767 199.678C156.574 199.598 156.367 199.557 156.158 199.557H151.922V196.789H156.13C157.286 196.79 158.394 197.25 159.212 198.068C160.029 198.885 160.489 199.993 160.491 201.149L160.518 204.271Z" fill="white"/>
<path d="M32.8663 252.703C32.8663 249.729 30.4554 247.318 27.4815 247.318C24.5075 247.318 22.0966 249.729 22.0966 252.703V283.455C22.0966 286.429 24.5075 288.84 27.4815 288.84C30.4554 288.84 32.8663 286.429 32.8663 283.455V252.703Z" fill="#ABA0FF"/>
<g opacity="0.3">
<path opacity="0.3" d="M32.1817 253.045C32.1817 253.975 31.906 254.883 31.3896 255.656C30.8732 256.429 30.1393 257.031 29.2805 257.387C28.4218 257.743 27.4768 257.836 26.5652 257.654C25.6535 257.473 24.8161 257.025 24.1589 256.368C23.5016 255.711 23.054 254.874 22.8727 253.962C22.6914 253.05 22.7844 252.105 23.1401 251.247C23.4958 250.388 24.0982 249.654 24.8711 249.137C25.6439 248.621 26.5525 248.345 27.482 248.345C28.0992 248.345 28.7103 248.467 29.2805 248.703C29.8507 248.939 30.3688 249.285 30.8052 249.722C31.2416 250.158 31.5878 250.676 31.8239 251.247C32.0601 251.817 32.1817 252.428 32.1817 253.045Z" fill="white"/>
</g>
<path d="M25.1923 255.424L27.4833 250.663L29.7742 255.404L27.4486 254.026L25.1923 255.424Z" fill="white"/>
<path d="M27.9304 264.677H26.8645V268.587H27.9304V264.677Z" fill="white"/>
<path d="M25.5308 266.103V267.169H29.4414V266.103H25.5308Z" fill="white"/>
<path d="M25.5308 281.801V282.867H29.4414V281.801H25.5308Z" fill="white"/>
<path d="M160.79 325.2H118.015C116.428 325.2 114.855 324.887 113.388 324.28C111.921 323.672 110.588 322.781 109.465 321.659C108.343 320.536 107.452 319.203 106.844 317.736C106.237 316.269 105.924 314.696 105.924 313.108C105.924 309.901 107.198 306.826 109.465 304.558C111.733 302.291 114.809 301.017 118.015 301.017H160.79C163.997 301.017 167.072 302.291 169.34 304.558C171.607 306.826 172.881 309.901 172.881 313.108C172.881 314.696 172.569 316.269 171.961 317.736C171.353 319.203 170.463 320.536 169.34 321.659C168.217 322.781 166.884 323.672 165.417 324.28C163.95 324.887 162.378 325.2 160.79 325.2Z" fill="#EBEBEB"/>
<path d="M160.791 325.546H118.016C116.323 325.644 114.627 325.395 113.033 324.814C111.438 324.233 109.98 323.333 108.746 322.168C107.512 321.004 106.529 319.599 105.857 318.042C105.185 316.484 104.839 314.805 104.839 313.108C104.839 311.412 105.185 309.733 105.857 308.175C106.529 306.617 107.512 305.213 108.746 304.048C109.98 302.883 111.438 301.983 113.033 301.402C114.627 300.822 116.323 300.573 118.016 300.67H160.791C163.965 300.854 166.949 302.244 169.132 304.557C171.314 306.869 172.53 309.928 172.53 313.108C172.53 316.288 171.314 319.347 169.132 321.66C166.949 323.972 163.965 325.362 160.791 325.546ZM118.016 301.363C116.415 301.267 114.811 301.5 113.304 302.048C111.796 302.595 110.416 303.445 109.248 304.545C108.081 305.645 107.151 306.972 106.515 308.444C105.879 309.917 105.551 311.504 105.551 313.108C105.551 314.712 105.879 316.299 106.515 317.772C107.151 319.245 108.081 320.572 109.248 321.672C110.416 322.772 111.796 323.621 113.304 324.169C114.811 324.716 116.415 324.949 118.016 324.854H160.791C163.785 324.676 166.598 323.361 168.655 321.177C170.713 318.994 171.858 316.108 171.858 313.108C171.858 310.109 170.713 307.222 168.655 305.039C166.598 302.856 163.785 301.541 160.791 301.363H118.016Z" fill="#263238"/>
<path d="M119.324 320.521C123.418 320.521 126.737 317.202 126.737 313.108C126.737 309.014 123.418 305.695 119.324 305.695C115.23 305.695 111.911 309.014 111.911 313.108C111.911 317.202 115.23 320.521 119.324 320.521Z" fill="white"/>
<path d="M119.324 320.866C117.788 320.87 116.286 320.419 115.007 319.568C113.729 318.718 112.731 317.508 112.141 316.091C111.55 314.673 111.394 313.113 111.691 311.606C111.988 310.1 112.725 308.715 113.809 307.628C114.894 306.541 116.276 305.8 117.782 305.499C119.287 305.198 120.848 305.35 122.267 305.937C123.686 306.523 124.899 307.518 125.753 308.794C126.606 310.071 127.062 311.572 127.062 313.107C127.06 315.161 126.245 317.13 124.795 318.584C123.344 320.038 121.377 320.859 119.324 320.866ZM119.324 306.04C117.925 306.036 116.557 306.447 115.392 307.221C114.227 307.995 113.318 309.097 112.78 310.388C112.242 311.679 112.099 313.101 112.369 314.473C112.64 315.845 113.311 317.106 114.299 318.097C115.286 319.087 116.545 319.762 117.917 320.036C119.288 320.311 120.71 320.172 122.002 319.638C123.295 319.104 124.4 318.198 125.177 317.035C125.955 315.873 126.37 314.506 126.37 313.107C126.375 311.232 125.636 309.432 124.315 308.102C122.994 306.771 121.199 306.02 119.324 306.013V306.04Z" fill="#ABA0FF"/>
<path d="M116.249 310.94V314.941H115.328V311.687H114.526V310.94H116.249Z" fill="#263238"/>
<path d="M116.948 312.935C116.948 311.613 117.682 310.858 118.665 310.858C119.648 310.858 120.374 311.606 120.374 312.935C120.374 314.264 119.682 315.011 118.665 315.011C117.647 315.011 116.948 314.264 116.948 312.935ZM119.447 312.935C119.447 312.028 119.128 311.647 118.665 311.647C118.201 311.647 117.889 312.028 117.889 312.935C117.889 313.842 118.208 314.222 118.665 314.222C119.121 314.222 119.447 313.848 119.447 312.935Z" fill="#263238"/>
<path d="M120.831 312.935C120.831 311.613 121.558 310.858 122.541 310.858C123.523 310.858 124.257 311.606 124.257 312.935C124.257 314.264 123.565 315.011 122.541 315.011C121.516 315.011 120.831 314.264 120.831 312.935ZM123.33 312.935C123.33 312.028 123.004 311.647 122.541 311.647C122.077 311.647 121.765 312.028 121.765 312.935C121.765 313.842 122.084 314.222 122.541 314.222C122.997 314.222 123.33 313.848 123.33 312.935Z" fill="#263238"/>
<path d="M138.874 312.354C138.874 315.497 137.102 317.199 134.527 317.199C133.729 317.231 132.937 317.045 132.236 316.659L132.735 315.635C133.273 315.949 133.891 316.101 134.513 316.071C136.375 316.071 137.559 314.901 137.559 312.61V312.243C137.253 312.65 136.85 312.974 136.387 313.186C135.924 313.397 135.416 313.49 134.908 313.455C133.081 313.455 131.766 312.361 131.766 310.686C131.766 309.011 133.185 307.779 135.012 307.779C137.483 307.765 138.874 309.42 138.874 312.354ZM137.261 310.603C137.261 309.662 136.5 308.831 135.06 308.831C134.808 308.802 134.552 308.826 134.309 308.903C134.066 308.979 133.842 309.105 133.652 309.274C133.461 309.442 133.308 309.649 133.203 309.88C133.097 310.112 133.041 310.363 133.039 310.617C133.039 311.697 133.842 312.396 135.116 312.396C136.389 312.396 137.261 311.621 137.261 310.603Z" fill="#263238"/>
<path d="M147.272 314.272C147.272 316.051 145.839 317.179 144.012 317.179C141.541 317.179 140.143 315.525 140.143 312.59C140.143 309.448 141.922 307.745 144.497 307.745C145.295 307.717 146.086 307.904 146.788 308.285L146.282 309.309C145.75 308.998 145.14 308.847 144.524 308.873C142.656 308.873 141.458 310.043 141.458 312.334C141.452 312.442 141.452 312.551 141.458 312.659C141.765 312.256 142.167 311.934 142.628 311.724C143.09 311.514 143.596 311.421 144.102 311.455C145.943 311.49 147.272 312.576 147.272 314.272ZM145.999 314.327C145.999 313.248 145.182 312.555 143.922 312.555C142.662 312.555 141.804 313.331 141.804 314.341C141.804 315.352 142.566 316.113 143.984 316.113C145.154 316.113 145.999 315.421 145.999 314.32V314.327Z" fill="#263238"/>
<path d="M151.224 315.01L150.719 315.48V316.172H150.282V312.767H150.719V314.954L152.047 313.743H152.573L151.556 314.747L152.677 316.172H152.137L151.224 315.01Z" fill="#263238"/>
<path d="M157.105 314.775V316.159H156.662V314.81C156.662 314.332 156.434 314.118 156.04 314.118C155.934 314.11 155.829 314.126 155.731 314.165C155.633 314.204 155.545 314.265 155.475 314.343C155.404 314.421 155.352 314.515 155.323 314.616C155.293 314.717 155.288 314.824 155.306 314.927V316.18H154.87V314.831C154.87 314.353 154.641 314.138 154.24 314.138C153.839 314.138 153.548 314.422 153.548 314.948V316.201H153.105V313.772H153.527V314.132C153.624 314.003 153.751 313.9 153.897 313.832C154.043 313.765 154.204 313.734 154.365 313.744C154.533 313.733 154.702 313.769 154.851 313.848C155 313.928 155.124 314.048 155.209 314.194C155.317 314.049 155.458 313.932 155.621 313.854C155.783 313.775 155.963 313.738 156.143 313.744C156.277 313.739 156.41 313.763 156.534 313.814C156.657 313.866 156.768 313.943 156.859 314.04C156.951 314.138 157.02 314.254 157.062 314.381C157.105 314.508 157.119 314.642 157.105 314.775Z" fill="#263238"/>
<path d="M158.9 312.31H159.302L157.786 316.629H157.391L158.9 312.31Z" fill="#263238"/>
<path d="M161.842 314.776V316.16H161.399V314.81C161.399 314.333 161.163 314.118 160.748 314.118C160.64 314.103 160.529 314.114 160.426 314.15C160.323 314.186 160.229 314.246 160.154 314.325C160.078 314.404 160.022 314.5 159.991 314.605C159.959 314.71 159.953 314.82 159.973 314.928V316.181H159.537V312.775H159.973V314.09C160.08 313.969 160.212 313.874 160.361 313.81C160.509 313.747 160.67 313.717 160.831 313.724C160.97 313.712 161.11 313.732 161.241 313.782C161.371 313.831 161.489 313.909 161.586 314.01C161.683 314.11 161.756 314.231 161.8 314.364C161.844 314.496 161.858 314.637 161.842 314.776Z" fill="#263238"/>
<path d="M173.1 163.247C173.1 163.344 145.179 163.427 110.745 163.427C76.311 163.427 48.3831 163.344 48.3831 163.247C48.3831 163.15 76.2971 163.067 110.745 163.067C145.193 163.067 173.1 163.15 173.1 163.247Z" fill="white"/>
<path d="M26.1965 164.354C26.1965 164.451 22.6804 164.569 18.3407 164.617C14.001 164.666 10.4849 164.617 10.4849 164.52C10.4849 164.424 14.001 164.306 18.3338 164.257C22.6666 164.209 26.1896 164.251 26.1965 164.354Z" fill="white"/>
<g opacity="0.6">
<path opacity="0.6" d="M174.126 327.511C177.863 327.511 181.483 327.304 185.2 327.054C185.606 327.073 186.006 326.954 186.335 326.715C186.488 326.522 186.602 326.3 186.668 326.062C186.735 325.825 186.753 325.576 186.723 325.331C186.723 323.331 186.64 321.054 185.124 319.752C184.136 319.04 182.957 318.642 181.739 318.61C178.709 318.293 175.647 318.601 172.741 319.517L174.126 327.511Z" fill="#FAFAFA"/>
</g>
<path d="M245.074 242.832H241.587V250.192H245.074V242.832Z" fill="#E0E0E0"/>
<path d="M254.062 253.08C254.062 253.153 249.448 253.217 243.756 253.217C238.064 253.217 233.45 253.153 233.45 253.08C233.45 253.007 238.064 252.939 243.756 252.939C249.448 252.939 254.062 253.002 254.062 253.08Z" fill="#E0E0E0"/>
<path d="M245.074 257.882H241.587V265.237H245.074V257.882Z" fill="#E0E0E0"/>
<path d="M254.062 268.126C254.062 268.204 249.448 268.267 243.756 268.267C238.064 268.267 233.45 268.204 233.45 268.126C233.45 268.048 238.064 267.985 243.756 267.985C249.448 267.985 254.062 268.048 254.062 268.126Z" fill="#E0E0E0"/>
<path d="M245.074 272.932H241.587V280.287H245.074V272.932Z" fill="#E0E0E0"/>
<path d="M254.062 283.172C254.062 283.25 249.448 283.313 243.756 283.313C238.064 283.313 233.45 283.25 233.45 283.172C233.45 283.094 238.064 283.03 243.756 283.03C249.448 283.03 254.062 283.094 254.062 283.172Z" fill="#E0E0E0"/>
<path d="M245.074 287.55H241.587V294.905H245.074V287.55Z" fill="#E0E0E0"/>
<path d="M254.062 297.794C254.062 297.872 249.448 297.935 243.756 297.935C238.064 297.935 233.45 297.872 233.45 297.794C233.45 297.716 238.064 297.652 243.756 297.652C249.448 297.652 254.062 297.716 254.062 297.794Z" fill="#E0E0E0"/>
<path d="M245.074 302.228H241.587V309.584H245.074V302.228Z" fill="#E0E0E0"/>
<path d="M245.074 317.091H241.587V324.446H245.074V317.091Z" fill="#E0E0E0"/>
<path d="M254.062 312.468C254.062 312.546 249.448 312.609 243.756 312.609C238.064 312.609 233.45 312.546 233.45 312.468C233.45 312.39 238.064 312.331 243.756 312.331C249.448 312.331 254.062 312.394 254.062 312.468Z" fill="#E0E0E0"/>
<path d="M233.27 253.3C233.27 253.378 228.655 253.442 222.963 253.442C217.271 253.442 212.657 253.378 212.657 253.3C212.657 253.222 217.271 253.159 222.963 253.159C228.655 253.159 233.27 253.222 233.27 253.3Z" fill="#E0E0E0"/>
<path d="M224.281 257.882H220.794V265.237H224.281V257.882Z" fill="#FAFAFA"/>
<path d="M233.27 268.13C233.27 268.208 228.655 268.272 222.963 268.272C217.271 268.272 212.657 268.208 212.657 268.13C212.657 268.052 217.271 267.989 222.963 267.989C228.655 267.989 233.27 268.052 233.27 268.13Z" fill="#E0E0E0"/>
<path d="M224.281 272.716H220.794V280.071H224.281V272.716Z" fill="#FAFAFA"/>
<path d="M233.27 282.964C233.27 283.037 228.655 283.1 222.963 283.1C217.271 283.1 212.657 283.037 212.657 282.964C212.657 282.891 217.271 282.822 222.963 282.822C228.655 282.822 233.27 282.886 233.27 282.964Z" fill="#E0E0E0"/>
<path d="M224.281 287.55H220.794V294.905H224.281V287.55Z" fill="#FAFAFA"/>
<path d="M233.27 297.794C233.27 297.872 228.655 297.935 222.963 297.935C217.271 297.935 212.657 297.872 212.657 297.794C212.657 297.716 217.271 297.652 222.963 297.652C228.655 297.652 233.27 297.716 233.27 297.794Z" fill="#E0E0E0"/>
<path d="M224.281 302.375H220.794V309.73H224.281V302.375Z" fill="#FAFAFA"/>
<path d="M233.27 312.615C233.27 312.693 228.655 312.757 222.963 312.757C217.271 312.757 212.657 312.693 212.657 312.615C212.657 312.537 217.271 312.474 222.963 312.474C228.655 312.474 233.27 312.547 233.27 312.615Z" fill="#E0E0E0"/>
<path d="M224.281 317.209H220.794V324.564H224.281V317.209Z" fill="#FAFAFA"/>
<path d="M386.834 215.665C386.834 215.777 380.186 215.869 371.982 215.869C363.778 215.869 357.125 215.777 357.125 215.665C357.125 215.552 363.773 215.465 371.982 215.465C380.19 215.465 386.834 215.552 386.834 215.665Z" fill="#E0E0E0"/>
<path d="M416.804 215.665C416.804 215.777 410.151 215.869 401.947 215.869C393.743 215.869 387.09 215.777 387.09 215.665C387.09 215.552 393.743 215.465 401.947 215.465C410.151 215.465 416.804 215.552 416.804 215.665Z" fill="#E0E0E0"/>
<path d="M403.853 221.958H398.824V232.561H403.853V221.958Z" fill="#E0E0E0"/>
<path d="M416.804 236.727C416.804 236.839 410.151 236.927 401.947 236.927C393.743 236.927 387.09 236.839 387.09 236.727C387.09 236.615 393.743 236.522 401.947 236.522C410.151 236.522 416.804 236.615 416.804 236.727Z" fill="#E0E0E0"/>
<path d="M403.853 243.648H398.824V254.251H403.853V243.648Z" fill="#E0E0E0"/>
<path d="M416.804 258.417C416.804 258.529 410.151 258.622 401.947 258.622C393.743 258.622 387.09 258.529 387.09 258.417C387.09 258.305 393.743 258.212 401.947 258.212C410.151 258.212 416.804 258.305 416.804 258.417Z" fill="#E0E0E0"/>
<path d="M403.853 265.342H398.824V275.945H403.853V265.342Z" fill="#E0E0E0"/>
<path d="M416.804 280.106C416.804 280.218 410.151 280.311 401.947 280.311C393.743 280.311 387.09 280.218 387.09 280.106C387.09 279.994 393.743 279.906 401.947 279.906C410.151 279.906 416.804 279.994 416.804 280.106Z" fill="#E0E0E0"/>
<path d="M403.853 286.412H398.824V297.015H403.853V286.412Z" fill="#E0E0E0"/>
<path d="M416.804 301.181C416.804 301.288 410.151 301.381 401.947 301.381C393.743 301.381 387.09 301.288 387.09 301.181C387.09 301.074 393.743 300.976 401.947 300.976C410.151 300.976 416.804 301.069 416.804 301.181Z" fill="#E0E0E0"/>
<path d="M403.853 307.567H398.824V318.171H403.853V307.567Z" fill="#E0E0E0"/>
<path d="M403.853 329.004H398.824V339.608H403.853V329.004Z" fill="#E0E0E0"/>
<path d="M416.804 322.336C416.804 322.448 410.151 322.541 401.947 322.541C393.743 322.541 387.09 322.448 387.09 322.336C387.09 322.224 393.743 322.136 401.947 322.136C410.151 322.136 416.804 322.224 416.804 322.336Z" fill="#E0E0E0"/>
<path d="M373.884 222.28H368.855V232.884H373.884V222.28Z" fill="#FAFAFA"/>
<path d="M386.834 237.049C386.834 237.157 380.186 237.249 371.982 237.249C363.778 237.249 357.125 237.157 357.125 237.049C357.125 236.942 363.773 236.845 371.982 236.845C380.19 236.845 386.834 236.937 386.834 237.049Z" fill="#E0E0E0"/>
<path d="M373.884 243.656H368.855V254.259H373.884V243.656Z" fill="#FAFAFA"/>
<path d="M386.834 258.425C386.834 258.533 380.186 258.625 371.982 258.625C363.778 258.625 357.125 258.533 357.125 258.425C357.125 258.318 363.773 258.22 371.982 258.22C380.19 258.22 386.834 258.313 386.834 258.425Z" fill="#E0E0E0"/>
<path d="M373.884 265.036H368.855V275.639H373.884V265.036Z" fill="#FAFAFA"/>
<path d="M386.834 279.805C386.834 279.913 380.186 280.005 371.982 280.005C363.778 280.005 357.125 279.913 357.125 279.805C357.125 279.698 363.773 279.6 371.982 279.6C380.19 279.6 386.834 279.693 386.834 279.805Z" fill="#E0E0E0"/>
<path d="M373.884 286.412H368.855V297.015H373.884V286.412Z" fill="#FAFAFA"/>
<path d="M386.834 301.181C386.834 301.288 380.186 301.381 371.982 301.381C363.778 301.381 357.125 301.288 357.125 301.181C357.125 301.074 363.773 300.976 371.982 300.976C380.19 300.976 386.834 301.069 386.834 301.181Z" fill="#E0E0E0"/>
<path d="M373.884 307.792H368.855V318.395H373.884V307.792Z" fill="#FAFAFA"/>
<path d="M386.834 322.561C386.834 322.673 380.186 322.761 371.982 322.761C363.778 322.761 357.125 322.673 357.125 322.561C357.125 322.449 363.773 322.356 371.982 322.356C380.19 322.356 386.834 322.449 386.834 322.561Z" fill="#E0E0E0"/>
<path d="M373.884 329.167H368.855V339.771H373.884V329.167Z" fill="#FAFAFA"/>
<path d="M420.222 268.16H408.76V278.261H420.222V268.16Z" fill="#F5F5F5"/>
<path d="M420.219 268.16H417.488V278.261H420.219V268.16Z" fill="#EBEBEB"/>
<path d="M402.344 278.261V277.671H438.467V278.261" fill="#E0E0E0"/>
<path d="M414.206 282.667H411.46V288.462H414.206V282.667Z" fill="#FAFAFA"/>
<path d="M421.281 290.741C421.281 290.8 417.647 290.848 413.164 290.848C408.682 290.848 405.048 290.8 405.048 290.741C405.048 290.682 408.682 290.629 413.164 290.629C417.647 290.629 421.281 290.668 421.281 290.741Z" fill="#E0E0E0"/>
<path d="M430.581 282.667H427.835V288.462H430.581V282.667Z" fill="#E0E0E0"/>
<path d="M437.66 290.741C437.66 290.8 434.026 290.848 429.544 290.848C425.062 290.848 421.428 290.8 421.428 290.741C421.428 290.682 425.062 290.629 429.544 290.629C434.026 290.629 437.66 290.668 437.66 290.741Z" fill="#E0E0E0"/>
<path d="M430.581 294.173H427.835V299.968H430.581V294.173Z" fill="#E0E0E0"/>
<path d="M437.66 302.239C437.66 302.302 434.026 302.351 429.544 302.351C425.062 302.351 421.428 302.302 421.428 302.239C421.428 302.175 425.062 302.126 429.544 302.126C434.026 302.126 437.66 302.18 437.66 302.239Z" fill="#E0E0E0"/>
<path d="M430.581 306.026H427.835V311.82H430.581V306.026Z" fill="#E0E0E0"/>
<path d="M437.66 314.079C437.66 314.137 434.026 314.191 429.544 314.191C425.062 314.191 421.428 314.137 421.428 314.079C421.428 314.02 425.062 313.966 429.544 313.966C434.026 313.966 437.66 314.03 437.66 314.079Z" fill="#E0E0E0"/>
<path d="M430.581 317.874H427.835V323.668H430.581V317.874Z" fill="#E0E0E0"/>
<path d="M437.66 325.943C437.66 326.002 434.026 326.051 429.544 326.051C425.062 326.051 421.428 326.002 421.428 325.943C421.428 325.885 425.062 325.831 429.544 325.831C434.026 325.831 437.66 325.88 437.66 325.943Z" fill="#E0E0E0"/>
<path d="M430.581 329.388H427.835V335.182H430.581V329.388Z" fill="#E0E0E0"/>
<path d="M437.66 337.457C437.66 337.521 434.026 337.569 429.544 337.569C425.062 337.569 421.428 337.521 421.428 337.457C421.428 337.394 425.062 337.345 429.544 337.345C434.026 337.345 437.66 337.394 437.66 337.457Z" fill="#E0E0E0"/>
<path d="M430.581 340.946H427.835V346.741H430.581V340.946Z" fill="#E0E0E0"/>
<path d="M430.581 352.656H427.835V358.45H430.581V352.656Z" fill="#E0E0E0"/>
<path d="M437.66 349.016C437.66 349.074 434.026 349.123 429.544 349.123C425.062 349.123 421.428 349.074 421.428 349.016C421.428 348.957 425.062 348.904 429.544 348.904C434.026 348.904 437.66 348.952 437.66 349.016Z" fill="#E0E0E0"/>
<path d="M414.206 294.349H411.46V300.143H414.206V294.349Z" fill="#FAFAFA"/>
<path d="M421.281 302.414C421.281 302.477 417.647 302.526 413.164 302.526C408.682 302.526 405.048 302.477 405.048 302.414C405.048 302.351 408.682 302.302 413.164 302.302C417.647 302.302 421.281 302.37 421.281 302.414Z" fill="#E0E0E0"/>
<path d="M414.206 306.03H411.46V311.824H414.206V306.03Z" fill="#FAFAFA"/>
<path d="M421.281 314.079C421.281 314.137 417.647 314.186 413.164 314.186C408.682 314.186 405.048 314.137 405.048 314.079C405.048 314.02 408.682 313.966 413.164 313.966C417.647 313.966 421.281 314.035 421.281 314.079Z" fill="#E0E0E0"/>
<path d="M414.206 317.707H411.46V323.501H414.206V317.707Z" fill="#FAFAFA"/>
<path d="M421.281 325.783C421.281 325.847 417.647 325.896 413.164 325.896C408.682 325.896 405.048 325.847 405.048 325.783C405.048 325.72 408.682 325.676 413.164 325.676C417.647 325.676 421.281 325.715 421.281 325.783Z" fill="#E0E0E0"/>
<path d="M414.206 329.388H411.46V335.182H414.206V329.388Z" fill="#FAFAFA"/>
<path d="M421.281 337.457C421.281 337.521 417.647 337.569 413.164 337.569C408.682 337.569 405.048 337.521 405.048 337.457C405.048 337.394 408.682 337.345 413.164 337.345C417.647 337.345 421.281 337.394 421.281 337.457Z" fill="#E0E0E0"/>
<path d="M414.206 341.065H411.46V346.859H414.206V341.065Z" fill="#FAFAFA"/>
<path d="M421.281 349.138C421.281 349.197 417.647 349.245 413.164 349.245C408.682 349.245 405.048 349.197 405.048 349.138C405.048 349.08 408.682 349.026 413.164 349.026C417.647 349.026 421.281 349.075 421.281 349.138Z" fill="#E0E0E0"/>
<path d="M414.206 352.75H411.46V358.544H414.206V352.75Z" fill="#FAFAFA"/>
<path d="M250.226 321.059H247.085V328.692H250.226V321.059Z" fill="#F5F5F5"/>
<path d="M250.226 350.943H247.085V358.576H250.226V350.943Z" fill="#F5F5F5"/>
<path d="M258.314 331.691C258.314 331.759 254.159 331.808 249.047 331.808C243.936 331.808 239.78 331.759 239.78 331.691C239.78 331.623 243.936 331.574 249.047 331.574C254.159 331.574 258.314 331.637 258.314 331.691Z" fill="#F5F5F5"/>
<path d="M250.226 336.113H247.085V343.747H250.226V336.113Z" fill="#F5F5F5"/>
<path d="M258.314 346.754C258.314 346.817 254.159 346.871 249.047 346.871C243.936 346.871 239.78 346.817 239.78 346.754C239.78 346.69 243.936 346.632 249.047 346.632C254.159 346.632 258.314 346.676 258.314 346.754Z" fill="#F5F5F5"/>
<path d="M264.941 321.059H261.8V328.692H264.941V321.059Z" fill="#E0E0E0"/>
<path d="M271.757 321.059H268.615V328.692H271.757V321.059Z" fill="#E0E0E0"/>
<path d="M264.941 335.546H261.8V343.18H264.941V335.546Z" fill="#E0E0E0"/>
<path d="M271.757 335.546H268.615V343.18H271.757V335.546Z" fill="#E0E0E0"/>
<path d="M264.941 350.033H261.8V357.667H264.941V350.033Z" fill="#E0E0E0"/>
<path d="M271.757 350.033H268.615V357.667H271.757V350.033Z" fill="#E0E0E0"/>
<path d="M277.334 313.216H237.129V314.879H277.334V313.216Z" fill="#E0E0E0"/>
<path d="M274.947 315.051C274.947 315.114 267.143 315.168 257.5 315.168C247.857 315.168 240.053 315.114 240.053 315.051C240.053 314.988 247.857 314.929 257.5 314.929C267.143 314.929 274.947 314.963 274.947 315.051Z" fill="#EBEBEB"/>
<path d="M209.921 274.629H190.046V292.144H209.921V274.629Z" fill="#EBEBEB"/>
<path d="M209.921 274.629H205.185V292.144H209.921V274.629Z" fill="#E0E0E0"/>
<path d="M241.559 291.118H178.931V292.138H241.559V291.118Z" fill="#E0E0E0"/>
<path d="M199.493 299.781H194.728V309.829H199.493V299.781Z" fill="white"/>
<path d="M211.77 313.772C211.77 313.879 205.468 313.962 197.698 313.962C189.928 313.962 183.622 313.879 183.622 313.772C183.622 313.664 189.924 313.591 197.698 313.591C205.473 313.591 211.77 313.664 211.77 313.772Z" fill="#E0E0E0"/>
<path d="M227.888 299.781H223.123V309.829H227.888V299.781Z" fill="#F5F5F5"/>
<path d="M240.156 313.769C240.156 313.877 233.854 313.959 226.084 313.959C218.315 313.959 212.013 313.877 212.013 313.769C212.013 313.662 218.31 313.579 226.084 313.579C233.859 313.579 240.156 313.662 240.156 313.769Z" fill="#EBEBEB"/>
<path d="M227.888 319.725H223.123V329.773H227.888V319.725Z" fill="#F5F5F5"/>
<path d="M240.156 333.718C240.156 333.821 233.854 333.909 226.084 333.909C218.315 333.909 212.013 333.821 212.013 333.718C212.013 333.616 218.31 333.523 226.084 333.523C233.859 333.523 240.156 333.611 240.156 333.718Z" fill="#EBEBEB"/>
<path d="M227.888 340.273H223.123V350.321H227.888V340.273Z" fill="#F5F5F5"/>
<path d="M240.156 354.266C240.156 354.369 233.854 354.457 226.084 354.457C218.315 354.457 212.013 354.369 212.013 354.266C212.013 354.164 218.31 354.071 226.084 354.071C233.859 354.071 240.156 354.159 240.156 354.266Z" fill="#EBEBEB"/>
<path d="M199.493 320.031H194.728V330.079H199.493V320.031Z" fill="white"/>
<path d="M211.77 334.024C211.77 334.131 205.468 334.214 197.698 334.214C189.928 334.214 183.622 334.131 183.622 334.024C183.622 333.916 189.924 333.833 197.698 333.833C205.473 333.833 211.77 333.916 211.77 334.024Z" fill="#E0E0E0"/>
<path d="M199.493 340.286H194.728V350.333H199.493V340.286Z" fill="white"/>
<path d="M211.77 354.271C211.77 354.379 205.468 354.461 197.698 354.461C189.928 354.461 183.622 354.379 183.622 354.271C183.622 354.164 189.924 354.071 197.698 354.071C205.473 354.071 211.77 354.164 211.77 354.271Z" fill="#E0E0E0"/>
<path d="M435.779 316.777H219.184V338.423H435.779V316.777Z" fill="#A498FF"/>
<g opacity="0.4">
<path opacity="0.4" d="M435.779 316.776H219.184V338.423H435.779V316.776Z" fill="black"/>
</g>
<path d="M388.852 341.154H324.917V361.201H388.852V341.154Z" fill="#455A64"/>
<path d="M280.241 332.088V358.587H302.072L310.822 345.906H470.224V332.088H280.241Z" fill="#263238"/>
<path d="M278.88 248.175C278.856 247.749 278.665 247.349 278.35 247.062C278.034 246.774 277.619 246.622 277.192 246.639C268.564 246.995 227.603 248.872 219.179 252.921C212.731 256.023 205.668 267.602 200.689 275.401C197.118 280.991 189.231 293.399 187.636 299.745C186.285 305.11 185.471 316.27 185.563 321.806L187.817 351.1H224.939L228.656 341.423C229.842 338.34 231.934 335.69 234.657 333.82C237.38 331.951 240.605 330.95 243.908 330.951H280.797V282.337L278.88 248.175Z" fill="#A498FF"/>
<path d="M214.782 256.165C209.67 261.042 204.539 269.334 200.69 275.402C197.384 280.577 190.379 291.595 188.092 298.238C188.048 298.36 188.014 298.477 187.975 298.599C189.106 298.287 190.848 297.648 191.389 296.575C192.204 294.951 193.247 289.386 206.153 268.378C210.075 261.974 213.899 258.228 214.782 256.165Z" fill="#455A64"/>
<path d="M259.808 253.994C250.316 254.536 229.738 255.945 223.163 258.179C214.598 261.106 204.985 283.781 204.531 284.776L198.054 301.36C198.017 301.468 198.007 301.583 198.024 301.697C198.041 301.81 198.085 301.917 198.152 302.01C198.218 302.103 198.306 302.178 198.408 302.231C198.51 302.283 198.622 302.31 198.737 302.311H215.481C216.115 302.311 216.744 302.199 217.339 301.979L261.378 285.561C262.351 285.199 263.189 284.547 263.781 283.695C264.373 282.842 264.69 281.829 264.69 280.791V258.613C264.69 257.984 264.562 257.361 264.314 256.783C264.065 256.205 263.701 255.684 263.244 255.252C262.787 254.82 262.246 254.485 261.655 254.269C261.065 254.052 260.436 253.959 259.808 253.994Z" fill="#263238"/>
<path d="M199.925 300.682C199.925 300.682 206.129 286.766 208.217 282.206C211.368 275.319 218.728 261.232 223.698 259.716C228.268 258.345 241.408 256.677 259.904 255.618H260.079C260.874 255.621 261.635 255.938 262.196 256.5C262.757 257.062 263.073 257.824 263.074 258.618V281.298C263.072 281.857 262.901 282.403 262.582 282.862C262.263 283.321 261.812 283.672 261.289 283.869L228.751 287.883C227.447 288.044 226.193 288.487 225.077 289.181C223.961 289.875 223.01 290.803 222.288 291.902L216.65 300.501C216.319 300.624 215.969 300.686 215.616 300.686L199.925 300.682Z" fill="#455A64"/>
<path d="M227.567 288.13L216.505 300.45L222.626 259.543L224.157 259.016L221.143 289.32C221.129 289.472 221.154 289.625 221.216 289.765C221.278 289.905 221.375 290.026 221.497 290.118C221.62 290.209 221.763 290.268 221.915 290.288C222.066 290.308 222.22 290.288 222.362 290.232L227.567 288.13Z" fill="#263238"/>
<path d="M184.836 324.651C184.797 324.119 184.977 323.675 185.25 323.675L191.181 323.129C191.669 323.08 192.123 324.002 192.181 325.08L192.449 329.631C192.493 330.362 192.274 330.982 191.962 331.035L185.913 332.079C185.64 332.128 185.377 331.723 185.338 331.187L184.836 324.651Z" fill="#EBEBEB"/>
<path d="M227.567 345.91H184.83V363.045H227.567V345.91Z" fill="#263238"/>
<path d="M256.095 380.943C269 380.448 279.059 369.585 278.563 356.68C278.067 343.776 267.204 333.717 254.3 334.212C241.396 334.708 231.336 345.571 231.832 358.475C232.328 371.38 243.191 381.439 256.095 380.943Z" fill="#263238"/>
<path d="M231.838 357.171C231.841 357.192 231.841 357.213 231.838 357.234C231.756 363.431 234.137 369.406 238.458 373.848C242.779 378.289 248.686 380.834 254.882 380.923C261.078 381.013 267.056 378.639 271.503 374.323C275.95 370.008 278.502 364.103 278.599 357.908C278.599 357.908 278.599 357.869 278.599 357.849L231.838 357.171Z" fill="#263238"/>
<path d="M238.792 357.334C238.744 360.581 239.66 363.769 241.424 366.496C243.188 369.222 245.722 371.364 248.703 372.65C251.685 373.937 254.981 374.31 258.175 373.723C261.369 373.137 264.317 371.616 266.646 369.353C268.976 367.091 270.582 364.188 271.262 361.013C271.941 357.837 271.664 354.531 270.465 351.514C269.266 348.496 267.198 345.901 264.525 344.058C261.851 342.215 258.691 341.207 255.443 341.16C251.091 341.098 246.891 342.766 243.769 345.799C240.646 348.832 238.856 352.981 238.792 357.334Z" fill="#FAFAFA"/>
<path d="M255.45 341.16C251.097 341.098 246.898 342.766 243.775 345.799C240.653 348.832 238.862 352.981 238.798 357.334L271.629 357.822C271.692 353.467 270.024 349.265 266.99 346.141C263.956 343.016 259.805 341.224 255.45 341.16Z" fill="#E0E0E0"/>
<path d="M245.215 357.424C245.186 359.401 245.744 361.343 246.819 363.003C247.894 364.663 249.437 365.967 251.253 366.75C253.069 367.534 255.076 367.761 257.022 367.403C258.967 367.045 260.762 366.118 262.18 364.74C263.599 363.362 264.577 361.594 264.99 359.66C265.404 357.726 265.235 355.713 264.504 353.875C263.774 352.037 262.514 350.458 260.886 349.335C259.257 348.213 257.333 347.599 255.355 347.571C252.704 347.533 250.146 348.55 248.245 350.398C246.343 352.245 245.253 354.773 245.215 357.424Z" fill="#263238"/>
<path d="M209.856 268.845H207.949C205.799 268.845 204.057 270.588 204.057 272.737V288.214C204.057 290.363 205.799 292.106 207.949 292.106H209.856C212.006 292.106 213.748 290.363 213.748 288.214V272.737C213.748 270.588 212.006 268.845 209.856 268.845Z" fill="#263238"/>
<path d="M200.05 306.484H199.562V281.887C199.563 280.714 200.03 279.59 200.859 278.76C201.689 277.931 202.813 277.465 203.986 277.463H205.157V277.951H203.986C202.942 277.952 201.942 278.367 201.204 279.105C200.466 279.843 200.051 280.844 200.05 281.887V306.484Z" fill="#263238"/>
<path d="M203.369 306.514L202.013 283.517C201.994 283.124 202.054 282.731 202.19 282.361C202.327 281.992 202.536 281.654 202.806 281.368C203.076 281.081 203.401 280.852 203.762 280.694C204.123 280.536 204.511 280.453 204.905 280.449V280.937C204.577 280.937 204.252 281.004 203.951 281.134C203.649 281.264 203.378 281.454 203.152 281.693C202.927 281.932 202.753 282.215 202.641 282.523C202.529 282.832 202.481 283.16 202.5 283.488L203.856 306.49L203.369 306.514Z" fill="#263238"/>
<path d="M204.905 304.272H198.33V311.886H204.905V304.272Z" fill="#263238"/>
<path d="M202.476 289.817H199.803V290.305H202.476V289.817Z" fill="#263238"/>
<path d="M224.797 254.652L225.378 254.574L227.09 254.374L233.723 253.608L258.452 250.793C259.769 250.652 261.11 250.476 262.5 250.355C263.21 250.3 263.925 250.346 264.622 250.491C265.331 250.657 266.015 250.916 266.656 251.262C267.978 251.997 269.05 253.112 269.734 254.461C270.087 255.151 270.326 255.894 270.441 256.661C270.502 257.048 270.536 257.44 270.543 257.832V259.007C270.543 265.304 270.543 272.064 270.543 279.229C270.543 293.559 270.543 309.499 270.543 326.541V326.668H244.854C243.387 326.62 241.919 326.69 240.464 326.878C237.462 327.31 234.63 328.535 232.26 330.427C229.89 332.32 228.068 334.81 226.982 337.642C226.772 338.162 226.594 338.695 226.451 339.237C226.292 339.774 226.167 340.319 226.075 340.871L225.948 341.7L225.89 342.115L225.865 342.529L225.826 343.364V343.783V343.832C225.934 343.724 225.675 343.998 225.695 343.968H193.118V343.832C193.118 336.481 193.118 329.394 193.118 322.624C193.118 319.239 193.118 315.934 193.118 312.708V307.938C193.118 307.153 193.118 306.377 193.118 305.602C193.134 304.831 193.189 304.061 193.284 303.295C193.656 300.344 194.593 297.492 196.044 294.896C197.387 292.369 198.688 289.931 199.946 287.58L206.863 274.62L212.477 264.099C212.886 263.335 213.28 262.595 213.657 261.88C213.852 261.529 214.023 261.173 214.228 260.841C214.43 260.517 214.65 260.204 214.886 259.905C215.732 258.85 216.728 257.925 217.842 257.159C219.376 256.117 221.092 255.371 222.9 254.959C223.521 254.81 224.152 254.707 224.788 254.652L224.3 254.725C223.983 254.774 223.514 254.856 222.9 254.998C221.102 255.423 219.399 256.177 217.876 257.222C216.771 257.989 215.785 258.914 214.95 259.968C214.713 260.263 214.497 260.572 214.301 260.895C214.101 261.217 213.93 261.578 213.735 261.934L212.56 264.158L206.994 274.688C204.907 278.62 202.605 282.956 200.117 287.658L196.215 294.974C194.777 297.551 193.851 300.381 193.489 303.31C193.396 304.069 193.342 304.832 193.328 305.597C193.328 306.363 193.328 307.148 193.328 307.929V312.699C193.328 315.921 193.328 319.226 193.328 322.615C193.328 329.385 193.328 336.472 193.328 343.822L193.206 343.705H225.656C225.69 343.681 225.422 343.939 225.534 343.822V343.768V343.349L225.578 342.5V342.081L225.641 341.661L225.768 340.817C225.861 340.257 225.988 339.704 226.148 339.159C226.294 338.608 226.475 338.068 226.69 337.54C227.793 334.667 229.642 332.14 232.047 330.219C234.452 328.299 237.325 327.054 240.371 326.614C241.827 326.429 243.294 326.359 244.761 326.404H270.334L270.207 326.526C270.207 309.504 270.207 293.564 270.207 279.215C270.207 272.05 270.207 265.289 270.207 258.993C270.239 258.219 270.206 257.444 270.109 256.676C269.998 255.926 269.766 255.2 269.421 254.525C268.759 253.205 267.714 252.117 266.422 251.403C265.799 251.062 265.133 250.808 264.442 250.647C263.761 250.503 263.063 250.456 262.369 250.506C260.988 250.623 259.637 250.798 258.325 250.94L233.601 253.676L226.963 254.403L225.251 254.583L224.797 254.652Z" fill="#263238"/>
<path d="M262.76 308.557C262.76 308.557 262.896 308.557 263.14 308.498C263.499 308.435 263.841 308.299 264.145 308.098C264.625 307.784 264.984 307.316 265.165 306.772C265.275 306.432 265.319 306.075 265.296 305.718C265.286 305.323 265.184 304.936 264.999 304.587C264.786 304.187 264.471 303.852 264.085 303.616C263.699 303.38 263.256 303.252 262.804 303.245H259.585H252.21C251.596 303.246 251.004 303.473 250.546 303.882C250.088 304.291 249.797 304.854 249.727 305.465C249.651 306.044 249.758 306.633 250.035 307.147C250.309 307.634 250.738 308.015 251.254 308.23C251.764 308.407 252.306 308.474 252.844 308.425H254.405H257.209L261.272 308.464H262.379C262.507 308.462 262.634 308.471 262.76 308.493C262.634 308.509 262.507 308.517 262.379 308.518H261.272L257.209 308.557H254.405H252.844C252.571 308.557 252.307 308.557 252.02 308.557C251.727 308.535 251.439 308.469 251.166 308.362C250.602 308.128 250.132 307.712 249.83 307.181C249.527 306.623 249.407 305.983 249.488 305.352C249.564 304.683 249.883 304.064 250.384 303.615C250.886 303.165 251.536 302.915 252.21 302.914H259.585H262.804C263.507 302.928 264.178 303.215 264.673 303.715C265.169 304.215 265.45 304.888 265.457 305.591C265.473 305.964 265.418 306.336 265.296 306.689C265.096 307.255 264.709 307.737 264.199 308.055C263.881 308.253 263.522 308.378 263.15 308.42C263.026 308.482 262.895 308.527 262.76 308.557Z" fill="#263238"/>
<path d="M261.866 302.432C260.477 302.554 259.081 302.595 257.686 302.554C256.29 302.595 254.893 302.554 253.501 302.432C254.893 302.306 256.29 302.264 257.686 302.305C259.081 302.264 260.477 302.306 261.866 302.432Z" fill="white"/>
<path d="M229.514 363.188L225.612 362.905C226.631 348.931 228.124 340.571 230.177 337.347C234.118 331.153 238.035 330.031 242.371 329.294C246.41 328.606 250.482 328.767 254.423 328.928L255.399 328.967C263.535 329.284 280.577 329.002 280.762 329.002L280.825 332.904C280.655 332.904 263.505 333.191 255.262 332.869L254.287 332.83C250.546 332.684 246.683 332.523 243.044 333.147C239.167 333.806 236.586 334.562 233.475 339.449C232.533 340.908 230.768 345.975 229.514 363.188Z" fill="#263238"/>
<path d="M475.002 204.004H282.839V331.95H475.002V204.004Z" fill="#A498FF"/>
<path d="M472.703 329.418C472.703 328.594 472.664 281.667 472.6 206.895L472.703 206.993L284.919 207.022L285.046 206.895C285.046 250.446 285.046 291.9 285.046 329.418L284.929 329.301L472.712 329.418L284.929 329.535H284.792V329.418C284.792 291.9 284.792 250.446 284.792 206.895V206.773H284.934L472.717 206.798H472.82V206.9C472.742 281.667 472.703 328.599 472.703 329.418Z" fill="#263238"/>
<g opacity="0.5">
<path opacity="0.5" d="M310.088 272.642L311.903 309.238L454.418 279.592L451.897 241.446L310.088 272.642Z" fill="black"/>
</g>
<path d="M320.884 297.981L321.859 294.567C323.767 295.388 325.884 295.589 327.912 295.142C330.092 294.655 331.326 293.621 331.039 292.367C330.448 289.621 322.259 292.918 321.074 287.446C320.318 283.914 322.918 280.968 327.678 279.949C329.985 279.461 332.229 279.51 333.931 280.144L333.077 283.495C331.497 282.901 329.776 282.787 328.132 283.168C325.825 283.656 324.664 284.836 324.927 286.065C325.512 288.889 333.731 285.578 334.867 290.86C335.628 294.42 332.98 297.376 328.195 298.401C325.405 299.005 322.576 298.737 320.884 297.981Z" fill="white"/>
<path d="M353.311 274.743L353.56 292.653L349.585 293.507L349.482 286.215L341.703 287.883L341.81 295.199L337.806 296.033L337.557 278.118L341.556 277.26L341.654 284.298L349.434 282.63L349.336 275.592L353.311 274.743Z" fill="white"/>
<path d="M357.375 273.868L361.365 273.009L361.613 290.92L357.614 291.778L357.375 273.868Z" fill="white"/>
<path d="M380.24 274.573C381.176 278.938 378.547 282.377 373.411 283.455L369.582 284.274L369.655 289.205L365.656 290.064L365.422 272.134L372.367 270.671C376.66 269.729 379.518 271.197 380.24 274.573ZM376.289 275.777C375.933 274.109 374.587 273.578 372.572 274.012L369.455 274.68L369.534 280.899L372.894 280.177C375.508 279.601 376.777 278.045 376.289 275.763V275.777Z" fill="white"/>
<path d="M397.946 270.751C398.882 275.14 396.253 278.555 391.117 279.633L387.293 280.457L387.376 285.388L383.377 286.247L383.123 268.336L390.068 266.844C394.375 265.922 397.233 267.39 397.946 270.751ZM393.995 271.96C393.639 270.287 392.288 269.756 390.278 270.19L387.161 270.858L387.239 277.082L390.6 276.36C393.234 275.794 394.492 274.238 394.005 271.96H393.995Z" fill="white"/>
<path d="M400.877 264.532L404.877 263.674L405.13 281.589L401.131 282.447L400.877 264.532Z" fill="white"/>
<path d="M424.658 259.452L424.912 277.362L421.644 278.065L412.937 268.671L413.084 279.889L409.182 280.733L408.928 262.818L412.215 262.111L420.932 271.509L420.756 260.291L424.658 259.452Z" fill="white"/>
<path d="M440.475 264.734L444.109 263.953L444.202 271.323C442.591 273.12 440.442 274.347 438.076 274.82C432.871 275.937 428.935 273.625 427.984 269.187C426.726 263.334 430.067 257.969 436.569 256.564C439.856 255.857 442.485 256.393 444.373 258.027L442.022 260.954C440.558 259.827 439.037 259.593 437.144 260.002C433.12 260.866 431.164 264.314 431.974 268.094C432.525 270.67 434.618 272.045 437.881 271.343C438.866 271.141 439.794 270.723 440.597 270.118L440.475 264.734Z" fill="white"/>
<path d="M338.495 238.78V270.742L419.715 252.88L419.686 221.289L338.495 238.78Z" fill="#A498FF"/>
<g opacity="0.3">
<path opacity="0.3" d="M338.495 238.78V270.742L419.715 252.881L419.686 221.289L338.495 238.78Z" fill="black"/>
</g>
<path d="M429.027 238.78L457.79 232.044L456.653 228.981L429.027 238.78Z" fill="#FAFAFA"/>
<path d="M300.238 260.302L320.236 255.62L319.445 253.493L300.238 260.302Z" fill="#FAFAFA"/>
<path d="M368.701 308.491L397.464 301.751L396.332 298.692L368.701 308.491Z" fill="#FAFAFA"/>
<path d="M406.829 223.46C406.829 223.528 391.475 227.201 372.506 231.659C353.538 236.117 338.139 239.682 338.12 239.614C338.1 239.546 353.469 235.873 372.448 231.415C391.426 226.957 406.814 223.391 406.829 223.46Z" fill="#FAFAFA"/>
<path d="M338.282 267.535C338.282 267.603 331.698 268.998 323.543 270.637C315.387 272.275 308.769 273.563 308.754 273.495C308.739 273.427 315.339 272.032 323.494 270.388C331.649 268.744 338.268 267.466 338.282 267.535Z" fill="#FAFAFA"/>
<path d="M338.539 264.643C338.516 264.558 338.506 264.471 338.509 264.384C338.509 264.184 338.509 263.94 338.485 263.648C338.485 262.97 338.485 262.053 338.446 260.936C338.446 258.609 338.407 255.463 338.387 251.986C338.368 248.508 338.319 245.357 338.295 243.035C338.295 241.918 338.265 241.001 338.256 240.324V239.582C338.243 239.498 338.243 239.413 338.256 239.329C338.278 239.411 338.29 239.496 338.29 239.582C338.29 239.782 338.319 240.021 338.339 240.319C338.378 240.958 338.417 241.884 338.456 243.031C338.539 245.318 338.602 248.484 338.626 251.981C338.651 255.478 338.626 258.643 338.626 260.931C338.626 262.053 338.597 262.97 338.587 263.648C338.587 263.94 338.587 264.184 338.563 264.384C338.562 264.471 338.554 264.557 338.539 264.643Z" fill="#FAFAFA"/>
<path d="M255.524 264.591C255.524 264.591 255.465 264.65 255.343 264.742L254.807 265.128C254.319 265.464 253.651 265.933 252.802 266.513C251.1 267.664 248.729 269.235 246.086 270.927C243.442 272.62 241.028 274.117 239.257 275.185C238.379 275.717 237.662 276.161 237.165 276.434L236.589 276.756C236.524 276.798 236.453 276.833 236.379 276.858C236.379 276.858 236.438 276.8 236.56 276.717L237.111 276.346L239.165 275.034L245.939 270.713L252.69 266.362L254.743 265.05L255.309 264.699C255.377 264.655 255.448 264.619 255.524 264.591Z" fill="#FAFAFA"/>
<path d="M247.191 266.798C247.191 266.798 247.133 266.856 247.011 266.949L246.474 267.334C245.986 267.666 245.318 268.139 244.465 268.715C242.762 269.871 240.392 271.436 237.753 273.104C235.114 274.773 232.695 276.299 230.925 277.367C230.047 277.899 229.33 278.343 228.832 278.611L228.257 278.938C228.192 278.981 228.121 279.014 228.047 279.035C228.102 278.982 228.162 278.934 228.227 278.894L228.779 278.528L230.827 277.211L237.607 272.895L244.357 268.544L246.411 267.227L246.972 266.881C247.041 266.844 247.115 266.816 247.191 266.798Z" fill="#FAFAFA"/>
<path d="M206.125 280.997C206.05 280.864 205.999 280.719 205.973 280.568C205.895 280.29 205.788 279.88 205.666 279.373C205.346 278.048 205.182 276.689 205.178 275.325C205.172 273.947 205.489 272.587 206.105 271.355C206.298 270.986 206.53 270.639 206.798 270.321C206.888 270.199 206.997 270.092 207.12 270.004C206.808 270.466 206.522 270.945 206.261 271.438C205.705 272.663 205.421 273.994 205.427 275.34C205.442 276.687 205.587 278.03 205.861 279.349C205.983 279.892 206.071 280.443 206.125 280.997Z" fill="#FAFAFA"/>
<path d="M186.267 315.576C186.249 315.403 186.249 315.228 186.267 315.054C186.267 314.703 186.267 314.196 186.296 313.591C186.335 312.337 186.428 310.606 186.579 308.713C186.73 306.821 186.911 305.085 187.067 303.836C187.145 303.212 187.213 302.709 187.267 302.373C187.285 302.192 187.323 302.014 187.379 301.841C187.403 302.022 187.403 302.206 187.379 302.387L187.252 303.851C187.145 305.158 186.999 306.85 186.838 308.728C186.677 310.606 186.579 312.293 186.486 313.606C186.442 314.191 186.403 314.683 186.374 315.069C186.359 315.242 186.323 315.412 186.267 315.576Z" fill="#FAFAFA"/>
<path d="M239.72 325.044C239.72 325.098 238.779 325.229 237.32 325.703C236.467 325.98 235.634 326.317 234.828 326.712C232.853 327.693 231.067 329.014 229.55 330.614C228.931 331.264 228.359 331.956 227.838 332.687C226.956 333.941 226.541 334.804 226.497 334.78C226.57 334.567 226.661 334.361 226.77 334.165C226.879 333.927 227.003 333.695 227.141 333.472C227.297 333.209 227.468 332.902 227.692 332.585C228.197 331.83 228.761 331.118 229.38 330.453C230.146 329.641 230.98 328.895 231.872 328.224C232.773 327.571 233.729 326.998 234.73 326.512C235.548 326.119 236.396 325.793 237.267 325.537C237.632 325.415 237.979 325.346 238.276 325.273C238.532 325.211 238.791 325.162 239.052 325.127C239.271 325.078 239.495 325.05 239.72 325.044Z" fill="#FAFAFA"/>
<path d="M287.751 295.6C287.744 295.53 287.744 295.46 287.751 295.39C287.751 295.241 287.751 295.036 287.751 294.776C287.751 294.22 287.751 293.425 287.716 292.41C287.687 290.342 287.648 287.372 287.594 283.709C287.463 276.349 287.282 266.208 287.082 255.005C286.882 243.801 286.712 233.641 286.643 226.296C286.609 222.623 286.599 219.648 286.604 217.594C286.604 216.575 286.604 215.78 286.604 215.229V214.614C286.604 214.473 286.604 214.404 286.604 214.404C286.611 214.474 286.611 214.544 286.604 214.614C286.604 214.76 286.604 214.965 286.604 215.229C286.604 215.78 286.604 216.575 286.638 217.594C286.668 219.662 286.707 222.628 286.76 226.291C286.892 233.651 287.073 243.791 287.273 255C287.473 266.208 287.648 276.358 287.712 283.704C287.746 287.381 287.76 290.352 287.755 292.405C287.755 293.425 287.755 294.22 287.755 294.776C287.755 295.034 287.755 295.239 287.755 295.39C287.758 295.46 287.756 295.53 287.751 295.6Z" fill="#FAFAFA"/>
<path d="M428.871 380.912C441.774 380.396 451.817 369.517 451.301 356.614C450.785 343.71 439.906 333.668 427.002 334.184C414.099 334.7 404.056 345.579 404.572 358.482C405.088 371.386 415.967 381.428 428.871 380.912Z" fill="#263238"/>
<path d="M404.546 357.171C404.546 357.171 404.546 357.215 404.546 357.234C404.457 363.435 406.834 369.416 411.155 373.864C415.476 378.311 421.387 380.86 427.587 380.949C433.788 381.038 439.769 378.661 444.217 374.34C448.664 370.019 451.212 364.108 451.302 357.908V357.849L404.546 357.171Z" fill="#263238"/>
<path d="M411.507 357.334C411.461 360.58 412.377 363.766 414.141 366.491C415.905 369.216 418.438 371.356 421.418 372.642C424.399 373.928 427.694 374.3 430.886 373.714C434.079 373.127 437.025 371.606 439.354 369.345C441.682 367.083 443.288 364.182 443.968 361.008C444.647 357.834 444.37 354.529 443.172 351.513C441.974 348.496 439.908 345.902 437.236 344.06C434.564 342.217 431.405 341.208 428.159 341.16C423.807 341.098 419.607 342.766 416.485 345.799C413.362 348.832 411.572 352.981 411.507 357.334Z" fill="#FAFAFA"/>
<path d="M428.158 341.16C426.002 341.129 423.862 341.522 421.858 342.318C419.855 343.113 418.028 344.296 416.481 345.798C414.935 347.3 413.7 349.092 412.846 351.071C411.992 353.051 411.537 355.179 411.506 357.334L444.331 357.822C444.364 355.666 443.972 353.524 443.177 351.52C442.382 349.515 441.199 347.687 439.697 346.139C438.195 344.592 436.403 343.356 434.423 342.502C432.443 341.647 430.314 341.191 428.158 341.16Z" fill="#E0E0E0"/>
<path d="M417.947 357.424C417.918 359.401 418.476 361.343 419.551 363.003C420.626 364.663 422.169 365.967 423.985 366.75C425.801 367.534 427.809 367.761 429.754 367.403C431.699 367.045 433.494 366.118 434.912 364.74C436.331 363.362 437.309 361.594 437.722 359.66C438.136 357.726 437.967 355.713 437.236 353.875C436.506 352.037 435.247 350.458 433.618 349.335C431.989 348.213 430.065 347.599 428.087 347.571C425.436 347.533 422.879 348.55 420.977 350.398C419.075 352.245 417.985 354.773 417.947 357.424Z" fill="#263238"/>
<path d="M397.189 363.974C397.189 363.974 393.628 330.807 427.995 330.807C459.699 330.807 458.996 359.331 458.694 363.745H453.724C453.724 363.745 456.255 335.631 427.995 335.631C399.735 335.631 402.193 364.316 402.193 364.316C402.193 364.316 400.106 364.213 397.189 363.974Z" fill="#455A64"/>
<path d="M415.594 334.242C415.509 334.286 415.419 334.319 415.325 334.34C415.145 334.403 414.877 334.467 414.545 334.584C413.591 334.887 412.658 335.25 411.75 335.671C408.746 337.05 406.084 339.077 403.957 341.607C401.83 344.137 400.29 347.107 399.449 350.304C399.192 351.266 398.995 352.244 398.859 353.23C398.805 353.582 398.786 353.855 398.757 354.04C398.748 354.136 398.732 354.23 398.708 354.323C398.696 354.229 398.696 354.134 398.708 354.04C398.708 353.85 398.708 353.552 398.766 353.221C398.863 352.217 399.036 351.223 399.283 350.245C400.083 347 401.616 343.981 403.766 341.422C405.915 338.862 408.624 336.83 411.682 335.481C412.602 335.071 413.551 334.728 414.521 334.457C414.862 334.359 415.135 334.306 415.316 334.262C415.407 334.245 415.501 334.238 415.594 334.242Z" fill="#FAFAFA"/>
<path d="M353.866 254.355L352.325 245.765L358.113 244.727L358.382 246.224L354.409 246.937L354.777 248.984L358.451 248.324L358.72 249.822L355.045 250.481L355.413 252.532L359.402 251.816L359.671 253.314L353.866 254.355ZM361.26 244.162L363.517 246.779L363.584 246.767L364.8 243.527L366.851 243.159L365 247.925L368.451 251.739L366.362 252.114L364.074 249.498L364.007 249.51L362.771 252.758L360.691 253.131L362.609 248.353L359.2 244.532L361.26 244.162ZM369.541 251.543L368 242.953L371.389 242.345C372.041 242.228 372.618 242.253 373.121 242.42C373.624 242.583 374.035 242.863 374.354 243.259C374.676 243.652 374.888 244.133 374.99 244.704C375.093 245.274 375.06 245.799 374.892 246.28C374.724 246.76 374.429 247.164 374.005 247.491C373.585 247.818 373.044 248.04 372.385 248.158L370.224 248.546L369.963 247.09L371.83 246.756C372.179 246.693 372.457 246.581 372.662 246.42C372.869 246.256 373.009 246.056 373.082 245.821C373.158 245.582 373.17 245.322 373.119 245.039C373.068 244.754 372.966 244.515 372.814 244.323C372.663 244.128 372.463 243.992 372.212 243.916C371.961 243.837 371.66 243.829 371.308 243.892L370.083 244.112L371.357 251.217L369.541 251.543ZM377.189 250.171L375.648 241.581L379.037 240.973C379.685 240.857 380.26 240.873 380.76 241.023C381.263 241.17 381.672 241.433 381.988 241.812C382.307 242.188 382.517 242.659 382.619 243.227C382.721 243.797 382.686 244.31 382.514 244.765C382.341 245.218 382.041 245.595 381.613 245.897C381.188 246.198 380.645 246.408 379.985 246.526L377.716 246.933L377.454 245.474L379.43 245.119C379.777 245.057 380.056 244.958 380.268 244.822C380.481 244.686 380.626 244.512 380.703 244.302C380.784 244.091 380.799 243.845 380.748 243.562C380.697 243.277 380.596 243.047 380.447 242.872C380.3 242.696 380.101 242.579 379.851 242.52C379.603 242.458 379.305 242.458 378.955 242.52L377.73 242.74L379.005 249.845L377.189 250.171ZM381.126 245.43L383.963 248.956L381.958 249.316L379.168 245.781L381.126 245.43ZM384.94 248.781L383.399 240.191L389.187 239.152L389.456 240.65L385.484 241.362L385.851 243.409L389.525 242.75L389.794 244.247L386.12 244.906L386.487 246.958L390.476 246.242L390.745 247.739L384.94 248.781ZM395.734 240.528C395.64 240.195 395.449 239.958 395.161 239.817C394.873 239.675 394.511 239.643 394.074 239.721C393.778 239.775 393.535 239.861 393.346 239.982C393.157 240.1 393.02 240.241 392.937 240.406C392.857 240.57 392.834 240.745 392.867 240.93C392.889 241.084 392.945 241.213 393.035 241.315C393.129 241.417 393.246 241.498 393.387 241.559C393.527 241.618 393.685 241.663 393.861 241.695C394.037 241.724 394.222 241.743 394.417 241.751L395.222 241.797C395.611 241.814 395.975 241.864 396.314 241.948C396.652 242.031 396.954 242.155 397.22 242.318C397.486 242.481 397.707 242.689 397.882 242.944C398.06 243.197 398.183 243.503 398.25 243.86C398.342 244.386 398.289 244.866 398.093 245.3C397.899 245.73 397.572 246.096 397.112 246.398C396.655 246.696 396.077 246.908 395.378 247.034C394.684 247.158 394.061 247.16 393.508 247.04C392.959 246.919 392.502 246.677 392.139 246.312C391.779 245.943 391.536 245.451 391.411 244.836L393.169 244.521C393.24 244.805 393.366 245.031 393.546 245.198C393.728 245.361 393.951 245.47 394.215 245.524C394.481 245.574 394.77 245.571 395.083 245.515C395.391 245.46 395.65 245.367 395.86 245.237C396.074 245.106 396.229 244.95 396.326 244.768C396.423 244.586 396.453 244.392 396.416 244.185C396.382 243.992 396.295 243.84 396.157 243.729C396.022 243.618 395.837 243.536 395.602 243.482C395.37 243.429 395.091 243.392 394.764 243.373L393.787 243.306C393.031 243.26 392.41 243.087 391.923 242.787C391.436 242.488 391.137 242.021 391.026 241.385C390.93 240.866 390.987 240.386 391.197 239.948C391.41 239.508 391.742 239.135 392.196 238.829C392.649 238.523 393.188 238.313 393.815 238.201C394.452 238.086 395.028 238.096 395.543 238.229C396.06 238.361 396.486 238.598 396.822 238.939C397.157 239.28 397.375 239.705 397.475 240.215L395.734 240.528ZM403.474 239.139C403.38 238.807 403.189 238.57 402.901 238.428C402.612 238.286 402.25 238.255 401.814 238.333C401.518 238.386 401.275 238.473 401.086 238.594C400.896 238.711 400.76 238.853 400.677 239.018C400.597 239.182 400.573 239.357 400.606 239.541C400.628 239.696 400.685 239.824 400.775 239.926C400.868 240.028 400.986 240.11 401.126 240.171C401.267 240.229 401.425 240.275 401.601 240.306C401.777 240.336 401.962 240.354 402.157 240.363L402.961 240.409C403.351 240.425 403.715 240.476 404.053 240.559C404.392 240.643 404.694 240.766 404.96 240.929C405.226 241.092 405.446 241.301 405.622 241.555C405.8 241.809 405.923 242.114 405.99 242.472C406.081 242.998 406.029 243.478 405.832 243.911C405.638 244.342 405.311 244.708 404.852 245.01C404.395 245.308 403.816 245.52 403.117 245.645C402.424 245.77 401.801 245.772 401.248 245.652C400.698 245.531 400.242 245.288 399.879 244.923C399.519 244.555 399.276 244.063 399.151 243.448L400.909 243.132C400.98 243.417 401.106 243.642 401.286 243.809C401.468 243.973 401.691 244.081 401.954 244.135C402.22 244.186 402.51 244.183 402.823 244.127C403.131 244.071 403.39 243.979 403.6 243.849C403.813 243.718 403.969 243.562 404.066 243.38C404.163 243.198 404.193 243.003 404.156 242.796C404.121 242.604 404.035 242.452 403.897 242.341C403.761 242.229 403.576 242.147 403.342 242.094C403.11 242.04 402.831 242.004 402.504 241.985L401.526 241.917C400.77 241.871 400.149 241.698 399.663 241.399C399.176 241.099 398.877 240.632 398.766 239.997C398.67 239.477 398.727 238.998 398.937 238.559C399.149 238.12 399.482 237.747 399.935 237.441C400.388 237.134 400.928 236.925 401.554 236.812C402.192 236.698 402.768 236.707 403.282 236.84C403.8 236.972 404.226 237.209 404.561 237.55C404.897 237.891 405.115 238.317 405.215 238.827L403.474 239.139Z" fill="white"/>
<path d="M552.397 366H521.797V390.397H552.397V366Z" fill="#C0B8FF"/>
<path opacity="0.1" d="M552.397 366H521.797V390.397H552.397V366Z" fill="black"/>
<path d="M506 390.4H521.802V366.004H506V390.4Z" fill="#C0B8FF"/>
<path opacity="0.32" d="M506 390.4H521.802V366.004H506V390.4Z" fill="black"/>
<path d="M534.508 371.272H535.152H535.639L535.918 370.867L536.307 371.272L536.835 370.437L537.334 371.272H538.767H539.423L539.661 370.716L539.882 371.272H540.305V366H534.508V371.272Z" fill="white"/>
<path d="M507.086 388.716C508.247 386.981 509.407 385.24 510.568 383.494L513.998 378.247L517.404 372.979C518.53 371.216 519.642 369.451 520.741 367.682C519.58 369.414 518.42 371.154 517.259 372.9L513.829 378.147L510.44 383.419C509.303 385.179 508.185 386.945 507.086 388.716Z" fill="#C0B8FF"/>
<path d="M507.086 367.682C508.189 369.453 509.299 371.219 510.417 372.979L513.8 378.247L517.23 383.494C518.391 385.24 519.551 386.981 520.712 388.716C519.609 386.945 518.497 385.179 517.375 383.419L513.992 378.147L510.562 372.9C509.421 371.154 508.262 369.414 507.086 367.682Z" fill="#C0B8FF"/>
</g>
<defs>
<linearGradient id="paint0_linear_0_1" x1="943" y1="-2.86628e-05" x2="1806" y2="1074.5" gradientUnits="userSpaceOnUse">
<stop stop-color="#4C38EE"/>
<stop offset="1" stop-color="#4C38EE" stop-opacity="0.3"/>
</linearGradient>
<clipPath id="clip0_0_1">
<rect width="1440" height="3880" fill="white" transform="translate(-765 -230)"/>
</clipPath>
</defs>
</svg>
