<svg width="555" height="182" viewBox="0 0 555 182" fill="none" xmlns="http://www.w3.org/2000/svg">
<path d="M11.24 10.36H17.4L28.16 39H22.2L19.84 32.16H8.8L6.44 39H0.48L11.24 10.36ZM18.08 27.2L15.52 20.04L14.48 16.56H14.16L13.12 20.04L10.56 27.2H18.08ZM44.4328 36.44H44.1128C43.4995 37.4267 42.6728 38.2133 41.6328 38.8C40.5928 39.36 39.4061 39.64 38.0728 39.64C35.5928 39.64 33.7395 38.88 32.5128 37.36C31.3128 35.84 30.7128 33.8133 30.7128 31.28V19.4H35.9528V30.64C35.9528 32.0533 36.2595 33.1067 36.8728 33.8C37.5128 34.4667 38.4328 34.8 39.6328 34.8C40.3528 34.8 40.9795 34.6533 41.5128 34.36C42.0728 34.04 42.5395 33.6267 42.9128 33.12C43.3128 32.5867 43.6061 31.9733 43.7928 31.28C44.0061 30.56 44.1128 29.8 44.1128 29V19.4H49.3528V39H44.4328V36.44ZM56.1969 23.88H52.7569V19.4H56.1969V13.4H61.4369V19.4H66.2369V23.88H61.4369V31.48C61.4369 31.9333 61.4769 32.36 61.5569 32.76C61.6635 33.1333 61.8502 33.4533 62.1169 33.72C62.4902 34.1467 63.0235 34.36 63.7169 34.36C64.1702 34.36 64.5302 34.32 64.7969 34.24C65.0635 34.1333 65.3169 34 65.5569 33.84L67.0369 38.44C66.4235 38.7333 65.7569 38.9467 65.0369 39.08C64.3435 39.24 63.5702 39.32 62.7169 39.32C61.7302 39.32 60.8369 39.1733 60.0369 38.88C59.2635 38.56 58.6102 38.1333 58.0769 37.6C56.8235 36.4 56.1969 34.6933 56.1969 32.48V23.88ZM79.1763 18.76C80.6963 18.76 82.0829 19.0267 83.3363 19.56C84.6163 20.0667 85.7096 20.7867 86.6163 21.72C87.5496 22.6267 88.2696 23.72 88.7762 25C89.3096 26.28 89.5763 27.68 89.5763 29.2C89.5763 30.72 89.3096 32.12 88.7762 33.4C88.2696 34.68 87.5496 35.7867 86.6163 36.72C85.7096 37.6267 84.6163 38.3467 83.3363 38.88C82.0829 39.3867 80.6963 39.64 79.1763 39.64C77.6563 39.64 76.2563 39.3867 74.9763 38.88C73.7229 38.3467 72.6296 37.6267 71.6963 36.72C70.7896 35.7867 70.0696 34.68 69.5363 33.4C69.0296 32.12 68.7763 30.72 68.7763 29.2C68.7763 27.68 69.0296 26.28 69.5363 25C70.0696 23.72 70.7896 22.6267 71.6963 21.72C72.6296 20.7867 73.7229 20.0667 74.9763 19.56C76.2563 19.0267 77.6563 18.76 79.1763 18.76ZM79.1763 34.8C79.8429 34.8 80.4829 34.68 81.0963 34.44C81.7363 34.1733 82.2963 33.8 82.7763 33.32C83.2563 32.84 83.6296 32.2533 83.8963 31.56C84.1896 30.8667 84.3363 30.08 84.3363 29.2C84.3363 28.32 84.1896 27.5333 83.8963 26.84C83.6296 26.1467 83.2563 25.56 82.7763 25.08C82.2963 24.6 81.7363 24.24 81.0963 24C80.4829 23.7333 79.8429 23.6 79.1763 23.6C78.4829 23.6 77.8296 23.7333 77.2163 24C76.6029 24.24 76.0563 24.6 75.5763 25.08C75.0963 25.56 74.7096 26.1467 74.4163 26.84C74.1496 27.5333 74.0163 28.32 74.0163 29.2C74.0163 30.08 74.1496 30.8667 74.4163 31.56C74.7096 32.2533 75.0963 32.84 75.5763 33.32C76.0563 33.8 76.6029 34.1733 77.2163 34.44C77.8296 34.68 78.4829 34.8 79.1763 34.8ZM92.5525 19.4H97.4725V21.96H97.7925C98.4058 21 99.2325 20.2267 100.273 19.64C101.339 19.0533 102.513 18.76 103.793 18.76C105.286 18.76 106.539 19.1067 107.553 19.8C108.566 20.4933 109.286 21.3467 109.713 22.36C110.326 21.3733 111.193 20.5333 112.313 19.84C113.433 19.12 114.793 18.76 116.393 18.76C117.593 18.76 118.633 18.96 119.513 19.36C120.393 19.7333 121.113 20.2667 121.673 20.96C122.259 21.6533 122.699 22.4933 122.993 23.48C123.286 24.44 123.433 25.4933 123.433 26.64V39H118.193V27.6C118.193 24.9333 117.099 23.6 114.913 23.6C114.219 23.6 113.606 23.76 113.073 24.08C112.539 24.3733 112.086 24.7867 111.713 25.32C111.366 25.8267 111.086 26.44 110.872 27.16C110.686 27.88 110.593 28.6533 110.593 29.48V39H105.353V27.6C105.353 24.9333 104.206 23.6 101.913 23.6C101.246 23.6 100.659 23.76 100.153 24.08C99.6458 24.3733 99.2192 24.7867 98.8725 25.32C98.5258 25.8267 98.2592 26.44 98.0725 27.16C97.8858 27.88 97.7925 28.6533 97.7925 29.48V39H92.5525V19.4ZM139.633 36.92H139.313C138.699 37.6667 137.953 38.3067 137.072 38.84C136.219 39.3733 135.113 39.64 133.753 39.64C132.739 39.64 131.779 39.4667 130.873 39.12C129.993 38.8 129.219 38.3467 128.553 37.76C127.886 37.1733 127.366 36.4667 126.993 35.64C126.619 34.8133 126.433 33.9067 126.433 32.92C126.433 31.9067 126.633 31 127.033 30.2C127.433 29.3733 127.993 28.6667 128.713 28.08C129.433 27.4933 130.273 27.0533 131.233 26.76C132.219 26.44 133.286 26.28 134.433 26.28C135.713 26.28 136.766 26.3867 137.593 26.6C138.419 26.7867 139.099 26.9867 139.633 27.2V26.6C139.633 25.56 139.219 24.7067 138.393 24.04C137.566 23.3467 136.539 23 135.312 23C133.499 23 131.966 23.76 130.713 25.28L126.913 22.68C128.993 20.0667 131.833 18.76 135.433 18.76C138.473 18.76 140.793 19.48 142.393 20.92C143.993 22.3333 144.793 24.44 144.793 27.24V39H139.633V36.92ZM139.633 31.04C139.019 30.7467 138.379 30.52 137.713 30.36C137.073 30.1733 136.366 30.08 135.592 30.08C134.339 30.08 133.366 30.36 132.673 30.92C132.006 31.4533 131.673 32.12 131.673 32.92C131.673 33.72 131.993 34.36 132.633 34.84C133.299 35.32 134.059 35.56 134.913 35.56C135.606 35.56 136.246 35.44 136.833 35.2C137.419 34.9333 137.913 34.6 138.313 34.2C138.739 33.7733 139.059 33.2933 139.273 32.76C139.513 32.2 139.633 31.6267 139.633 31.04ZM150.728 23.88H147.288V19.4H150.728V13.4H155.968V19.4H160.768V23.88H155.968V31.48C155.968 31.9333 156.008 32.36 156.088 32.76C156.195 33.1333 156.381 33.4533 156.648 33.72C157.021 34.1467 157.555 34.36 158.248 34.36C158.701 34.36 159.061 34.32 159.328 34.24C159.595 34.1333 159.848 34 160.088 33.84L161.568 38.44C160.955 38.7333 160.288 38.9467 159.568 39.08C158.875 39.24 158.101 39.32 157.248 39.32C156.261 39.32 155.368 39.1733 154.568 38.88C153.795 38.56 153.141 38.1333 152.608 37.6C151.355 36.4 150.728 34.6933 150.728 32.48V23.88ZM167.738 16.56C167.285 16.56 166.845 16.48 166.418 16.32C166.018 16.1333 165.658 15.8933 165.338 15.6C165.045 15.28 164.805 14.92 164.618 14.52C164.458 14.12 164.378 13.68 164.378 13.2C164.378 12.72 164.458 12.28 164.618 11.88C164.805 11.48 165.045 11.1333 165.338 10.84C165.658 10.52 166.018 10.28 166.418 10.12C166.845 9.93333 167.285 9.84 167.738 9.84C168.671 9.84 169.471 10.1733 170.138 10.84C170.805 11.48 171.138 12.2667 171.138 13.2C171.138 14.1333 170.805 14.9333 170.138 15.6C169.471 16.24 168.671 16.56 167.738 16.56ZM165.138 39V19.4H170.378V39H165.138ZM184.254 18.76C185.774 18.76 187.161 19.0267 188.414 19.56C189.694 20.0667 190.788 20.7867 191.694 21.72C192.628 22.6267 193.348 23.72 193.854 25C194.388 26.28 194.654 27.68 194.654 29.2C194.654 30.72 194.388 32.12 193.854 33.4C193.348 34.68 192.628 35.7867 191.694 36.72C190.788 37.6267 189.694 38.3467 188.414 38.88C187.161 39.3867 185.774 39.64 184.254 39.64C182.734 39.64 181.334 39.3867 180.054 38.88C178.801 38.3467 177.708 37.6267 176.774 36.72C175.868 35.7867 175.148 34.68 174.614 33.4C174.108 32.12 173.854 30.72 173.854 29.2C173.854 27.68 174.108 26.28 174.614 25C175.148 23.72 175.868 22.6267 176.774 21.72C177.708 20.7867 178.801 20.0667 180.054 19.56C181.334 19.0267 182.734 18.76 184.254 18.76ZM184.254 34.8C184.921 34.8 185.561 34.68 186.174 34.44C186.814 34.1733 187.374 33.8 187.854 33.32C188.334 32.84 188.708 32.2533 188.974 31.56C189.268 30.8667 189.414 30.08 189.414 29.2C189.414 28.32 189.268 27.5333 188.974 26.84C188.708 26.1467 188.334 25.56 187.854 25.08C187.374 24.6 186.814 24.24 186.174 24C185.561 23.7333 184.921 23.6 184.254 23.6C183.561 23.6 182.908 23.7333 182.294 24C181.681 24.24 181.134 24.6 180.654 25.08C180.174 25.56 179.788 26.1467 179.494 26.84C179.228 27.5333 179.094 28.32 179.094 29.2C179.094 30.08 179.228 30.8667 179.494 31.56C179.788 32.2533 180.174 32.84 180.654 33.32C181.134 33.8 181.681 34.1733 182.294 34.44C182.908 34.68 183.561 34.8 184.254 34.8ZM202.551 21.96H202.871C203.484 20.9733 204.311 20.2 205.351 19.64C206.391 19.0533 207.577 18.76 208.911 18.76C210.137 18.76 211.217 18.96 212.151 19.36C213.084 19.76 213.844 20.3333 214.431 21.08C215.044 21.8 215.497 22.68 215.791 23.72C216.111 24.7333 216.271 25.8667 216.271 27.12V39H211.031V27.76C211.031 26.3467 210.711 25.3067 210.071 24.64C209.457 23.9467 208.551 23.6 207.351 23.6C206.631 23.6 205.991 23.76 205.431 24.08C204.897 24.3733 204.431 24.7867 204.031 25.32C203.657 25.8267 203.364 26.44 203.151 27.16C202.964 27.8533 202.871 28.6 202.871 29.4V39H197.631V19.4H202.551V21.96Z" fill="#4C38EE"/>
<path d="M17.58 120.112H19.308L15.87 133H14.178L11.406 124.504H11.334L8.562 133H6.87L3.288 120.112H5.016L7.734 130.246H7.806L10.596 121.84H12.144L14.934 130.246H15.006L17.58 120.112ZM23.5774 133.288C22.2814 133.288 21.2134 132.844 20.3734 131.956C19.5334 131.068 19.1134 129.946 19.1134 128.59C19.1134 127.246 19.5214 126.13 20.3374 125.242C21.1534 124.342 22.1974 123.892 23.4694 123.892C24.7774 123.892 25.8154 124.318 26.5834 125.17C27.3634 126.01 27.7534 127.192 27.7534 128.716L27.7354 128.896H20.8054C20.8294 129.76 21.1174 130.456 21.6694 130.984C22.2214 131.512 22.8814 131.776 23.6494 131.776C24.7054 131.776 25.5334 131.248 26.1334 130.192L27.6094 130.912C27.2134 131.656 26.6614 132.238 25.9534 132.658C25.2574 133.078 24.4654 133.288 23.5774 133.288ZM20.9314 127.528H25.9894C25.9414 126.916 25.6894 126.412 25.2334 126.016C24.7894 125.608 24.1894 125.404 23.4334 125.404C22.8094 125.404 22.2694 125.596 21.8134 125.98C21.3694 126.364 21.0754 126.88 20.9314 127.528ZM32.7188 128.59C32.7188 127.234 33.1448 126.112 33.9968 125.224C34.8608 124.336 35.9468 123.892 37.2548 123.892C38.5628 123.892 39.6428 124.336 40.4948 125.224C41.3588 126.112 41.7908 127.234 41.7908 128.59C41.7908 129.958 41.3588 131.08 40.4948 131.956C39.6428 132.844 38.5628 133.288 37.2548 133.288C35.9468 133.288 34.8608 132.844 33.9968 131.956C33.1448 131.068 32.7188 129.946 32.7188 128.59ZM34.3748 128.59C34.3748 129.538 34.6508 130.306 35.2028 130.894C35.7548 131.482 36.4388 131.776 37.2548 131.776C38.0708 131.776 38.7548 131.482 39.3068 130.894C39.8588 130.306 40.1348 129.538 40.1348 128.59C40.1348 127.654 39.8588 126.892 39.3068 126.304C38.7428 125.704 38.0588 125.404 37.2548 125.404C36.4508 125.404 35.7668 125.704 35.2028 126.304C34.6508 126.892 34.3748 127.654 34.3748 128.59ZM47.5272 131.776C48.3192 131.776 48.9852 131.476 49.5252 130.876C50.0652 130.288 50.3352 129.526 50.3352 128.59C50.3352 127.666 50.0652 126.904 49.5252 126.304C48.9852 125.704 48.3192 125.404 47.5272 125.404C46.7232 125.404 46.0512 125.704 45.5112 126.304C44.9832 126.904 44.7192 127.666 44.7192 128.59C44.7192 129.526 44.9832 130.294 45.5112 130.894C46.0512 131.482 46.7232 131.776 47.5272 131.776ZM47.7972 133.288C47.1492 133.288 46.5552 133.15 46.0152 132.874C45.4872 132.598 45.0792 132.232 44.7912 131.776H44.7192L44.7912 133V136.888H43.1352V124.18H44.7192V125.404H44.7912C45.0792 124.948 45.4872 124.582 46.0152 124.306C46.5552 124.03 47.1492 123.892 47.7972 123.892C48.9612 123.892 49.9452 124.348 50.7492 125.26C51.5772 126.184 51.9912 127.294 51.9912 128.59C51.9912 129.898 51.5772 131.008 50.7492 131.92C49.9452 132.832 48.9612 133.288 47.7972 133.288ZM56.6484 133.144C55.9284 133.144 55.3284 132.922 54.8484 132.478C54.3804 132.034 54.1404 131.416 54.1284 130.624V125.692H52.5804V124.18H54.1284V121.48H55.7844V124.18H57.9444V125.692H55.7844V130.084C55.7844 130.672 55.8984 131.074 56.1264 131.29C56.3544 131.494 56.6124 131.596 56.9004 131.596C57.0324 131.596 57.1584 131.584 57.2784 131.56C57.4104 131.524 57.5304 131.482 57.6384 131.434L58.1604 132.91C57.7284 133.066 57.2244 133.144 56.6484 133.144ZM61.7496 121.138C61.7496 121.462 61.6356 121.738 61.4076 121.966C61.1796 122.194 60.9036 122.308 60.5796 122.308C60.2556 122.308 59.9796 122.194 59.7516 121.966C59.5236 121.738 59.4096 121.462 59.4096 121.138C59.4096 120.814 59.5236 120.538 59.7516 120.31C59.9796 120.082 60.2556 119.968 60.5796 119.968C60.9036 119.968 61.1796 120.082 61.4076 120.31C61.6356 120.538 61.7496 120.814 61.7496 121.138ZM61.4076 124.18V133H59.7516V124.18H61.4076ZM65.2187 133H63.5627V124.18H65.1467V125.404H65.2187C65.4707 124.972 65.8547 124.612 66.3707 124.324C66.8987 124.036 67.4207 123.892 67.9367 123.892C68.5847 123.892 69.1547 124.042 69.6467 124.342C70.1387 124.642 70.4987 125.056 70.7267 125.584C71.4587 124.456 72.4727 123.892 73.7687 123.892C74.7887 123.892 75.5747 124.204 76.1267 124.828C76.6787 125.452 76.9547 126.34 76.9547 127.492V133H75.2987V127.744C75.2987 126.916 75.1487 126.322 74.8487 125.962C74.5487 125.59 74.0447 125.404 73.3367 125.404C72.7007 125.404 72.1667 125.674 71.7347 126.214C71.3027 126.754 71.0867 127.39 71.0867 128.122V133H69.4307V127.744C69.4307 126.916 69.2807 126.322 68.9807 125.962C68.6807 125.59 68.1767 125.404 67.4687 125.404C66.8327 125.404 66.2987 125.674 65.8667 126.214C65.4347 126.754 65.2187 127.39 65.2187 128.122V133ZM81.0328 121.138C81.0328 121.462 80.9188 121.738 80.6908 121.966C80.4628 122.194 80.1868 122.308 79.8628 122.308C79.5388 122.308 79.2628 122.194 79.0348 121.966C78.8068 121.738 78.6928 121.462 78.6928 121.138C78.6928 120.814 78.8068 120.538 79.0348 120.31C79.2628 120.082 79.5388 119.968 79.8628 119.968C80.1868 119.968 80.4628 120.082 80.6908 120.31C80.9188 120.538 81.0328 120.814 81.0328 121.138ZM80.6908 124.18V133H79.0348V124.18H80.6908ZM89.5419 133H82.4139V131.56L87.4359 125.692H82.5579V124.18H89.4699V125.62L84.4479 131.488H89.5419V133ZM94.9094 133.288C93.6134 133.288 92.5454 132.844 91.7054 131.956C90.8654 131.068 90.4454 129.946 90.4454 128.59C90.4454 127.246 90.8534 126.13 91.6694 125.242C92.4854 124.342 93.5294 123.892 94.8014 123.892C96.1094 123.892 97.1474 124.318 97.9154 125.17C98.6954 126.01 99.0854 127.192 99.0854 128.716L99.0674 128.896H92.1374C92.1614 129.76 92.4494 130.456 93.0014 130.984C93.5534 131.512 94.2134 131.776 94.9814 131.776C96.0374 131.776 96.8654 131.248 97.4654 130.192L98.9414 130.912C98.5454 131.656 97.9934 132.238 97.2854 132.658C96.5894 133.078 95.7974 133.288 94.9094 133.288ZM92.2634 127.528H97.3214C97.2734 126.916 97.0214 126.412 96.5654 126.016C96.1214 125.608 95.5214 125.404 94.7654 125.404C94.1414 125.404 93.6014 125.596 93.1454 125.98C92.7014 126.364 92.4074 126.88 92.2634 127.528ZM105.761 130.3C105.761 130.732 105.941 131.092 106.301 131.38C106.673 131.668 107.105 131.812 107.597 131.812C108.293 131.812 108.911 131.554 109.451 131.038C110.003 130.522 110.279 129.916 110.279 129.22C109.763 128.812 109.043 128.608 108.119 128.608C107.447 128.608 106.883 128.77 106.427 129.094C105.983 129.418 105.761 129.82 105.761 130.3ZM107.903 123.892C109.127 123.892 110.093 124.222 110.801 124.882C111.509 125.53 111.863 126.424 111.863 127.564V133H110.279V131.776H110.207C109.523 132.784 108.611 133.288 107.471 133.288C106.499 133.288 105.683 133 105.023 132.424C104.375 131.848 104.051 131.128 104.051 130.264C104.051 129.352 104.393 128.626 105.077 128.086C105.773 127.546 106.697 127.276 107.849 127.276C108.833 127.276 109.643 127.456 110.279 127.816V127.438C110.279 126.862 110.051 126.376 109.595 125.98C109.139 125.572 108.605 125.368 107.993 125.368C107.069 125.368 106.337 125.758 105.797 126.538L104.339 125.62C105.143 124.468 106.331 123.892 107.903 123.892ZM113.731 124.18H115.315V125.404H115.387C115.639 124.972 116.023 124.612 116.539 124.324C117.067 124.036 117.613 123.892 118.177 123.892C119.257 123.892 120.085 124.204 120.661 124.828C121.249 125.44 121.543 126.316 121.543 127.456V133H119.887V127.564C119.851 126.124 119.125 125.404 117.709 125.404C117.049 125.404 116.497 125.674 116.053 126.214C115.609 126.742 115.387 127.378 115.387 128.122V133H113.731V124.18ZM127.447 131.776C128.263 131.776 128.929 131.482 129.445 130.894C129.985 130.306 130.255 129.538 130.255 128.59C130.255 127.666 129.985 126.904 129.445 126.304C128.917 125.704 128.251 125.404 127.447 125.404C126.655 125.404 125.989 125.704 125.449 126.304C124.909 126.904 124.639 127.666 124.639 128.59C124.639 129.526 124.909 130.288 125.449 130.876C125.989 131.476 126.655 131.776 127.447 131.776ZM127.177 133.288C126.025 133.288 125.035 132.832 124.207 131.92C123.391 130.996 122.983 129.886 122.983 128.59C122.983 127.294 123.391 126.184 124.207 125.26C125.035 124.348 126.025 123.892 127.177 123.892C127.825 123.892 128.413 124.03 128.941 124.306C129.481 124.582 129.895 124.948 130.183 125.404H130.255L130.183 124.18V120.112H131.839V133H130.255V131.776H130.183C129.895 132.232 129.481 132.598 128.941 132.874C128.413 133.15 127.825 133.288 127.177 133.288ZM139.019 130.3C139.019 130.732 139.199 131.092 139.559 131.38C139.931 131.668 140.363 131.812 140.855 131.812C141.551 131.812 142.169 131.554 142.709 131.038C143.261 130.522 143.537 129.916 143.537 129.22C143.021 128.812 142.301 128.608 141.377 128.608C140.705 128.608 140.141 128.77 139.685 129.094C139.241 129.418 139.019 129.82 139.019 130.3ZM141.161 123.892C142.385 123.892 143.351 124.222 144.059 124.882C144.767 125.53 145.121 126.424 145.121 127.564V133H143.537V131.776H143.465C142.781 132.784 141.869 133.288 140.729 133.288C139.757 133.288 138.941 133 138.281 132.424C137.633 131.848 137.309 131.128 137.309 130.264C137.309 129.352 137.651 128.626 138.335 128.086C139.031 127.546 139.955 127.276 141.107 127.276C142.091 127.276 142.901 127.456 143.537 127.816V127.438C143.537 126.862 143.309 126.376 142.853 125.98C142.397 125.572 141.863 125.368 141.251 125.368C140.327 125.368 139.595 125.758 139.055 126.538L137.597 125.62C138.401 124.468 139.589 123.892 141.161 123.892ZM154.728 133H153.144V131.776H153.072C152.82 132.208 152.43 132.568 151.902 132.856C151.386 133.144 150.846 133.288 150.282 133.288C149.202 133.288 148.368 132.982 147.78 132.37C147.204 131.746 146.916 130.864 146.916 129.724V124.18H148.572V129.616C148.608 131.056 149.334 131.776 150.75 131.776C151.41 131.776 151.962 131.512 152.406 130.984C152.85 130.444 153.072 129.802 153.072 129.058V124.18H154.728V133ZM160.324 133.144C159.604 133.144 159.004 132.922 158.524 132.478C158.056 132.034 157.816 131.416 157.804 130.624V125.692H156.256V124.18H157.804V121.48H159.46V124.18H161.62V125.692H159.46V130.084C159.46 130.672 159.574 131.074 159.802 131.29C160.03 131.494 160.288 131.596 160.576 131.596C160.708 131.596 160.834 131.584 160.954 131.56C161.086 131.524 161.206 131.482 161.314 131.434L161.836 132.91C161.404 133.066 160.9 133.144 160.324 133.144ZM162.604 128.59C162.604 127.234 163.03 126.112 163.882 125.224C164.746 124.336 165.832 123.892 167.14 123.892C168.448 123.892 169.528 124.336 170.38 125.224C171.244 126.112 171.676 127.234 171.676 128.59C171.676 129.958 171.244 131.08 170.38 131.956C169.528 132.844 168.448 133.288 167.14 133.288C165.832 133.288 164.746 132.844 163.882 131.956C163.03 131.068 162.604 129.946 162.604 128.59ZM164.26 128.59C164.26 129.538 164.536 130.306 165.088 130.894C165.64 131.482 166.324 131.776 167.14 131.776C167.956 131.776 168.64 131.482 169.192 130.894C169.744 130.306 170.02 129.538 170.02 128.59C170.02 127.654 169.744 126.892 169.192 126.304C168.628 125.704 167.944 125.404 167.14 125.404C166.336 125.404 165.652 125.704 165.088 126.304C164.536 126.892 164.26 127.654 164.26 128.59ZM174.66 133H173.004V124.18H174.588V125.404H174.66C174.912 124.972 175.296 124.612 175.812 124.324C176.34 124.036 176.862 123.892 177.378 123.892C178.026 123.892 178.596 124.042 179.088 124.342C179.58 124.642 179.94 125.056 180.168 125.584C180.9 124.456 181.914 123.892 183.21 123.892C184.23 123.892 185.016 124.204 185.568 124.828C186.12 125.452 186.396 126.34 186.396 127.492V133H184.74V127.744C184.74 126.916 184.59 126.322 184.29 125.962C183.99 125.59 183.486 125.404 182.778 125.404C182.142 125.404 181.608 125.674 181.176 126.214C180.744 126.754 180.528 127.39 180.528 128.122V133H178.872V127.744C178.872 126.916 178.722 126.322 178.422 125.962C178.122 125.59 177.618 125.404 176.91 125.404C176.274 125.404 175.74 125.674 175.308 126.214C174.876 126.754 174.66 127.39 174.66 128.122V133ZM189.45 130.3C189.45 130.732 189.63 131.092 189.99 131.38C190.362 131.668 190.794 131.812 191.286 131.812C191.982 131.812 192.6 131.554 193.14 131.038C193.692 130.522 193.968 129.916 193.968 129.22C193.452 128.812 192.732 128.608 191.808 128.608C191.136 128.608 190.572 128.77 190.116 129.094C189.672 129.418 189.45 129.82 189.45 130.3ZM191.592 123.892C192.816 123.892 193.782 124.222 194.49 124.882C195.198 125.53 195.552 126.424 195.552 127.564V133H193.968V131.776H193.896C193.212 132.784 192.3 133.288 191.16 133.288C190.188 133.288 189.372 133 188.712 132.424C188.064 131.848 187.74 131.128 187.74 130.264C187.74 129.352 188.082 128.626 188.766 128.086C189.462 127.546 190.386 127.276 191.538 127.276C192.522 127.276 193.332 127.456 193.968 127.816V127.438C193.968 126.862 193.74 126.376 193.284 125.98C192.828 125.572 192.294 125.368 191.682 125.368C190.758 125.368 190.026 125.758 189.486 126.538L188.028 125.62C188.832 124.468 190.02 123.892 191.592 123.892ZM200.736 133.144C200.016 133.144 199.416 132.922 198.936 132.478C198.468 132.034 198.228 131.416 198.216 130.624V125.692H196.668V124.18H198.216V121.48H199.872V124.18H202.032V125.692H199.872V130.084C199.872 130.672 199.986 131.074 200.214 131.29C200.442 131.494 200.7 131.596 200.988 131.596C201.12 131.596 201.246 131.584 201.366 131.56C201.498 131.524 201.618 131.482 201.726 131.434L202.248 132.91C201.816 133.066 201.312 133.144 200.736 133.144ZM207.48 133.288C206.184 133.288 205.116 132.844 204.276 131.956C203.436 131.068 203.016 129.946 203.016 128.59C203.016 127.246 203.424 126.13 204.24 125.242C205.056 124.342 206.1 123.892 207.372 123.892C208.68 123.892 209.718 124.318 210.486 125.17C211.266 126.01 211.656 127.192 211.656 128.716L211.638 128.896H204.708C204.732 129.76 205.02 130.456 205.572 130.984C206.124 131.512 206.784 131.776 207.552 131.776C208.608 131.776 209.436 131.248 210.036 130.192L211.512 130.912C211.116 131.656 210.564 132.238 209.856 132.658C209.16 133.078 208.368 133.288 207.48 133.288ZM204.834 127.528H209.892C209.844 126.916 209.592 126.412 209.136 126.016C208.692 125.608 208.092 125.404 207.336 125.404C206.712 125.404 206.172 125.596 205.716 125.98C205.272 126.364 204.978 126.88 204.834 127.528ZM225.009 124.18L219.483 136.888H217.773L219.825 132.442L216.189 124.18H217.989L220.617 130.516H220.653L223.209 124.18H225.009ZM225.234 128.59C225.234 127.234 225.66 126.112 226.512 125.224C227.376 124.336 228.462 123.892 229.77 123.892C231.078 123.892 232.158 124.336 233.01 125.224C233.874 126.112 234.306 127.234 234.306 128.59C234.306 129.958 233.874 131.08 233.01 131.956C232.158 132.844 231.078 133.288 229.77 133.288C228.462 133.288 227.376 132.844 226.512 131.956C225.66 131.068 225.234 129.946 225.234 128.59ZM226.89 128.59C226.89 129.538 227.166 130.306 227.718 130.894C228.27 131.482 228.954 131.776 229.77 131.776C230.586 131.776 231.27 131.482 231.822 130.894C232.374 130.306 232.65 129.538 232.65 128.59C232.65 127.654 232.374 126.892 231.822 126.304C231.258 125.704 230.574 125.404 229.77 125.404C228.966 125.404 228.282 125.704 227.718 126.304C227.166 126.892 226.89 127.654 226.89 128.59ZM243.463 133H241.879V131.776H241.807C241.555 132.208 241.165 132.568 240.637 132.856C240.121 133.144 239.581 133.288 239.017 133.288C237.937 133.288 237.103 132.982 236.515 132.37C235.939 131.746 235.651 130.864 235.651 129.724V124.18H237.307V129.616C237.343 131.056 238.069 131.776 239.485 131.776C240.145 131.776 240.697 131.512 241.141 130.984C241.585 130.444 241.807 129.802 241.807 129.058V124.18H243.463V133ZM247.135 133H245.479V124.18H247.063V125.62H247.135C247.303 125.152 247.645 124.756 248.161 124.432C248.689 124.096 249.205 123.928 249.709 123.928C250.189 123.928 250.597 124 250.933 124.144L250.429 125.746C250.225 125.662 249.901 125.62 249.457 125.62C248.833 125.62 248.287 125.872 247.819 126.376C247.363 126.88 247.135 127.468 247.135 128.14V133ZM259.933 133.288C258.637 133.288 257.569 132.844 256.729 131.956C255.889 131.068 255.469 129.946 255.469 128.59C255.469 127.246 255.877 126.13 256.693 125.242C257.509 124.342 258.553 123.892 259.825 123.892C261.133 123.892 262.171 124.318 262.939 125.17C263.719 126.01 264.109 127.192 264.109 128.716L264.091 128.896H257.161C257.185 129.76 257.473 130.456 258.025 130.984C258.577 131.512 259.237 131.776 260.005 131.776C261.061 131.776 261.889 131.248 262.489 130.192L263.965 130.912C263.569 131.656 263.017 132.238 262.309 132.658C261.613 133.078 260.821 133.288 259.933 133.288ZM257.287 127.528H262.345C262.297 126.916 262.045 126.412 261.589 126.016C261.145 125.608 260.545 125.404 259.789 125.404C259.165 125.404 258.625 125.596 258.169 125.98C257.725 126.364 257.431 126.88 257.287 127.528ZM265.623 124.18H267.207V125.404H267.279C267.531 124.972 267.915 124.612 268.431 124.324C268.959 124.036 269.505 123.892 270.069 123.892C271.149 123.892 271.977 124.204 272.553 124.828C273.141 125.44 273.435 126.316 273.435 127.456V133H271.779V127.564C271.743 126.124 271.017 125.404 269.601 125.404C268.941 125.404 268.389 125.674 267.945 126.214C267.501 126.742 267.279 127.378 267.279 128.122V133H265.623V124.18ZM278.414 133.144C277.694 133.144 277.094 132.922 276.614 132.478C276.146 132.034 275.906 131.416 275.894 130.624V125.692H274.346V124.18H275.894V121.48H277.55V124.18H279.71V125.692H277.55V130.084C277.55 130.672 277.664 131.074 277.892 131.29C278.12 131.494 278.378 131.596 278.666 131.596C278.798 131.596 278.924 131.584 279.044 131.56C279.176 131.524 279.296 131.482 279.404 131.434L279.926 132.91C279.494 133.066 278.99 133.144 278.414 133.144ZM283.515 121.138C283.515 121.462 283.401 121.738 283.173 121.966C282.945 122.194 282.669 122.308 282.345 122.308C282.021 122.308 281.745 122.194 281.517 121.966C281.289 121.738 281.175 121.462 281.175 121.138C281.175 120.814 281.289 120.538 281.517 120.31C281.745 120.082 282.021 119.968 282.345 119.968C282.669 119.968 282.945 120.082 283.173 120.31C283.401 120.538 283.515 120.814 283.515 121.138ZM283.173 124.18V133H281.517V124.18H283.173ZM286.984 133H285.328V124.18H286.912V125.62H286.984C287.152 125.152 287.494 124.756 288.01 124.432C288.538 124.096 289.054 123.928 289.558 123.928C290.038 123.928 290.446 124 290.782 124.144L290.278 125.746C290.074 125.662 289.75 125.62 289.306 125.62C288.682 125.62 288.136 125.872 287.668 126.376C287.212 126.88 286.984 127.468 286.984 128.14V133ZM295.282 133.288C293.986 133.288 292.918 132.844 292.078 131.956C291.238 131.068 290.818 129.946 290.818 128.59C290.818 127.246 291.226 126.13 292.042 125.242C292.858 124.342 293.902 123.892 295.174 123.892C296.482 123.892 297.52 124.318 298.288 125.17C299.068 126.01 299.458 127.192 299.458 128.716L299.44 128.896H292.51C292.534 129.76 292.822 130.456 293.374 130.984C293.926 131.512 294.586 131.776 295.354 131.776C296.41 131.776 297.238 131.248 297.838 130.192L299.314 130.912C298.918 131.656 298.366 132.238 297.658 132.658C296.962 133.078 296.17 133.288 295.282 133.288ZM292.636 127.528H297.694C297.646 126.916 297.394 126.412 296.938 126.016C296.494 125.608 295.894 125.404 295.138 125.404C294.514 125.404 293.974 125.596 293.518 125.98C293.074 126.364 292.78 126.88 292.636 127.528ZM311.678 130.552C311.678 131.32 311.342 131.968 310.67 132.496C309.998 133.024 309.152 133.288 308.132 133.288C307.244 133.288 306.464 133.06 305.792 132.604C305.12 132.136 304.64 131.524 304.352 130.768L305.828 130.138C306.044 130.666 306.356 131.08 306.764 131.38C307.184 131.668 307.64 131.812 308.132 131.812C308.66 131.812 309.098 131.698 309.446 131.47C309.806 131.242 309.986 130.972 309.986 130.66C309.986 130.096 309.554 129.682 308.69 129.418L307.178 129.04C305.462 128.608 304.604 127.78 304.604 126.556C304.604 125.752 304.928 125.11 305.576 124.63C306.236 124.138 307.076 123.892 308.096 123.892C308.876 123.892 309.578 124.078 310.202 124.45C310.838 124.822 311.282 125.32 311.534 125.944L310.058 126.556C309.89 126.184 309.614 125.896 309.23 125.692C308.858 125.476 308.438 125.368 307.97 125.368C307.538 125.368 307.148 125.476 306.8 125.692C306.464 125.908 306.296 126.172 306.296 126.484C306.296 126.988 306.77 127.348 307.718 127.564L309.05 127.906C310.802 128.338 311.678 129.22 311.678 130.552ZM313.119 120.112H314.775V124.18L314.703 125.404H314.775C315.027 124.972 315.411 124.612 315.927 124.324C316.455 124.036 317.001 123.892 317.565 123.892C318.645 123.892 319.473 124.204 320.049 124.828C320.637 125.44 320.931 126.316 320.931 127.456V133H319.275V127.78C319.275 126.196 318.573 125.404 317.169 125.404C316.497 125.404 315.927 125.686 315.459 126.25C315.003 126.802 314.775 127.45 314.775 128.194V133H313.119V120.112ZM325.017 121.138C325.017 121.462 324.903 121.738 324.675 121.966C324.447 122.194 324.171 122.308 323.847 122.308C323.523 122.308 323.247 122.194 323.019 121.966C322.791 121.738 322.677 121.462 322.677 121.138C322.677 120.814 322.791 120.538 323.019 120.31C323.247 120.082 323.523 119.968 323.847 119.968C324.171 119.968 324.447 120.082 324.675 120.31C324.903 120.538 325.017 120.814 325.017 121.138ZM324.675 124.18V133H323.019V124.18H324.675ZM331.15 131.776C331.942 131.776 332.608 131.476 333.148 130.876C333.688 130.288 333.958 129.526 333.958 128.59C333.958 127.666 333.688 126.904 333.148 126.304C332.608 125.704 331.942 125.404 331.15 125.404C330.346 125.404 329.674 125.704 329.134 126.304C328.606 126.904 328.342 127.666 328.342 128.59C328.342 129.526 328.606 130.294 329.134 130.894C329.674 131.482 330.346 131.776 331.15 131.776ZM331.42 133.288C330.772 133.288 330.178 133.15 329.638 132.874C329.11 132.598 328.702 132.232 328.414 131.776H328.342L328.414 133V136.888H326.758V124.18H328.342V125.404H328.414C328.702 124.948 329.11 124.582 329.638 124.306C330.178 124.03 330.772 123.892 331.42 123.892C332.584 123.892 333.568 124.348 334.372 125.26C335.2 126.184 335.614 127.294 335.614 128.59C335.614 129.898 335.2 131.008 334.372 131.92C333.568 132.832 332.584 133.288 331.42 133.288ZM341.275 131.776C342.067 131.776 342.733 131.476 343.273 130.876C343.813 130.288 344.083 129.526 344.083 128.59C344.083 127.666 343.813 126.904 343.273 126.304C342.733 125.704 342.067 125.404 341.275 125.404C340.471 125.404 339.799 125.704 339.259 126.304C338.731 126.904 338.467 127.666 338.467 128.59C338.467 129.526 338.731 130.294 339.259 130.894C339.799 131.482 340.471 131.776 341.275 131.776ZM341.545 133.288C340.897 133.288 340.303 133.15 339.763 132.874C339.235 132.598 338.827 132.232 338.539 131.776H338.467L338.539 133V136.888H336.883V124.18H338.467V125.404H338.539C338.827 124.948 339.235 124.582 339.763 124.306C340.303 124.03 340.897 123.892 341.545 123.892C342.709 123.892 343.693 124.348 344.497 125.26C345.325 126.184 345.739 127.294 345.739 128.59C345.739 129.898 345.325 131.008 344.497 131.92C343.693 132.832 342.709 133.288 341.545 133.288ZM349.31 121.138C349.31 121.462 349.196 121.738 348.968 121.966C348.74 122.194 348.464 122.308 348.14 122.308C347.816 122.308 347.54 122.194 347.312 121.966C347.084 121.738 346.97 121.462 346.97 121.138C346.97 120.814 347.084 120.538 347.312 120.31C347.54 120.082 347.816 119.968 348.14 119.968C348.464 119.968 348.74 120.082 348.968 120.31C349.196 120.538 349.31 120.814 349.31 121.138ZM348.968 124.18V133H347.312V124.18H348.968ZM351.123 124.18H352.707V125.404H352.779C353.031 124.972 353.415 124.612 353.931 124.324C354.459 124.036 355.005 123.892 355.569 123.892C356.649 123.892 357.477 124.204 358.053 124.828C358.641 125.44 358.935 126.316 358.935 127.456V133H357.279V127.564C357.243 126.124 356.517 125.404 355.101 125.404C354.441 125.404 353.889 125.674 353.445 126.214C353.001 126.742 352.779 127.378 352.779 128.122V133H351.123V124.18ZM364.751 131.776C365.567 131.776 366.233 131.482 366.749 130.894C367.289 130.306 367.559 129.538 367.559 128.59C367.559 127.666 367.289 126.904 366.749 126.304C366.221 125.704 365.555 125.404 364.751 125.404C363.959 125.404 363.293 125.704 362.753 126.304C362.213 126.904 361.943 127.666 361.943 128.59C361.943 129.526 362.213 130.288 362.753 130.876C363.293 131.476 363.959 131.776 364.751 131.776ZM364.697 137.176C364.205 137.176 363.743 137.11 363.311 136.978C362.879 136.858 362.483 136.684 362.123 136.456C361.775 136.228 361.475 135.958 361.223 135.646C360.971 135.334 360.779 134.986 360.647 134.602L362.213 133.954C362.393 134.47 362.705 134.884 363.149 135.196C363.593 135.508 364.109 135.664 364.697 135.664C365.597 135.664 366.299 135.394 366.803 134.854C367.307 134.314 367.559 133.57 367.559 132.622V131.776H367.487C367.175 132.244 366.749 132.616 366.209 132.892C365.681 133.156 365.105 133.288 364.481 133.288C363.329 133.288 362.339 132.838 361.511 131.938C360.695 131.014 360.287 129.898 360.287 128.59C360.287 127.282 360.695 126.172 361.511 125.26C362.339 124.348 363.329 123.892 364.481 123.892C365.105 123.892 365.681 124.03 366.209 124.306C366.749 124.57 367.175 124.936 367.487 125.404H367.559V124.18H369.143V132.622C369.143 134.038 368.741 135.148 367.937 135.952C367.121 136.768 366.041 137.176 364.697 137.176ZM379.437 131.776C380.229 131.776 380.895 131.476 381.435 130.876C381.975 130.288 382.245 129.526 382.245 128.59C382.245 127.666 381.975 126.904 381.435 126.304C380.895 125.704 380.229 125.404 379.437 125.404C378.633 125.404 377.961 125.704 377.421 126.304C376.893 126.904 376.629 127.666 376.629 128.59C376.629 129.526 376.893 130.294 377.421 130.894C377.961 131.482 378.633 131.776 379.437 131.776ZM379.707 133.288C379.059 133.288 378.465 133.15 377.925 132.874C377.397 132.598 376.989 132.232 376.701 131.776H376.629L376.701 133V136.888H375.045V124.18H376.629V125.404H376.701C376.989 124.948 377.397 124.582 377.925 124.306C378.465 124.03 379.059 123.892 379.707 123.892C380.871 123.892 381.855 124.348 382.659 125.26C383.487 126.184 383.901 127.294 383.901 128.59C383.901 129.898 383.487 131.008 382.659 131.92C381.855 132.832 380.871 133.288 379.707 133.288ZM386.986 133H385.33V124.18H386.914V125.62H386.986C387.154 125.152 387.496 124.756 388.012 124.432C388.54 124.096 389.056 123.928 389.56 123.928C390.04 123.928 390.448 124 390.784 124.144L390.28 125.746C390.076 125.662 389.752 125.62 389.308 125.62C388.684 125.62 388.138 125.872 387.67 126.376C387.214 126.88 386.986 127.468 386.986 128.14V133ZM390.82 128.59C390.82 127.234 391.246 126.112 392.098 125.224C392.962 124.336 394.048 123.892 395.356 123.892C396.664 123.892 397.744 124.336 398.596 125.224C399.46 126.112 399.892 127.234 399.892 128.59C399.892 129.958 399.46 131.08 398.596 131.956C397.744 132.844 396.664 133.288 395.356 133.288C394.048 133.288 392.962 132.844 392.098 131.956C391.246 131.068 390.82 129.946 390.82 128.59ZM392.476 128.59C392.476 129.538 392.752 130.306 393.304 130.894C393.856 131.482 394.54 131.776 395.356 131.776C396.172 131.776 396.856 131.482 397.408 130.894C397.96 130.306 398.236 129.538 398.236 128.59C398.236 127.654 397.96 126.892 397.408 126.304C396.844 125.704 396.16 125.404 395.356 125.404C394.552 125.404 393.868 125.704 393.304 126.304C392.752 126.892 392.476 127.654 392.476 128.59ZM405.429 133.288C404.121 133.288 403.035 132.844 402.171 131.956C401.319 131.044 400.893 129.922 400.893 128.59C400.893 127.234 401.319 126.112 402.171 125.224C403.035 124.336 404.121 123.892 405.429 123.892C406.329 123.892 407.115 124.12 407.787 124.576C408.459 125.02 408.963 125.638 409.299 126.43L407.787 127.06C407.319 125.956 406.497 125.404 405.321 125.404C404.565 125.404 403.911 125.71 403.359 126.322C402.819 126.934 402.549 127.69 402.549 128.59C402.549 129.49 402.819 130.246 403.359 130.858C403.911 131.47 404.565 131.776 405.321 131.776C406.533 131.776 407.385 131.224 407.877 130.12L409.353 130.75C409.029 131.542 408.519 132.166 407.823 132.622C407.139 133.066 406.341 133.288 405.429 133.288ZM414.673 133.288C413.377 133.288 412.309 132.844 411.469 131.956C410.629 131.068 410.209 129.946 410.209 128.59C410.209 127.246 410.617 126.13 411.433 125.242C412.249 124.342 413.293 123.892 414.565 123.892C415.873 123.892 416.911 124.318 417.679 125.17C418.459 126.01 418.849 127.192 418.849 128.716L418.831 128.896H411.901C411.925 129.76 412.213 130.456 412.765 130.984C413.317 131.512 413.977 131.776 414.745 131.776C415.801 131.776 416.629 131.248 417.229 130.192L418.705 130.912C418.309 131.656 417.757 132.238 417.049 132.658C416.353 133.078 415.561 133.288 414.673 133.288ZM412.027 127.528H417.085C417.037 126.916 416.785 126.412 416.329 126.016C415.885 125.608 415.285 125.404 414.529 125.404C413.905 125.404 413.365 125.596 412.909 125.98C412.465 126.364 412.171 126.88 412.027 127.528ZM427.201 130.552C427.201 131.32 426.865 131.968 426.193 132.496C425.521 133.024 424.675 133.288 423.655 133.288C422.767 133.288 421.987 133.06 421.315 132.604C420.643 132.136 420.163 131.524 419.875 130.768L421.351 130.138C421.567 130.666 421.879 131.08 422.287 131.38C422.707 131.668 423.163 131.812 423.655 131.812C424.183 131.812 424.621 131.698 424.969 131.47C425.329 131.242 425.509 130.972 425.509 130.66C425.509 130.096 425.077 129.682 424.213 129.418L422.701 129.04C420.985 128.608 420.127 127.78 420.127 126.556C420.127 125.752 420.451 125.11 421.099 124.63C421.759 124.138 422.599 123.892 423.619 123.892C424.399 123.892 425.101 124.078 425.725 124.45C426.361 124.822 426.805 125.32 427.057 125.944L425.581 126.556C425.413 126.184 425.137 125.896 424.753 125.692C424.381 125.476 423.961 125.368 423.493 125.368C423.061 125.368 422.671 125.476 422.323 125.692C421.987 125.908 421.819 126.172 421.819 126.484C421.819 126.988 422.293 127.348 423.241 127.564L424.573 127.906C426.325 128.338 427.201 129.22 427.201 130.552ZM435.393 130.552C435.393 131.32 435.057 131.968 434.385 132.496C433.713 133.024 432.867 133.288 431.847 133.288C430.959 133.288 430.179 133.06 429.507 132.604C428.835 132.136 428.355 131.524 428.067 130.768L429.543 130.138C429.759 130.666 430.071 131.08 430.479 131.38C430.899 131.668 431.355 131.812 431.847 131.812C432.375 131.812 432.813 131.698 433.161 131.47C433.521 131.242 433.701 130.972 433.701 130.66C433.701 130.096 433.269 129.682 432.405 129.418L430.893 129.04C429.177 128.608 428.319 127.78 428.319 126.556C428.319 125.752 428.643 125.11 429.291 124.63C429.951 124.138 430.791 123.892 431.811 123.892C432.591 123.892 433.293 124.078 433.917 124.45C434.553 124.822 434.997 125.32 435.249 125.944L433.773 126.556C433.605 126.184 433.329 125.896 432.945 125.692C432.573 125.476 432.153 125.368 431.685 125.368C431.253 125.368 430.863 125.476 430.515 125.692C430.179 125.908 430.011 126.172 430.011 126.484C430.011 126.988 430.485 127.348 431.433 127.564L432.765 127.906C434.517 128.338 435.393 129.22 435.393 130.552ZM439.138 131.884C439.138 132.22 439.018 132.508 438.778 132.748C438.55 132.988 438.262 133.108 437.914 133.108C437.578 133.108 437.29 132.988 437.05 132.748C436.81 132.508 436.69 132.22 436.69 131.884C436.69 131.536 436.81 131.248 437.05 131.02C437.29 130.78 437.578 130.66 437.914 130.66C438.262 130.66 438.55 130.78 438.778 131.02C439.018 131.248 439.138 131.536 439.138 131.884ZM449.454 127.006V133H447.798V127.006L443.46 120.112H445.404L448.59 125.35H448.662L451.776 120.112H453.72L449.454 127.006ZM452.643 128.59C452.643 127.234 453.069 126.112 453.921 125.224C454.785 124.336 455.871 123.892 457.179 123.892C458.487 123.892 459.567 124.336 460.419 125.224C461.283 126.112 461.715 127.234 461.715 128.59C461.715 129.958 461.283 131.08 460.419 131.956C459.567 132.844 458.487 133.288 457.179 133.288C455.871 133.288 454.785 132.844 453.921 131.956C453.069 131.068 452.643 129.946 452.643 128.59ZM454.299 128.59C454.299 129.538 454.575 130.306 455.127 130.894C455.679 131.482 456.363 131.776 457.179 131.776C457.995 131.776 458.679 131.482 459.231 130.894C459.783 130.306 460.059 129.538 460.059 128.59C460.059 127.654 459.783 126.892 459.231 126.304C458.667 125.704 457.983 125.404 457.179 125.404C456.375 125.404 455.691 125.704 455.127 126.304C454.575 126.892 454.299 127.654 454.299 128.59ZM470.871 133H469.287V131.776H469.215C468.963 132.208 468.573 132.568 468.045 132.856C467.529 133.144 466.989 133.288 466.425 133.288C465.345 133.288 464.511 132.982 463.923 132.37C463.347 131.746 463.059 130.864 463.059 129.724V124.18H464.715V129.616C464.751 131.056 465.477 131.776 466.893 131.776C467.553 131.776 468.105 131.512 468.549 130.984C468.993 130.444 469.215 129.802 469.215 129.058V124.18H470.871V133ZM480.802 131.776C481.618 131.776 482.284 131.482 482.8 130.894C483.34 130.306 483.61 129.538 483.61 128.59C483.61 127.666 483.34 126.904 482.8 126.304C482.272 125.704 481.606 125.404 480.802 125.404C480.01 125.404 479.344 125.704 478.804 126.304C478.264 126.904 477.994 127.666 477.994 128.59C477.994 129.526 478.264 130.288 478.804 130.876C479.344 131.476 480.01 131.776 480.802 131.776ZM480.532 133.288C479.38 133.288 478.39 132.832 477.562 131.92C476.746 130.996 476.338 129.886 476.338 128.59C476.338 127.294 476.746 126.184 477.562 125.26C478.39 124.348 479.38 123.892 480.532 123.892C481.18 123.892 481.768 124.03 482.296 124.306C482.836 124.582 483.25 124.948 483.538 125.404H483.61L483.538 124.18V120.112H485.194V133H483.61V131.776H483.538C483.25 132.232 482.836 132.598 482.296 132.874C481.768 133.15 481.18 133.288 480.532 133.288ZM486.621 128.59C486.621 127.234 487.047 126.112 487.899 125.224C488.763 124.336 489.849 123.892 491.157 123.892C492.465 123.892 493.545 124.336 494.397 125.224C495.261 126.112 495.693 127.234 495.693 128.59C495.693 129.958 495.261 131.08 494.397 131.956C493.545 132.844 492.465 133.288 491.157 133.288C489.849 133.288 488.763 132.844 487.899 131.956C487.047 131.068 486.621 129.946 486.621 128.59ZM488.277 128.59C488.277 129.538 488.553 130.306 489.105 130.894C489.657 131.482 490.341 131.776 491.157 131.776C491.973 131.776 492.657 131.482 493.209 130.894C493.761 130.306 494.037 129.538 494.037 128.59C494.037 127.654 493.761 126.892 493.209 126.304C492.645 125.704 491.961 125.404 491.157 125.404C490.353 125.404 489.669 125.704 489.105 126.304C488.553 126.892 488.277 127.654 488.277 128.59ZM501.153 124.18H502.737V125.404H502.809C503.061 124.972 503.445 124.612 503.961 124.324C504.489 124.036 505.035 123.892 505.599 123.892C506.679 123.892 507.507 124.204 508.083 124.828C508.671 125.44 508.965 126.316 508.965 127.456V133H507.309V127.564C507.273 126.124 506.547 125.404 505.131 125.404C504.471 125.404 503.919 125.674 503.475 126.214C503.031 126.742 502.809 127.378 502.809 128.122V133H501.153V124.18ZM510.404 128.59C510.404 127.234 510.83 126.112 511.682 125.224C512.546 124.336 513.632 123.892 514.94 123.892C516.248 123.892 517.328 124.336 518.18 125.224C519.044 126.112 519.476 127.234 519.476 128.59C519.476 129.958 519.044 131.08 518.18 131.956C517.328 132.844 516.248 133.288 514.94 133.288C513.632 133.288 512.546 132.844 511.682 131.956C510.83 131.068 510.404 129.946 510.404 128.59ZM512.06 128.59C512.06 129.538 512.336 130.306 512.888 130.894C513.44 131.482 514.124 131.776 514.94 131.776C515.756 131.776 516.44 131.482 516.992 130.894C517.544 130.306 517.82 129.538 517.82 128.59C517.82 127.654 517.544 126.892 516.992 126.304C516.428 125.704 515.744 125.404 514.94 125.404C514.136 125.404 513.452 125.704 512.888 126.304C512.336 126.892 512.06 127.654 512.06 128.59ZM524.209 133.144C523.489 133.144 522.889 132.922 522.409 132.478C521.941 132.034 521.701 131.416 521.689 130.624V125.692H520.141V124.18H521.689V121.48H523.345V124.18H525.505V125.692H523.345V130.084C523.345 130.672 523.459 131.074 523.687 131.29C523.915 131.494 524.173 131.596 524.461 131.596C524.593 131.596 524.719 131.584 524.839 131.56C524.971 131.524 525.091 131.482 525.199 131.434L525.721 132.91C525.289 133.066 524.785 133.144 524.209 133.144ZM4.008 142.112H5.664V146.18L5.592 147.404H5.664C5.916 146.972 6.3 146.612 6.816 146.324C7.344 146.036 7.89 145.892 8.454 145.892C9.534 145.892 10.362 146.204 10.938 146.828C11.526 147.44 11.82 148.316 11.82 149.456V155H10.164V149.78C10.164 148.196 9.462 147.404 8.058 147.404C7.386 147.404 6.816 147.686 6.348 148.25C5.892 148.802 5.664 149.45 5.664 150.194V155H4.008V142.112ZM14.882 152.3C14.882 152.732 15.062 153.092 15.422 153.38C15.794 153.668 16.226 153.812 16.718 153.812C17.414 153.812 18.032 153.554 18.572 153.038C19.124 152.522 19.4 151.916 19.4 151.22C18.884 150.812 18.164 150.608 17.24 150.608C16.568 150.608 16.004 150.77 15.548 151.094C15.104 151.418 14.882 151.82 14.882 152.3ZM17.024 145.892C18.248 145.892 19.214 146.222 19.922 146.882C20.63 147.53 20.984 148.424 20.984 149.564V155H19.4V153.776H19.328C18.644 154.784 17.732 155.288 16.592 155.288C15.62 155.288 14.804 155 14.144 154.424C13.496 153.848 13.172 153.128 13.172 152.264C13.172 151.352 13.514 150.626 14.198 150.086C14.894 149.546 15.818 149.276 16.97 149.276C17.954 149.276 18.764 149.456 19.4 149.816V149.438C19.4 148.862 19.172 148.376 18.716 147.98C18.26 147.572 17.726 147.368 17.114 147.368C16.19 147.368 15.458 147.758 14.918 148.538L13.46 147.62C14.264 146.468 15.452 145.892 17.024 145.892ZM26.96 155H25.304L21.74 146.18H23.54L26.132 153.02H26.168L28.796 146.18H30.56L26.96 155ZM35.3371 155.288C34.0411 155.288 32.9731 154.844 32.1331 153.956C31.2931 153.068 30.8731 151.946 30.8731 150.59C30.8731 149.246 31.2811 148.13 32.0971 147.242C32.9131 146.342 33.9571 145.892 35.2291 145.892C36.5371 145.892 37.5751 146.318 38.3431 147.17C39.1231 148.01 39.5131 149.192 39.5131 150.716L39.4951 150.896H32.5651C32.5891 151.76 32.8771 152.456 33.4291 152.984C33.9811 153.512 34.6411 153.776 35.4091 153.776C36.4651 153.776 37.2931 153.248 37.8931 152.192L39.3691 152.912C38.9731 153.656 38.4211 154.238 37.7131 154.658C37.0171 155.078 36.2251 155.288 35.3371 155.288ZM32.6911 149.528H37.7491C37.7011 148.916 37.4491 148.412 36.9931 148.016C36.5491 147.608 35.9491 147.404 35.1931 147.404C34.5691 147.404 34.0291 147.596 33.5731 147.98C33.1291 148.364 32.8351 148.88 32.6911 149.528ZM48.4746 155.144C47.7546 155.144 47.1546 154.922 46.6746 154.478C46.2066 154.034 45.9666 153.416 45.9546 152.624V147.692H44.4066V146.18H45.9546V143.48H47.6106V146.18H49.7706V147.692H47.6106V152.084C47.6106 152.672 47.7246 153.074 47.9526 153.29C48.1806 153.494 48.4386 153.596 48.7266 153.596C48.8586 153.596 48.9846 153.584 49.1046 153.56C49.2366 153.524 49.3566 153.482 49.4646 153.434L49.9866 154.91C49.5546 155.066 49.0506 155.144 48.4746 155.144ZM50.754 150.59C50.754 149.234 51.18 148.112 52.032 147.224C52.896 146.336 53.982 145.892 55.29 145.892C56.598 145.892 57.678 146.336 58.53 147.224C59.394 148.112 59.826 149.234 59.826 150.59C59.826 151.958 59.394 153.08 58.53 153.956C57.678 154.844 56.598 155.288 55.29 155.288C53.982 155.288 52.896 154.844 52.032 153.956C51.18 153.068 50.754 151.946 50.754 150.59ZM52.41 150.59C52.41 151.538 52.686 152.306 53.238 152.894C53.79 153.482 54.474 153.776 55.29 153.776C56.106 153.776 56.79 153.482 57.342 152.894C57.894 152.306 58.17 151.538 58.17 150.59C58.17 149.654 57.894 148.892 57.342 148.304C56.778 147.704 56.094 147.404 55.29 147.404C54.486 147.404 53.802 147.704 53.238 148.304C52.686 148.892 52.41 149.654 52.41 150.59ZM66.9413 142.112V155H65.2853V142.112H66.9413ZM68.3673 150.59C68.3673 149.234 68.7933 148.112 69.6453 147.224C70.5093 146.336 71.5953 145.892 72.9033 145.892C74.2113 145.892 75.2913 146.336 76.1433 147.224C77.0073 148.112 77.4393 149.234 77.4393 150.59C77.4393 151.958 77.0073 153.08 76.1433 153.956C75.2913 154.844 74.2113 155.288 72.9033 155.288C71.5953 155.288 70.5093 154.844 69.6453 153.956C68.7933 153.068 68.3673 151.946 68.3673 150.59ZM70.0233 150.59C70.0233 151.538 70.2993 152.306 70.8513 152.894C71.4033 153.482 72.0873 153.776 72.9033 153.776C73.7193 153.776 74.4033 153.482 74.9553 152.894C75.5073 152.306 75.7833 151.538 75.7833 150.59C75.7833 149.654 75.5073 148.892 74.9553 148.304C74.3913 147.704 73.7073 147.404 72.9033 147.404C72.0993 147.404 71.4153 147.704 70.8513 148.304C70.2993 148.892 70.0233 149.654 70.0233 150.59ZM78.4395 150.59C78.4395 149.234 78.8655 148.112 79.7175 147.224C80.5815 146.336 81.6675 145.892 82.9755 145.892C84.2835 145.892 85.3635 146.336 86.2155 147.224C87.0795 148.112 87.5115 149.234 87.5115 150.59C87.5115 151.958 87.0795 153.08 86.2155 153.956C85.3635 154.844 84.2835 155.288 82.9755 155.288C81.6675 155.288 80.5815 154.844 79.7175 153.956C78.8655 153.068 78.4395 151.946 78.4395 150.59ZM80.0955 150.59C80.0955 151.538 80.3715 152.306 80.9235 152.894C81.4755 153.482 82.1595 153.776 82.9755 153.776C83.7915 153.776 84.4755 153.482 85.0275 152.894C85.5795 152.306 85.8555 151.538 85.8555 150.59C85.8555 149.654 85.5795 148.892 85.0275 148.304C84.4635 147.704 83.7795 147.404 82.9755 147.404C82.1715 147.404 81.4875 147.704 80.9235 148.304C80.3715 148.892 80.0955 149.654 80.0955 150.59ZM96.6859 155H94.6879L91.9339 150.842L90.5839 152.174V155H88.9279V142.112H90.5839V150.05L94.3999 146.18H96.5239V146.252L93.0859 149.672L96.6859 154.928V155ZM101.08 150.59C101.08 149.234 101.506 148.112 102.358 147.224C103.222 146.336 104.308 145.892 105.616 145.892C106.924 145.892 108.004 146.336 108.856 147.224C109.72 148.112 110.152 149.234 110.152 150.59C110.152 151.958 109.72 153.08 108.856 153.956C108.004 154.844 106.924 155.288 105.616 155.288C104.308 155.288 103.222 154.844 102.358 153.956C101.506 153.068 101.08 151.946 101.08 150.59ZM102.736 150.59C102.736 151.538 103.012 152.306 103.564 152.894C104.116 153.482 104.8 153.776 105.616 153.776C106.432 153.776 107.116 153.482 107.668 152.894C108.22 152.306 108.496 151.538 108.496 150.59C108.496 149.654 108.22 148.892 107.668 148.304C107.104 147.704 106.42 147.404 105.616 147.404C104.812 147.404 104.128 147.704 103.564 148.304C103.012 148.892 102.736 149.654 102.736 150.59ZM115.765 155H114.109L110.545 146.18H112.345L114.937 153.02H114.973L117.601 146.18H119.365L115.765 155ZM124.142 155.288C122.846 155.288 121.778 154.844 120.938 153.956C120.098 153.068 119.678 151.946 119.678 150.59C119.678 149.246 120.086 148.13 120.902 147.242C121.718 146.342 122.762 145.892 124.034 145.892C125.342 145.892 126.38 146.318 127.148 147.17C127.928 148.01 128.318 149.192 128.318 150.716L128.3 150.896H121.37C121.394 151.76 121.682 152.456 122.234 152.984C122.786 153.512 123.446 153.776 124.214 153.776C125.27 153.776 126.098 153.248 126.698 152.192L128.174 152.912C127.778 153.656 127.226 154.238 126.518 154.658C125.822 155.078 125.03 155.288 124.142 155.288ZM121.496 149.528H126.554C126.506 148.916 126.254 148.412 125.798 148.016C125.354 147.608 124.754 147.404 123.998 147.404C123.374 147.404 122.834 147.596 122.378 147.98C121.934 148.364 121.64 148.88 121.496 149.528ZM131.488 155H129.832V146.18H131.416V147.62H131.488C131.656 147.152 131.998 146.756 132.514 146.432C133.042 146.096 133.558 145.928 134.062 145.928C134.542 145.928 134.95 146 135.286 146.144L134.782 147.746C134.578 147.662 134.254 147.62 133.81 147.62C133.186 147.62 132.64 147.872 132.172 148.376C131.716 148.88 131.488 149.468 131.488 150.14V155ZM148.21 146.18L142.684 158.888H140.974L143.026 154.442L139.39 146.18H141.19L143.818 152.516H143.854L146.41 146.18H148.21ZM148.436 150.59C148.436 149.234 148.862 148.112 149.714 147.224C150.578 146.336 151.664 145.892 152.972 145.892C154.28 145.892 155.36 146.336 156.212 147.224C157.076 148.112 157.508 149.234 157.508 150.59C157.508 151.958 157.076 153.08 156.212 153.956C155.36 154.844 154.28 155.288 152.972 155.288C151.664 155.288 150.578 154.844 149.714 153.956C148.862 153.068 148.436 151.946 148.436 150.59ZM150.092 150.59C150.092 151.538 150.368 152.306 150.92 152.894C151.472 153.482 152.156 153.776 152.972 153.776C153.788 153.776 154.472 153.482 155.024 152.894C155.576 152.306 155.852 151.538 155.852 150.59C155.852 149.654 155.576 148.892 155.024 148.304C154.46 147.704 153.776 147.404 152.972 147.404C152.168 147.404 151.484 147.704 150.92 148.304C150.368 148.892 150.092 149.654 150.092 150.59ZM166.664 155H165.08V153.776H165.008C164.756 154.208 164.366 154.568 163.838 154.856C163.322 155.144 162.782 155.288 162.218 155.288C161.138 155.288 160.304 154.982 159.716 154.37C159.14 153.746 158.852 152.864 158.852 151.724V146.18H160.508V151.616C160.544 153.056 161.27 153.776 162.686 153.776C163.346 153.776 163.898 153.512 164.342 152.984C164.786 152.444 165.008 151.802 165.008 151.058V146.18H166.664V155ZM170.336 155H168.68V146.18H170.264V147.62H170.336C170.504 147.152 170.846 146.756 171.362 146.432C171.89 146.096 172.406 145.928 172.91 145.928C173.39 145.928 173.798 146 174.134 146.144L173.63 147.746C173.426 147.662 173.102 147.62 172.658 147.62C172.034 147.62 171.488 147.872 171.02 148.376C170.564 148.88 170.336 149.468 170.336 150.14V155ZM185.924 152.552C185.924 153.32 185.588 153.968 184.916 154.496C184.244 155.024 183.398 155.288 182.378 155.288C181.49 155.288 180.71 155.06 180.038 154.604C179.366 154.136 178.886 153.524 178.598 152.768L180.074 152.138C180.29 152.666 180.602 153.08 181.01 153.38C181.43 153.668 181.886 153.812 182.378 153.812C182.906 153.812 183.344 153.698 183.692 153.47C184.052 153.242 184.232 152.972 184.232 152.66C184.232 152.096 183.8 151.682 182.936 151.418L181.424 151.04C179.708 150.608 178.85 149.78 178.85 148.556C178.85 147.752 179.174 147.11 179.822 146.63C180.482 146.138 181.322 145.892 182.342 145.892C183.122 145.892 183.824 146.078 184.448 146.45C185.084 146.822 185.528 147.32 185.78 147.944L184.304 148.556C184.136 148.184 183.86 147.896 183.476 147.692C183.104 147.476 182.684 147.368 182.216 147.368C181.784 147.368 181.394 147.476 181.046 147.692C180.71 147.908 180.542 148.172 180.542 148.484C180.542 148.988 181.016 149.348 181.964 149.564L183.296 149.906C185.048 150.338 185.924 151.22 185.924 152.552ZM187.365 142.112H189.021V146.18L188.949 147.404H189.021C189.273 146.972 189.657 146.612 190.173 146.324C190.701 146.036 191.247 145.892 191.811 145.892C192.891 145.892 193.719 146.204 194.295 146.828C194.883 147.44 195.177 148.316 195.177 149.456V155H193.521V149.78C193.521 148.196 192.819 147.404 191.415 147.404C190.743 147.404 190.173 147.686 189.705 148.25C189.249 148.802 189.021 149.45 189.021 150.194V155H187.365V142.112ZM196.617 150.59C196.617 149.234 197.043 148.112 197.895 147.224C198.759 146.336 199.845 145.892 201.153 145.892C202.461 145.892 203.541 146.336 204.393 147.224C205.257 148.112 205.689 149.234 205.689 150.59C205.689 151.958 205.257 153.08 204.393 153.956C203.541 154.844 202.461 155.288 201.153 155.288C199.845 155.288 198.759 154.844 197.895 153.956C197.043 153.068 196.617 151.946 196.617 150.59ZM198.273 150.59C198.273 151.538 198.549 152.306 199.101 152.894C199.653 153.482 200.337 153.776 201.153 153.776C201.969 153.776 202.653 153.482 203.205 152.894C203.757 152.306 204.033 151.538 204.033 150.59C204.033 149.654 203.757 148.892 203.205 148.304C202.641 147.704 201.957 147.404 201.153 147.404C200.349 147.404 199.665 147.704 199.101 148.304C198.549 148.892 198.273 149.654 198.273 150.59ZM214.846 155H213.262V153.776H213.19C212.938 154.208 212.548 154.568 212.02 154.856C211.504 155.144 210.964 155.288 210.4 155.288C209.32 155.288 208.486 154.982 207.898 154.37C207.322 153.746 207.034 152.864 207.034 151.724V146.18H208.69V151.616C208.726 153.056 209.452 153.776 210.868 153.776C211.528 153.776 212.08 153.512 212.524 152.984C212.968 152.444 213.19 151.802 213.19 151.058V146.18H214.846V155ZM218.518 142.112V155H216.862V142.112H218.518ZM224.407 153.776C225.223 153.776 225.889 153.482 226.405 152.894C226.945 152.306 227.215 151.538 227.215 150.59C227.215 149.666 226.945 148.904 226.405 148.304C225.877 147.704 225.211 147.404 224.407 147.404C223.615 147.404 222.949 147.704 222.409 148.304C221.869 148.904 221.599 149.666 221.599 150.59C221.599 151.526 221.869 152.288 222.409 152.876C222.949 153.476 223.615 153.776 224.407 153.776ZM224.137 155.288C222.985 155.288 221.995 154.832 221.167 153.92C220.351 152.996 219.943 151.886 219.943 150.59C219.943 149.294 220.351 148.184 221.167 147.26C221.995 146.348 222.985 145.892 224.137 145.892C224.785 145.892 225.373 146.03 225.901 146.306C226.441 146.582 226.855 146.948 227.143 147.404H227.215L227.143 146.18V142.112H228.799V155H227.215V153.776H227.143C226.855 154.232 226.441 154.598 225.901 154.874C225.373 155.15 224.785 155.288 224.137 155.288ZM234.691 155.288C233.395 155.288 232.327 154.844 231.487 153.956C230.647 153.068 230.227 151.946 230.227 150.59C230.227 149.246 230.635 148.13 231.451 147.242C232.267 146.342 233.311 145.892 234.583 145.892C235.891 145.892 236.929 146.318 237.697 147.17C238.477 148.01 238.867 149.192 238.867 150.716L238.849 150.896H231.919C231.943 151.76 232.231 152.456 232.783 152.984C233.335 153.512 233.995 153.776 234.763 153.776C235.819 153.776 236.647 153.248 237.247 152.192L238.723 152.912C238.327 153.656 237.775 154.238 237.067 154.658C236.371 155.078 235.579 155.288 234.691 155.288ZM232.045 149.528H237.103C237.055 148.916 236.803 148.412 236.347 148.016C235.903 147.608 235.303 147.404 234.547 147.404C233.923 147.404 233.383 147.596 232.927 147.98C232.483 148.364 232.189 148.88 232.045 149.528ZM242.037 155H240.381V146.18H241.965V147.62H242.037C242.205 147.152 242.547 146.756 243.063 146.432C243.591 146.096 244.107 145.928 244.611 145.928C245.091 145.928 245.499 146 245.835 146.144L245.331 147.746C245.127 147.662 244.803 147.62 244.359 147.62C243.735 147.62 243.189 147.872 242.721 148.376C242.265 148.88 242.037 149.468 242.037 150.14V155ZM250.371 150.59C250.371 149.234 250.797 148.112 251.649 147.224C252.513 146.336 253.599 145.892 254.907 145.892C256.215 145.892 257.295 146.336 258.147 147.224C259.011 148.112 259.443 149.234 259.443 150.59C259.443 151.958 259.011 153.08 258.147 153.956C257.295 154.844 256.215 155.288 254.907 155.288C253.599 155.288 252.513 154.844 251.649 153.956C250.797 153.068 250.371 151.946 250.371 150.59ZM252.027 150.59C252.027 151.538 252.303 152.306 252.855 152.894C253.407 153.482 254.091 153.776 254.907 153.776C255.723 153.776 256.407 153.482 256.959 152.894C257.511 152.306 257.787 151.538 257.787 150.59C257.787 149.654 257.511 148.892 256.959 148.304C256.395 147.704 255.711 147.404 254.907 147.404C254.103 147.404 253.419 147.704 252.855 148.304C252.303 148.892 252.027 149.654 252.027 150.59ZM262.428 155H260.772V146.18H262.356V147.62H262.428C262.596 147.152 262.938 146.756 263.454 146.432C263.982 146.096 264.498 145.928 265.002 145.928C265.482 145.928 265.89 146 266.226 146.144L265.722 147.746C265.518 147.662 265.194 147.62 264.75 147.62C264.126 147.62 263.58 147.872 263.112 148.376C262.656 148.88 262.428 149.468 262.428 150.14V155ZM274.982 141.968C275.582 141.968 276.074 142.07 276.458 142.274L276.008 143.732C275.72 143.588 275.396 143.516 275.036 143.516C274.628 143.516 274.292 143.66 274.028 143.948C273.776 144.224 273.65 144.596 273.65 145.064V146.18H275.954V147.692H273.65V155H271.994V147.692H270.338V146.18H271.994V144.902C271.994 144.026 272.27 143.318 272.822 142.778C273.386 142.238 274.106 141.968 274.982 141.968ZM278.396 152.3C278.396 152.732 278.576 153.092 278.936 153.38C279.308 153.668 279.74 153.812 280.232 153.812C280.928 153.812 281.546 153.554 282.086 153.038C282.638 152.522 282.914 151.916 282.914 151.22C282.398 150.812 281.678 150.608 280.754 150.608C280.082 150.608 279.518 150.77 279.062 151.094C278.618 151.418 278.396 151.82 278.396 152.3ZM280.538 145.892C281.762 145.892 282.728 146.222 283.436 146.882C284.144 147.53 284.498 148.424 284.498 149.564V155H282.914V153.776H282.842C282.158 154.784 281.246 155.288 280.106 155.288C279.134 155.288 278.318 155 277.658 154.424C277.01 153.848 276.686 153.128 276.686 152.264C276.686 151.352 277.028 150.626 277.712 150.086C278.408 149.546 279.332 149.276 280.484 149.276C281.468 149.276 282.278 149.456 282.914 149.816V149.438C282.914 148.862 282.686 148.376 282.23 147.98C281.774 147.572 281.24 147.368 280.628 147.368C279.704 147.368 278.972 147.758 278.432 148.538L276.974 147.62C277.778 146.468 278.966 145.892 280.538 145.892ZM290.31 155.288C289.002 155.288 287.916 154.844 287.052 153.956C286.2 153.044 285.774 151.922 285.774 150.59C285.774 149.234 286.2 148.112 287.052 147.224C287.916 146.336 289.002 145.892 290.31 145.892C291.21 145.892 291.996 146.12 292.668 146.576C293.34 147.02 293.844 147.638 294.18 148.43L292.668 149.06C292.2 147.956 291.378 147.404 290.202 147.404C289.446 147.404 288.792 147.71 288.24 148.322C287.7 148.934 287.43 149.69 287.43 150.59C287.43 151.49 287.7 152.246 288.24 152.858C288.792 153.47 289.446 153.776 290.202 153.776C291.414 153.776 292.266 153.224 292.758 152.12L294.234 152.75C293.91 153.542 293.4 154.166 292.704 154.622C292.02 155.066 291.222 155.288 290.31 155.288ZM297.824 143.138C297.824 143.462 297.71 143.738 297.482 143.966C297.254 144.194 296.978 144.308 296.654 144.308C296.33 144.308 296.054 144.194 295.826 143.966C295.598 143.738 295.484 143.462 295.484 143.138C295.484 142.814 295.598 142.538 295.826 142.31C296.054 142.082 296.33 141.968 296.654 141.968C296.978 141.968 297.254 142.082 297.482 142.31C297.71 142.538 297.824 142.814 297.824 143.138ZM297.482 146.18V155H295.826V146.18H297.482ZM301.293 142.112V155H299.637V142.112H301.293ZM305.453 143.138C305.453 143.462 305.339 143.738 305.111 143.966C304.883 144.194 304.607 144.308 304.283 144.308C303.959 144.308 303.683 144.194 303.455 143.966C303.227 143.738 303.113 143.462 303.113 143.138C303.113 142.814 303.227 142.538 303.455 142.31C303.683 142.082 303.959 141.968 304.283 141.968C304.607 141.968 304.883 142.082 305.111 142.31C305.339 142.538 305.453 142.814 305.453 143.138ZM305.111 146.18V155H303.455V146.18H305.111ZM310.67 155.144C309.95 155.144 309.35 154.922 308.87 154.478C308.402 154.034 308.162 153.416 308.15 152.624V147.692H306.602V146.18H308.15V143.48H309.806V146.18H311.966V147.692H309.806V152.084C309.806 152.672 309.92 153.074 310.148 153.29C310.376 153.494 310.634 153.596 310.922 153.596C311.054 153.596 311.18 153.584 311.3 153.56C311.432 153.524 311.552 153.482 311.66 153.434L312.182 154.91C311.75 155.066 311.246 155.144 310.67 155.144ZM314.571 152.3C314.571 152.732 314.751 153.092 315.111 153.38C315.483 153.668 315.915 153.812 316.407 153.812C317.103 153.812 317.721 153.554 318.261 153.038C318.813 152.522 319.089 151.916 319.089 151.22C318.573 150.812 317.853 150.608 316.929 150.608C316.257 150.608 315.693 150.77 315.237 151.094C314.793 151.418 314.571 151.82 314.571 152.3ZM316.713 145.892C317.937 145.892 318.903 146.222 319.611 146.882C320.319 147.53 320.673 148.424 320.673 149.564V155H319.089V153.776H319.017C318.333 154.784 317.421 155.288 316.281 155.288C315.309 155.288 314.493 155 313.833 154.424C313.185 153.848 312.861 153.128 312.861 152.264C312.861 151.352 313.203 150.626 313.887 150.086C314.583 149.546 315.507 149.276 316.659 149.276C317.643 149.276 318.453 149.456 319.089 149.816V149.438C319.089 148.862 318.861 148.376 318.405 147.98C317.949 147.572 317.415 147.368 316.803 147.368C315.879 147.368 315.147 147.758 314.607 148.538L313.149 147.62C313.953 146.468 315.141 145.892 316.713 145.892ZM325.857 155.144C325.137 155.144 324.537 154.922 324.057 154.478C323.589 154.034 323.349 153.416 323.337 152.624V147.692H321.789V146.18H323.337V143.48H324.993V146.18H327.153V147.692H324.993V152.084C324.993 152.672 325.107 153.074 325.335 153.29C325.563 153.494 325.821 153.596 326.109 153.596C326.241 153.596 326.367 153.584 326.487 153.56C326.619 153.524 326.739 153.482 326.847 153.434L327.369 154.91C326.937 155.066 326.433 155.144 325.857 155.144ZM332.601 155.288C331.305 155.288 330.237 154.844 329.397 153.956C328.557 153.068 328.137 151.946 328.137 150.59C328.137 149.246 328.545 148.13 329.361 147.242C330.177 146.342 331.221 145.892 332.493 145.892C333.801 145.892 334.839 146.318 335.607 147.17C336.387 148.01 336.777 149.192 336.777 150.716L336.759 150.896H329.829C329.853 151.76 330.141 152.456 330.693 152.984C331.245 153.512 331.905 153.776 332.673 153.776C333.729 153.776 334.557 153.248 335.157 152.192L336.633 152.912C336.237 153.656 335.685 154.238 334.977 154.658C334.281 155.078 333.489 155.288 332.601 155.288ZM329.955 149.528H335.013C334.965 148.916 334.713 148.412 334.257 148.016C333.813 147.608 333.213 147.404 332.457 147.404C331.833 147.404 331.293 147.596 330.837 147.98C330.393 148.364 330.099 148.88 329.955 149.528ZM343.452 152.3C343.452 152.732 343.632 153.092 343.992 153.38C344.364 153.668 344.796 153.812 345.288 153.812C345.984 153.812 346.602 153.554 347.142 153.038C347.694 152.522 347.97 151.916 347.97 151.22C347.454 150.812 346.734 150.608 345.81 150.608C345.138 150.608 344.574 150.77 344.118 151.094C343.674 151.418 343.452 151.82 343.452 152.3ZM345.594 145.892C346.818 145.892 347.784 146.222 348.492 146.882C349.2 147.53 349.554 148.424 349.554 149.564V155H347.97V153.776H347.898C347.214 154.784 346.302 155.288 345.162 155.288C344.19 155.288 343.374 155 342.714 154.424C342.066 153.848 341.742 153.128 341.742 152.264C341.742 151.352 342.084 150.626 342.768 150.086C343.464 149.546 344.388 149.276 345.54 149.276C346.524 149.276 347.334 149.456 347.97 149.816V149.438C347.97 148.862 347.742 148.376 347.286 147.98C346.83 147.572 346.296 147.368 345.684 147.368C344.76 147.368 344.028 147.758 343.488 148.538L342.03 147.62C342.834 146.468 344.022 145.892 345.594 145.892ZM351.422 146.18H353.006V147.404H353.078C353.33 146.972 353.714 146.612 354.23 146.324C354.758 146.036 355.304 145.892 355.868 145.892C356.948 145.892 357.776 146.204 358.352 146.828C358.94 147.44 359.234 148.316 359.234 149.456V155H357.578V149.564C357.542 148.124 356.816 147.404 355.4 147.404C354.74 147.404 354.188 147.674 353.744 148.214C353.3 148.742 353.078 149.378 353.078 150.122V155H351.422V146.18ZM368.886 146.18L363.36 158.888H361.65L363.702 154.442L360.066 146.18H361.866L364.494 152.516H364.53L367.086 146.18H368.886ZM378.242 153.776C379.034 153.776 379.7 153.476 380.24 152.876C380.78 152.288 381.05 151.526 381.05 150.59C381.05 149.666 380.78 148.904 380.24 148.304C379.7 147.704 379.034 147.404 378.242 147.404C377.438 147.404 376.766 147.704 376.226 148.304C375.698 148.904 375.434 149.666 375.434 150.59C375.434 151.526 375.698 152.294 376.226 152.894C376.766 153.482 377.438 153.776 378.242 153.776ZM378.512 155.288C377.864 155.288 377.27 155.15 376.73 154.874C376.202 154.598 375.794 154.232 375.506 153.776H375.434L375.506 155V158.888H373.85V146.18H375.434V147.404H375.506C375.794 146.948 376.202 146.582 376.73 146.306C377.27 146.03 377.864 145.892 378.512 145.892C379.676 145.892 380.66 146.348 381.464 147.26C382.292 148.184 382.706 149.294 382.706 150.59C382.706 151.898 382.292 153.008 381.464 153.92C380.66 154.832 379.676 155.288 378.512 155.288ZM385.791 155H384.135V146.18H385.719V147.62H385.791C385.959 147.152 386.301 146.756 386.817 146.432C387.345 146.096 387.861 145.928 388.365 145.928C388.845 145.928 389.253 146 389.589 146.144L389.085 147.746C388.881 147.662 388.557 147.62 388.113 147.62C387.489 147.62 386.943 147.872 386.475 148.376C386.019 148.88 385.791 149.468 385.791 150.14V155ZM389.625 150.59C389.625 149.234 390.051 148.112 390.903 147.224C391.767 146.336 392.853 145.892 394.161 145.892C395.469 145.892 396.549 146.336 397.401 147.224C398.265 148.112 398.697 149.234 398.697 150.59C398.697 151.958 398.265 153.08 397.401 153.956C396.549 154.844 395.469 155.288 394.161 155.288C392.853 155.288 391.767 154.844 390.903 153.956C390.051 153.068 389.625 151.946 389.625 150.59ZM391.281 150.59C391.281 151.538 391.557 152.306 392.109 152.894C392.661 153.482 393.345 153.776 394.161 153.776C394.977 153.776 395.661 153.482 396.213 152.894C396.765 152.306 397.041 151.538 397.041 150.59C397.041 149.654 396.765 148.892 396.213 148.304C395.649 147.704 394.965 147.404 394.161 147.404C393.357 147.404 392.673 147.704 392.109 148.304C391.557 148.892 391.281 149.654 391.281 150.59ZM404.233 155.288C402.925 155.288 401.839 154.844 400.975 153.956C400.123 153.044 399.697 151.922 399.697 150.59C399.697 149.234 400.123 148.112 400.975 147.224C401.839 146.336 402.925 145.892 404.233 145.892C405.133 145.892 405.919 146.12 406.591 146.576C407.263 147.02 407.767 147.638 408.103 148.43L406.591 149.06C406.123 147.956 405.301 147.404 404.125 147.404C403.369 147.404 402.715 147.71 402.163 148.322C401.623 148.934 401.353 149.69 401.353 150.59C401.353 151.49 401.623 152.246 402.163 152.858C402.715 153.47 403.369 153.776 404.125 153.776C405.337 153.776 406.189 153.224 406.681 152.12L408.157 152.75C407.833 153.542 407.323 154.166 406.627 154.622C405.943 155.066 405.145 155.288 404.233 155.288ZM413.478 155.288C412.182 155.288 411.114 154.844 410.274 153.956C409.434 153.068 409.014 151.946 409.014 150.59C409.014 149.246 409.422 148.13 410.238 147.242C411.054 146.342 412.098 145.892 413.37 145.892C414.678 145.892 415.716 146.318 416.484 147.17C417.264 148.01 417.654 149.192 417.654 150.716L417.636 150.896H410.706C410.73 151.76 411.018 152.456 411.57 152.984C412.122 153.512 412.782 153.776 413.55 153.776C414.606 153.776 415.434 153.248 416.034 152.192L417.51 152.912C417.114 153.656 416.562 154.238 415.854 154.658C415.158 155.078 414.366 155.288 413.478 155.288ZM410.832 149.528H415.89C415.842 148.916 415.59 148.412 415.134 148.016C414.69 147.608 414.09 147.404 413.334 147.404C412.71 147.404 412.17 147.596 411.714 147.98C411.27 148.364 410.976 148.88 410.832 149.528ZM426.006 152.552C426.006 153.32 425.67 153.968 424.998 154.496C424.326 155.024 423.48 155.288 422.46 155.288C421.572 155.288 420.792 155.06 420.12 154.604C419.448 154.136 418.968 153.524 418.68 152.768L420.156 152.138C420.372 152.666 420.684 153.08 421.092 153.38C421.512 153.668 421.968 153.812 422.46 153.812C422.988 153.812 423.426 153.698 423.774 153.47C424.134 153.242 424.314 152.972 424.314 152.66C424.314 152.096 423.882 151.682 423.018 151.418L421.506 151.04C419.79 150.608 418.932 149.78 418.932 148.556C418.932 147.752 419.256 147.11 419.904 146.63C420.564 146.138 421.404 145.892 422.424 145.892C423.204 145.892 423.906 146.078 424.53 146.45C425.166 146.822 425.61 147.32 425.862 147.944L424.386 148.556C424.218 148.184 423.942 147.896 423.558 147.692C423.186 147.476 422.766 147.368 422.298 147.368C421.866 147.368 421.476 147.476 421.128 147.692C420.792 147.908 420.624 148.172 420.624 148.484C420.624 148.988 421.098 149.348 422.046 149.564L423.378 149.906C425.13 150.338 426.006 151.22 426.006 152.552ZM434.197 152.552C434.197 153.32 433.861 153.968 433.189 154.496C432.517 155.024 431.671 155.288 430.651 155.288C429.763 155.288 428.983 155.06 428.311 154.604C427.639 154.136 427.159 153.524 426.871 152.768L428.347 152.138C428.563 152.666 428.875 153.08 429.283 153.38C429.703 153.668 430.159 153.812 430.651 153.812C431.179 153.812 431.617 153.698 431.965 153.47C432.325 153.242 432.505 152.972 432.505 152.66C432.505 152.096 432.073 151.682 431.209 151.418L429.697 151.04C427.981 150.608 427.123 149.78 427.123 148.556C427.123 147.752 427.447 147.11 428.095 146.63C428.755 146.138 429.595 145.892 430.615 145.892C431.395 145.892 432.097 146.078 432.721 146.45C433.357 146.822 433.801 147.32 434.053 147.944L432.577 148.556C432.409 148.184 432.133 147.896 431.749 147.692C431.377 147.476 430.957 147.368 430.489 147.368C430.057 147.368 429.667 147.476 429.319 147.692C428.983 147.908 428.815 148.172 428.815 148.484C428.815 148.988 429.289 149.348 430.237 149.564L431.569 149.906C433.321 150.338 434.197 151.22 434.197 152.552ZM441.736 143.138C441.736 143.462 441.622 143.738 441.394 143.966C441.166 144.194 440.89 144.308 440.566 144.308C440.242 144.308 439.966 144.194 439.738 143.966C439.51 143.738 439.396 143.462 439.396 143.138C439.396 142.814 439.51 142.538 439.738 142.31C439.966 142.082 440.242 141.968 440.566 141.968C440.89 141.968 441.166 142.082 441.394 142.31C441.622 142.538 441.736 142.814 441.736 143.138ZM441.394 146.18V155H439.738V146.18H441.394ZM443.549 146.18H445.133V147.404H445.205C445.457 146.972 445.841 146.612 446.357 146.324C446.885 146.036 447.431 145.892 447.995 145.892C449.075 145.892 449.903 146.204 450.479 146.828C451.067 147.44 451.361 148.316 451.361 149.456V155H449.705V149.564C449.669 148.124 448.943 147.404 447.527 147.404C446.867 147.404 446.315 147.674 445.871 148.214C445.427 148.742 445.205 149.378 445.205 150.122V155H443.549V146.18ZM460.752 155.144C460.032 155.144 459.432 154.922 458.952 154.478C458.484 154.034 458.244 153.416 458.232 152.624V147.692H456.684V146.18H458.232V143.48H459.888V146.18H462.048V147.692H459.888V152.084C459.888 152.672 460.002 153.074 460.23 153.29C460.458 153.494 460.716 153.596 461.004 153.596C461.136 153.596 461.262 153.584 461.382 153.56C461.514 153.524 461.634 153.482 461.742 153.434L462.264 154.91C461.832 155.066 461.328 155.144 460.752 155.144ZM463.711 142.112H465.367V146.18L465.295 147.404H465.367C465.619 146.972 466.003 146.612 466.519 146.324C467.047 146.036 467.593 145.892 468.157 145.892C469.237 145.892 470.065 146.204 470.641 146.828C471.229 147.44 471.523 148.316 471.523 149.456V155H469.867V149.78C469.867 148.196 469.165 147.404 467.761 147.404C467.089 147.404 466.519 147.686 466.051 148.25C465.595 148.802 465.367 149.45 465.367 150.194V155H463.711V142.112ZM477.427 155.288C476.131 155.288 475.063 154.844 474.223 153.956C473.383 153.068 472.963 151.946 472.963 150.59C472.963 149.246 473.371 148.13 474.187 147.242C475.003 146.342 476.047 145.892 477.319 145.892C478.627 145.892 479.665 146.318 480.433 147.17C481.213 148.01 481.603 149.192 481.603 150.716L481.585 150.896H474.655C474.679 151.76 474.967 152.456 475.519 152.984C476.071 153.512 476.731 153.776 477.499 153.776C478.555 153.776 479.383 153.248 479.983 152.192L481.459 152.912C481.063 153.656 480.511 154.238 479.803 154.658C479.107 155.078 478.315 155.288 477.427 155.288ZM474.781 149.528H479.839C479.791 148.916 479.539 148.412 479.083 148.016C478.639 147.608 478.039 147.404 477.283 147.404C476.659 147.404 476.119 147.596 475.663 147.98C475.219 148.364 474.925 148.88 474.781 149.528ZM8.04 177.288C6.732 177.288 5.646 176.844 4.782 175.956C3.93 175.044 3.504 173.922 3.504 172.59C3.504 171.234 3.93 170.112 4.782 169.224C5.646 168.336 6.732 167.892 8.04 167.892C8.94 167.892 9.726 168.12 10.398 168.576C11.07 169.02 11.574 169.638 11.91 170.43L10.398 171.06C9.93 169.956 9.108 169.404 7.932 169.404C7.176 169.404 6.522 169.71 5.97 170.322C5.43 170.934 5.16 171.69 5.16 172.59C5.16 173.49 5.43 174.246 5.97 174.858C6.522 175.47 7.176 175.776 7.932 175.776C9.144 175.776 9.996 175.224 10.488 174.12L11.964 174.75C11.64 175.542 11.13 176.166 10.434 176.622C9.75 177.066 8.952 177.288 8.04 177.288ZM12.8204 172.59C12.8204 171.234 13.2464 170.112 14.0984 169.224C14.9624 168.336 16.0484 167.892 17.3564 167.892C18.6644 167.892 19.7444 168.336 20.5964 169.224C21.4604 170.112 21.8924 171.234 21.8924 172.59C21.8924 173.958 21.4604 175.08 20.5964 175.956C19.7444 176.844 18.6644 177.288 17.3564 177.288C16.0484 177.288 14.9624 176.844 14.0984 175.956C13.2464 175.068 12.8204 173.946 12.8204 172.59ZM14.4764 172.59C14.4764 173.538 14.7524 174.306 15.3044 174.894C15.8564 175.482 16.5404 175.776 17.3564 175.776C18.1724 175.776 18.8564 175.482 19.4084 174.894C19.9604 174.306 20.2364 173.538 20.2364 172.59C20.2364 171.654 19.9604 170.892 19.4084 170.304C18.8444 169.704 18.1604 169.404 17.3564 169.404C16.5524 169.404 15.8684 169.704 15.3044 170.304C14.7524 170.892 14.4764 171.654 14.4764 172.59ZM31.0488 177H29.4648V175.776H29.3928C29.1408 176.208 28.7508 176.568 28.2228 176.856C27.7068 177.144 27.1668 177.288 26.6028 177.288C25.5228 177.288 24.6888 176.982 24.1008 176.37C23.5248 175.746 23.2368 174.864 23.2368 173.724V168.18H24.8928V173.616C24.9288 175.056 25.6548 175.776 27.0708 175.776C27.7308 175.776 28.2828 175.512 28.7268 174.984C29.1708 174.444 29.3928 173.802 29.3928 173.058V168.18H31.0488V177ZM34.7206 177H33.0646V168.18H34.6486V169.62H34.7206C34.8886 169.152 35.2306 168.756 35.7466 168.432C36.2746 168.096 36.7906 167.928 37.2946 167.928C37.7746 167.928 38.1826 168 38.5186 168.144L38.0146 169.746C37.8106 169.662 37.4866 169.62 37.0426 169.62C36.4186 169.62 35.8726 169.872 35.4046 170.376C34.9486 170.88 34.7206 171.468 34.7206 172.14V177ZM46.0021 174.552C46.0021 175.32 45.6661 175.968 44.9941 176.496C44.3221 177.024 43.4761 177.288 42.4561 177.288C41.5681 177.288 40.7881 177.06 40.1161 176.604C39.4441 176.136 38.9641 175.524 38.6761 174.768L40.1521 174.138C40.3681 174.666 40.6801 175.08 41.0881 175.38C41.5081 175.668 41.9641 175.812 42.4561 175.812C42.9841 175.812 43.4221 175.698 43.7701 175.47C44.1301 175.242 44.3101 174.972 44.3101 174.66C44.3101 174.096 43.8781 173.682 43.0141 173.418L41.5021 173.04C39.7861 172.608 38.9281 171.78 38.9281 170.556C38.9281 169.752 39.2521 169.11 39.9001 168.63C40.5601 168.138 41.4001 167.892 42.4201 167.892C43.2001 167.892 43.9021 168.078 44.5261 168.45C45.1621 168.822 45.6061 169.32 45.8581 169.944L44.3821 170.556C44.2141 170.184 43.9381 169.896 43.5541 169.692C43.1821 169.476 42.7621 169.368 42.2941 169.368C41.8621 169.368 41.4721 169.476 41.1241 169.692C40.7881 169.908 40.6201 170.172 40.6201 170.484C40.6201 170.988 41.0941 171.348 42.0421 171.564L43.3741 171.906C45.1261 172.338 46.0021 173.22 46.0021 174.552ZM51.4914 177.288C50.1954 177.288 49.1274 176.844 48.2874 175.956C47.4474 175.068 47.0274 173.946 47.0274 172.59C47.0274 171.246 47.4354 170.13 48.2514 169.242C49.0674 168.342 50.1114 167.892 51.3834 167.892C52.6914 167.892 53.7294 168.318 54.4974 169.17C55.2774 170.01 55.6674 171.192 55.6674 172.716L55.6494 172.896H48.7194C48.7434 173.76 49.0314 174.456 49.5834 174.984C50.1354 175.512 50.7954 175.776 51.5634 175.776C52.6194 175.776 53.4474 175.248 54.0474 174.192L55.5234 174.912C55.1274 175.656 54.5754 176.238 53.8674 176.658C53.1714 177.078 52.3794 177.288 51.4914 177.288ZM48.8454 171.528H53.9034C53.8554 170.916 53.6034 170.412 53.1474 170.016C52.7034 169.608 52.1034 169.404 51.3474 169.404C50.7234 169.404 50.1834 169.596 49.7274 169.98C49.2834 170.364 48.9894 170.88 48.8454 171.528ZM60.6329 172.59C60.6329 171.234 61.0589 170.112 61.9109 169.224C62.7749 168.336 63.8609 167.892 65.1689 167.892C66.4769 167.892 67.5569 168.336 68.4089 169.224C69.2729 170.112 69.7049 171.234 69.7049 172.59C69.7049 173.958 69.2729 175.08 68.4089 175.956C67.5569 176.844 66.4769 177.288 65.1689 177.288C63.8609 177.288 62.7749 176.844 61.9109 175.956C61.0589 175.068 60.6329 173.946 60.6329 172.59ZM62.2889 172.59C62.2889 173.538 62.5649 174.306 63.1169 174.894C63.6689 175.482 64.3529 175.776 65.1689 175.776C65.9849 175.776 66.6689 175.482 67.2209 174.894C67.7729 174.306 68.0489 173.538 68.0489 172.59C68.0489 171.654 67.7729 170.892 67.2209 170.304C66.6569 169.704 65.9729 169.404 65.1689 169.404C64.3649 169.404 63.6809 169.704 63.1169 170.304C62.5649 170.892 62.2889 171.654 62.2889 172.59ZM75.0135 163.968C75.6135 163.968 76.1055 164.07 76.4895 164.274L76.0395 165.732C75.7515 165.588 75.4275 165.516 75.0675 165.516C74.6595 165.516 74.3235 165.66 74.0595 165.948C73.8075 166.224 73.6815 166.596 73.6815 167.064V168.18H75.9855V169.692H73.6815V177H72.0255V169.692H70.3695V168.18H72.0255V166.902C72.0255 166.026 72.3015 165.318 72.8535 164.778C73.4175 164.238 74.1375 163.968 75.0135 163.968ZM88.2775 174.552C88.2775 175.32 87.9415 175.968 87.2695 176.496C86.5975 177.024 85.7515 177.288 84.7315 177.288C83.8435 177.288 83.0635 177.06 82.3915 176.604C81.7195 176.136 81.2395 175.524 80.9515 174.768L82.4275 174.138C82.6435 174.666 82.9555 175.08 83.3635 175.38C83.7835 175.668 84.2395 175.812 84.7315 175.812C85.2595 175.812 85.6975 175.698 86.0455 175.47C86.4055 175.242 86.5855 174.972 86.5855 174.66C86.5855 174.096 86.1535 173.682 85.2895 173.418L83.7775 173.04C82.0615 172.608 81.2035 171.78 81.2035 170.556C81.2035 169.752 81.5275 169.11 82.1755 168.63C82.8355 168.138 83.6755 167.892 84.6955 167.892C85.4755 167.892 86.1775 168.078 86.8015 168.45C87.4375 168.822 87.8815 169.32 88.1335 169.944L86.6575 170.556C86.4895 170.184 86.2135 169.896 85.8295 169.692C85.4575 169.476 85.0375 169.368 84.5695 169.368C84.1375 169.368 83.7475 169.476 83.3995 169.692C83.0635 169.908 82.8955 170.172 82.8955 170.484C82.8955 170.988 83.3695 171.348 84.3175 171.564L85.6495 171.906C87.4015 172.338 88.2775 173.22 88.2775 174.552ZM89.7189 164.112H91.3749V168.18L91.3029 169.404H91.3749C91.6269 168.972 92.0109 168.612 92.5269 168.324C93.0549 168.036 93.6009 167.892 94.1649 167.892C95.2449 167.892 96.0729 168.204 96.6489 168.828C97.2369 169.44 97.5309 170.316 97.5309 171.456V177H95.8749V171.78C95.8749 170.196 95.1729 169.404 93.7689 169.404C93.0969 169.404 92.5269 169.686 92.0589 170.25C91.6029 170.802 91.3749 171.45 91.3749 172.194V177H89.7189V164.112ZM101.617 165.138C101.617 165.462 101.503 165.738 101.275 165.966C101.047 166.194 100.771 166.308 100.447 166.308C100.123 166.308 99.8468 166.194 99.6188 165.966C99.3908 165.738 99.2768 165.462 99.2768 165.138C99.2768 164.814 99.3908 164.538 99.6188 164.31C99.8468 164.082 100.123 163.968 100.447 163.968C100.771 163.968 101.047 164.082 101.275 164.31C101.503 164.538 101.617 164.814 101.617 165.138ZM101.275 168.18V177H99.6188V168.18H101.275ZM107.75 175.776C108.542 175.776 109.208 175.476 109.748 174.876C110.288 174.288 110.558 173.526 110.558 172.59C110.558 171.666 110.288 170.904 109.748 170.304C109.208 169.704 108.542 169.404 107.75 169.404C106.946 169.404 106.274 169.704 105.734 170.304C105.206 170.904 104.942 171.666 104.942 172.59C104.942 173.526 105.206 174.294 105.734 174.894C106.274 175.482 106.946 175.776 107.75 175.776ZM108.02 177.288C107.372 177.288 106.778 177.15 106.238 176.874C105.71 176.598 105.302 176.232 105.014 175.776H104.942L105.014 177V180.888H103.358V168.18H104.942V169.404H105.014C105.302 168.948 105.71 168.582 106.238 168.306C106.778 168.03 107.372 167.892 108.02 167.892C109.184 167.892 110.168 168.348 110.972 169.26C111.8 170.184 112.214 171.294 112.214 172.59C112.214 173.898 111.8 175.008 110.972 175.92C110.168 176.832 109.184 177.288 108.02 177.288ZM117.875 175.776C118.667 175.776 119.333 175.476 119.873 174.876C120.413 174.288 120.683 173.526 120.683 172.59C120.683 171.666 120.413 170.904 119.873 170.304C119.333 169.704 118.667 169.404 117.875 169.404C117.071 169.404 116.399 169.704 115.859 170.304C115.331 170.904 115.067 171.666 115.067 172.59C115.067 173.526 115.331 174.294 115.859 174.894C116.399 175.482 117.071 175.776 117.875 175.776ZM118.145 177.288C117.497 177.288 116.903 177.15 116.363 176.874C115.835 176.598 115.427 176.232 115.139 175.776H115.067L115.139 177V180.888H113.483V168.18H115.067V169.404H115.139C115.427 168.948 115.835 168.582 116.363 168.306C116.903 168.03 117.497 167.892 118.145 167.892C119.309 167.892 120.293 168.348 121.097 169.26C121.925 170.184 122.339 171.294 122.339 172.59C122.339 173.898 121.925 175.008 121.097 175.92C120.293 176.832 119.309 177.288 118.145 177.288ZM125.91 165.138C125.91 165.462 125.796 165.738 125.568 165.966C125.34 166.194 125.064 166.308 124.74 166.308C124.416 166.308 124.14 166.194 123.912 165.966C123.684 165.738 123.57 165.462 123.57 165.138C123.57 164.814 123.684 164.538 123.912 164.31C124.14 164.082 124.416 163.968 124.74 163.968C125.064 163.968 125.34 164.082 125.568 164.31C125.796 164.538 125.91 164.814 125.91 165.138ZM125.568 168.18V177H123.912V168.18H125.568ZM127.723 168.18H129.307V169.404H129.379C129.631 168.972 130.015 168.612 130.531 168.324C131.059 168.036 131.605 167.892 132.169 167.892C133.249 167.892 134.077 168.204 134.653 168.828C135.241 169.44 135.535 170.316 135.535 171.456V177H133.879V171.564C133.843 170.124 133.117 169.404 131.701 169.404C131.041 169.404 130.489 169.674 130.045 170.214C129.601 170.742 129.379 171.378 129.379 172.122V177H127.723V168.18ZM141.351 175.776C142.167 175.776 142.833 175.482 143.349 174.894C143.889 174.306 144.159 173.538 144.159 172.59C144.159 171.666 143.889 170.904 143.349 170.304C142.821 169.704 142.155 169.404 141.351 169.404C140.559 169.404 139.893 169.704 139.353 170.304C138.813 170.904 138.543 171.666 138.543 172.59C138.543 173.526 138.813 174.288 139.353 174.876C139.893 175.476 140.559 175.776 141.351 175.776ZM141.297 181.176C140.805 181.176 140.343 181.11 139.911 180.978C139.479 180.858 139.083 180.684 138.723 180.456C138.375 180.228 138.075 179.958 137.823 179.646C137.571 179.334 137.379 178.986 137.247 178.602L138.813 177.954C138.993 178.47 139.305 178.884 139.749 179.196C140.193 179.508 140.709 179.664 141.297 179.664C142.197 179.664 142.899 179.394 143.403 178.854C143.907 178.314 144.159 177.57 144.159 176.622V175.776H144.087C143.775 176.244 143.349 176.616 142.809 176.892C142.281 177.156 141.705 177.288 141.081 177.288C139.929 177.288 138.939 176.838 138.111 175.938C137.295 175.014 136.887 173.898 136.887 172.59C136.887 171.282 137.295 170.172 138.111 169.26C138.939 168.348 139.929 167.892 141.081 167.892C141.705 167.892 142.281 168.03 142.809 168.306C143.349 168.57 143.775 168.936 144.087 169.404H144.159V168.18H145.743V176.622C145.743 178.038 145.341 179.148 144.537 179.952C143.721 180.768 142.641 181.176 141.297 181.176ZM150.066 175.884C150.066 176.22 149.946 176.508 149.706 176.748C149.478 176.988 149.19 177.108 148.842 177.108C148.506 177.108 148.218 176.988 147.978 176.748C147.738 176.508 147.618 176.22 147.618 175.884C147.618 175.536 147.738 175.248 147.978 175.02C148.218 174.78 148.506 174.66 148.842 174.66C149.19 174.66 149.478 174.78 149.706 175.02C149.946 175.248 150.066 175.536 150.066 175.884Z" fill="#121212"/>
</svg>
