<svg width="50" height="50" viewBox="0 0 50 50" fill="none" xmlns="http://www.w3.org/2000/svg">
<circle cx="25" cy="25" r="25" fill="white"/>
<path d="M38.5316 21.875H30.5316C30.3941 21.875 30.2816 21.9875 30.2816 22.125V23.625C30.2816 23.7625 30.3941 23.875 30.5316 23.875H38.5316C38.6691 23.875 38.7816 23.7625 38.7816 23.625V22.125C38.7816 21.9875 38.6691 21.875 38.5316 21.875ZM34.3441 26.125H30.5316C30.3941 26.125 30.2816 26.2375 30.2816 26.375V27.875C30.2816 28.0125 30.3941 28.125 30.5316 28.125H34.3441C34.4816 28.125 34.5941 28.0125 34.5941 27.875V26.375C34.5941 26.2375 34.4816 26.125 34.3441 26.125ZM23.916 19.0781H22.5629C22.3691 19.0781 22.2129 19.2344 22.2129 19.4281V27.1781C22.2129 27.2906 22.266 27.3938 22.3566 27.4594L27.0098 30.8531C27.166 30.9656 27.3848 30.9344 27.4973 30.7781L28.3004 29.6812V29.6781C28.4129 29.5219 28.3785 29.3031 28.2223 29.1906L24.2629 26.3281V19.4281C24.266 19.2344 24.1066 19.0781 23.916 19.0781Z" fill="#2196F3"/>
<path d="M34.15 30.0594H32.3438C32.1688 30.0594 32.0031 30.15 31.9094 30.3C31.5125 30.9281 31.05 31.5094 30.5188 32.0406C29.6031 32.9562 28.5375 33.675 27.3531 34.175C26.125 34.6937 24.8219 34.9562 23.4781 34.9562C22.1313 34.9562 20.8281 34.6937 19.6031 34.175C18.4188 33.675 17.3531 32.9562 16.4375 32.0406C15.5219 31.125 14.8031 30.0594 14.3031 28.875C13.7844 27.65 13.5219 26.3469 13.5219 25C13.5219 23.6531 13.7844 22.3531 14.3031 21.125C14.8031 19.9406 15.5219 18.875 16.4375 17.9594C17.3531 17.0437 18.4188 16.325 19.6031 15.825C20.8281 15.3062 22.1344 15.0437 23.4781 15.0437C24.825 15.0437 26.1281 15.3062 27.3531 15.825C28.5375 16.325 29.6031 17.0437 30.5188 17.9594C31.05 18.4906 31.5125 19.0719 31.9094 19.7C32.0031 19.85 32.1688 19.9406 32.3438 19.9406H34.15C34.3656 19.9406 34.5031 19.7156 34.4063 19.525C32.3688 15.4719 28.2375 12.8375 23.625 12.7844C16.8719 12.7 11.2625 18.2281 11.25 24.975C11.2375 31.7344 16.7156 37.2187 23.475 37.2187C28.1469 37.2187 32.3469 34.575 34.4063 30.475C34.5031 30.2844 34.3625 30.0594 34.15 30.0594Z" fill="#2196F3"/>
</svg>
